<?xml version="1.0" encoding="UTF-8" standalone="no"?>
<!DOCTYPE svg PUBLIC "-//W3C//DTD SVG 1.1//EN"
 "http://www.w3.org/Graphics/SVG/1.1/DTD/svg11.dtd">
<!-- Generated by graphviz version 2.40.1 (20161225.0304)
 -->
<!-- Title: %3 Pages: 1 -->
<svg width="393pt" height="2204pt"
 viewBox="0.00 0.00 392.89 2204.00" xmlns="http://www.w3.org/2000/svg" xmlns:xlink="http://www.w3.org/1999/xlink">
<g id="graph0" class="graph" transform="scale(1 1) rotate(0) translate(4 2200)">
<title>%3</title>
<polygon fill="#ffffff" stroke="transparent" points="-4,4 -4,-2200 388.8933,-2200 388.8933,4 -4,4"/>
<!-- Home -->
<g id="node1" class="node">
<title>Home</title>
<g id="a_node1"><a xlink:href="/" xlink:title="Home">
<polygon fill="none" stroke="#000000" points="102.3933,-2196 48.3933,-2196 48.3933,-2160 102.3933,-2160 102.3933,-2196"/>
<text text-anchor="middle" x="75.3933" y="-2174.3" font-family="Times,serif" font-size="14.00" fill="#000000">Home</text>
</a>
</g>
</g>
<!-- Core 1 -->
<g id="node2" class="node">
<title>Core 1</title>
<g id="a_node2"><a xlink:href="/core/" xlink:title="Core 1">
<polygon fill="none" stroke="#000000" points="102.3933,-2124 48.3933,-2124 48.3933,-2088 102.3933,-2088 102.3933,-2124"/>
<text text-anchor="middle" x="75.3933" y="-2102.3" font-family="Times,serif" font-size="14.00" fill="#000000">Core 1</text>
</a>
</g>
</g>
<!-- Home&#45;&#45;Core 1 -->
<g id="edge1" class="edge">
<title>Home&#45;&#45;Core 1</title>
<path fill="none" stroke="#000000" d="M75.3933,-2159.8314C75.3933,-2149 75.3933,-2135.2876 75.3933,-2124.4133"/>
</g>
<!-- Core 2 -->
<g id="node3" class="node">
<title>Core 2</title>
<g id="a_node3"><a xlink:href="/core/page/2" xlink:title="Core 2">
<polygon fill="none" stroke="#000000" points="102.3933,-2052 48.3933,-2052 48.3933,-2016 102.3933,-2016 102.3933,-2052"/>
<text text-anchor="middle" x="75.3933" y="-2030.3" font-family="Times,serif" font-size="14.00" fill="#000000">Core 2</text>
</a>
</g>
</g>
<!-- Core 1&#45;&#45;Core 2 -->
<g id="edge2" class="edge">
<title>Core 1&#45;&#45;Core 2</title>
<path fill="none" stroke="#000000" d="M75.3933,-2087.8314C75.3933,-2077 75.3933,-2063.2876 75.3933,-2052.4133"/>
</g>
<!-- Core 3 -->
<g id="node4" class="node">
<title>Core 3</title>
<g id="a_node4"><a xlink:href="/core/page/3" xlink:title="Core 3">
<polygon fill="none" stroke="#000000" points="102.3933,-1980 48.3933,-1980 48.3933,-1944 102.3933,-1944 102.3933,-1980"/>
<text text-anchor="middle" x="75.3933" y="-1958.3" font-family="Times,serif" font-size="14.00" fill="#000000">Core 3</text>
</a>
</g>
</g>
<!-- Core 2&#45;&#45;Core 3 -->
<g id="edge3" class="edge">
<title>Core 2&#45;&#45;Core 3</title>
<path fill="none" stroke="#000000" d="M75.3933,-2015.8314C75.3933,-2005 75.3933,-1991.2876 75.3933,-1980.4133"/>
</g>
<!-- Core 4 -->
<g id="node5" class="node">
<title>Core 4</title>
<g id="a_node5"><a xlink:href="/core/page/4" xlink:title="Core 4">
<polygon fill="none" stroke="#000000" points="102.3933,-1908 48.3933,-1908 48.3933,-1872 102.3933,-1872 102.3933,-1908"/>
<text text-anchor="middle" x="75.3933" y="-1886.3" font-family="Times,serif" font-size="14.00" fill="#000000">Core 4</text>
</a>
</g>
</g>
<!-- Core 3&#45;&#45;Core 4 -->
<g id="edge4" class="edge">
<title>Core 3&#45;&#45;Core 4</title>
<path fill="none" stroke="#000000" d="M75.3933,-1943.8314C75.3933,-1933 75.3933,-1919.2876 75.3933,-1908.4133"/>
</g>
<!-- Core 5 -->
<g id="node6" class="node">
<title>Core 5</title>
<g id="a_node6"><a xlink:href="/core/page/5" xlink:title="Core 5">
<polygon fill="none" stroke="#000000" points="102.3933,-1836 48.3933,-1836 48.3933,-1800 102.3933,-1800 102.3933,-1836"/>
<text text-anchor="middle" x="75.3933" y="-1814.3" font-family="Times,serif" font-size="14.00" fill="#000000">Core 5</text>
</a>
</g>
</g>
<!-- Core 4&#45;&#45;Core 5 -->
<g id="edge5" class="edge">
<title>Core 4&#45;&#45;Core 5</title>
<path fill="none" stroke="#000000" d="M75.3933,-1871.8314C75.3933,-1861 75.3933,-1847.2876 75.3933,-1836.4133"/>
</g>
<!-- Core 6 -->
<g id="node7" class="node">
<title>Core 6</title>
<g id="a_node7"><a xlink:href="/core/page/6" xlink:title="Core 6">
<polygon fill="none" stroke="#000000" points="102.3933,-1764 48.3933,-1764 48.3933,-1728 102.3933,-1728 102.3933,-1764"/>
<text text-anchor="middle" x="75.3933" y="-1742.3" font-family="Times,serif" font-size="14.00" fill="#000000">Core 6</text>
</a>
</g>
</g>
<!-- Core 5&#45;&#45;Core 6 -->
<g id="edge6" class="edge">
<title>Core 5&#45;&#45;Core 6</title>
<path fill="none" stroke="#000000" d="M75.3933,-1799.8314C75.3933,-1789 75.3933,-1775.2876 75.3933,-1764.4133"/>
</g>
<!-- Core 7 -->
<g id="node8" class="node">
<title>Core 7</title>
<g id="a_node8"><a xlink:href="/core/page/7" xlink:title="Core 7">
<polygon fill="none" stroke="#000000" points="102.3933,-1692 48.3933,-1692 48.3933,-1656 102.3933,-1656 102.3933,-1692"/>
<text text-anchor="middle" x="75.3933" y="-1670.3" font-family="Times,serif" font-size="14.00" fill="#000000">Core 7</text>
</a>
</g>
</g>
<!-- Core 6&#45;&#45;Core 7 -->
<g id="edge7" class="edge">
<title>Core 6&#45;&#45;Core 7</title>
<path fill="none" stroke="#000000" d="M75.3933,-1727.8314C75.3933,-1717 75.3933,-1703.2876 75.3933,-1692.4133"/>
</g>
<!-- Core 8 -->
<g id="node9" class="node">
<title>Core 8</title>
<g id="a_node9"><a xlink:href="/core/page/8" xlink:title="Core 8">
<polygon fill="none" stroke="#000000" points="102.3933,-1620 48.3933,-1620 48.3933,-1584 102.3933,-1584 102.3933,-1620"/>
<text text-anchor="middle" x="75.3933" y="-1598.3" font-family="Times,serif" font-size="14.00" fill="#000000">Core 8</text>
</a>
</g>
</g>
<!-- Core 7&#45;&#45;Core 8 -->
<g id="edge8" class="edge">
<title>Core 7&#45;&#45;Core 8</title>
<path fill="none" stroke="#000000" d="M75.3933,-1655.8314C75.3933,-1645 75.3933,-1631.2876 75.3933,-1620.4133"/>
</g>
<!-- Manic notes 1 -->
<g id="node22" class="node">
<title>Manic notes 1</title>
<g id="a_node22"><a xlink:href="/mania/" xlink:title="Manic notes 1">
<polygon fill="none" stroke="#000000" points="384.8933,-1620 289.8933,-1620 289.8933,-1584 384.8933,-1584 384.8933,-1620"/>
<text text-anchor="middle" x="337.3933" y="-1598.3" font-family="Times,serif" font-size="14.00" fill="#000000">Manic notes 1</text>
</a>
</g>
</g>
<!-- Core 7&#45;&#45;Manic notes 1 -->
<g id="edge21" class="edge">
<title>Core 7&#45;&#45;Manic notes 1</title>
<path fill="none" stroke="#000000" d="M102.4451,-1666.5659C146.6363,-1654.4218 234.8732,-1630.1735 289.7429,-1615.0948"/>
</g>
<!-- Core 9 -->
<g id="node10" class="node">
<title>Core 9</title>
<g id="a_node10"><a xlink:href="/core/page/9" xlink:title="Core 9">
<polygon fill="none" stroke="#000000" points="102.3933,-1548 48.3933,-1548 48.3933,-1512 102.3933,-1512 102.3933,-1548"/>
<text text-anchor="middle" x="75.3933" y="-1526.3" font-family="Times,serif" font-size="14.00" fill="#000000">Core 9</text>
</a>
</g>
</g>
<!-- Core 8&#45;&#45;Core 9 -->
<g id="edge9" class="edge">
<title>Core 8&#45;&#45;Core 9</title>
<path fill="none" stroke="#000000" d="M75.3933,-1583.8314C75.3933,-1573 75.3933,-1559.2876 75.3933,-1548.4133"/>
</g>
<!-- Core 10 -->
<g id="node11" class="node">
<title>Core 10</title>
<g id="a_node11"><a xlink:href="/core/page/10" xlink:title="Core 10">
<polygon fill="none" stroke="#000000" points="105.3933,-1476 45.3933,-1476 45.3933,-1440 105.3933,-1440 105.3933,-1476"/>
<text text-anchor="middle" x="75.3933" y="-1454.3" font-family="Times,serif" font-size="14.00" fill="#000000">Core 10</text>
</a>
</g>
</g>
<!-- Core 9&#45;&#45;Core 10 -->
<g id="edge10" class="edge">
<title>Core 9&#45;&#45;Core 10</title>
<path fill="none" stroke="#000000" d="M75.3933,-1511.8314C75.3933,-1501 75.3933,-1487.2876 75.3933,-1476.4133"/>
</g>
<!-- Core 11 -->
<g id="node12" class="node">
<title>Core 11</title>
<g id="a_node12"><a xlink:href="/core/page/11" xlink:title="Core 11">
<polygon fill="none" stroke="#000000" points="105.3933,-1404 45.3933,-1404 45.3933,-1368 105.3933,-1368 105.3933,-1404"/>
<text text-anchor="middle" x="75.3933" y="-1382.3" font-family="Times,serif" font-size="14.00" fill="#000000">Core 11</text>
</a>
</g>
</g>
<!-- Core 10&#45;&#45;Core 11 -->
<g id="edge11" class="edge">
<title>Core 10&#45;&#45;Core 11</title>
<path fill="none" stroke="#000000" d="M75.3933,-1439.8314C75.3933,-1429 75.3933,-1415.2876 75.3933,-1404.4133"/>
</g>
<!-- Jay 1 -->
<g id="node29" class="node">
<title>Jay 1</title>
<g id="a_node29"><a xlink:href="/jay/" xlink:title="Jay 1">
<polygon fill="none" stroke="#000000" points="271.3933,-1404 217.3933,-1404 217.3933,-1368 271.3933,-1368 271.3933,-1404"/>
<text text-anchor="middle" x="244.3933" y="-1382.3" font-family="Times,serif" font-size="14.00" fill="#000000">Jay 1</text>
</a>
</g>
</g>
<!-- Core 10&#45;&#45;Jay 1 -->
<g id="edge28" class="edge">
<title>Core 10&#45;&#45;Jay 1</title>
<path fill="none" stroke="#000000" d="M105.6071,-1445.1278C137.3178,-1431.618 186.7167,-1410.5723 217.2317,-1397.5718"/>
</g>
<!-- Core 12 -->
<g id="node13" class="node">
<title>Core 12</title>
<g id="a_node13"><a xlink:href="/core/page/12" xlink:title="Core 12">
<polygon fill="none" stroke="#000000" points="105.3933,-1332 45.3933,-1332 45.3933,-1296 105.3933,-1296 105.3933,-1332"/>
<text text-anchor="middle" x="75.3933" y="-1310.3" font-family="Times,serif" font-size="14.00" fill="#000000">Core 12</text>
</a>
</g>
</g>
<!-- Core 11&#45;&#45;Core 12 -->
<g id="edge12" class="edge">
<title>Core 11&#45;&#45;Core 12</title>
<path fill="none" stroke="#000000" d="M75.3933,-1367.8314C75.3933,-1357 75.3933,-1343.2876 75.3933,-1332.4133"/>
</g>
<!-- Core 13 -->
<g id="node14" class="node">
<title>Core 13</title>
<g id="a_node14"><a xlink:href="/core/page/13" xlink:title="Core 13">
<polygon fill="none" stroke="#000000" points="105.3933,-1260 45.3933,-1260 45.3933,-1224 105.3933,-1224 105.3933,-1260"/>
<text text-anchor="middle" x="75.3933" y="-1238.3" font-family="Times,serif" font-size="14.00" fill="#000000">Core 13</text>
</a>
</g>
</g>
<!-- Core 12&#45;&#45;Core 13 -->
<g id="edge13" class="edge">
<title>Core 12&#45;&#45;Core 13</title>
<path fill="none" stroke="#000000" d="M75.3933,-1295.8314C75.3933,-1285 75.3933,-1271.2876 75.3933,-1260.4133"/>
</g>
<!-- Core 14 -->
<g id="node15" class="node">
<title>Core 14</title>
<g id="a_node15"><a xlink:href="/core/page/14" xlink:title="Core 14">
<polygon fill="none" stroke="#000000" points="105.3933,-756 45.3933,-756 45.3933,-720 105.3933,-720 105.3933,-756"/>
<text text-anchor="middle" x="75.3933" y="-734.3" font-family="Times,serif" font-size="14.00" fill="#000000">Core 14</text>
</a>
</g>
</g>
<!-- Core 13&#45;&#45;Core 14 -->
<g id="edge14" class="edge">
<title>Core 13&#45;&#45;Core 14</title>
<path fill="none" stroke="#000000" d="M75.3933,-1223.8146C75.3933,-1196.4983 75.3933,-1143.25 75.3933,-1098 75.3933,-1098 75.3933,-1098 75.3933,-882 75.3933,-836.75 75.3933,-783.5017 75.3933,-756.1854"/>
</g>
<!-- From within 1 -->
<g id="node35" class="node">
<title>From within 1</title>
<g id="a_node35"><a xlink:href="/from-within/" xlink:title="From within 1">
<polygon fill="none" stroke="#000000" points="198.8933,-1188 103.8933,-1188 103.8933,-1152 198.8933,-1152 198.8933,-1188"/>
<text text-anchor="middle" x="151.3933" y="-1166.3" font-family="Times,serif" font-size="14.00" fill="#000000">From within 1</text>
</a>
</g>
</g>
<!-- Core 13&#45;&#45;From within 1 -->
<g id="edge34" class="edge">
<title>Core 13&#45;&#45;From within 1</title>
<path fill="none" stroke="#000000" d="M94.5713,-1223.8314C106.0923,-1212.9167 120.7015,-1199.0764 132.2214,-1188.1628"/>
</g>
<!-- Core 15 -->
<g id="node16" class="node">
<title>Core 15</title>
<g id="a_node16"><a xlink:href="/core/page/15" xlink:title="Core 15">
<polygon fill="none" stroke="#000000" points="105.3933,-684 45.3933,-684 45.3933,-648 105.3933,-648 105.3933,-684"/>
<text text-anchor="middle" x="75.3933" y="-662.3" font-family="Times,serif" font-size="14.00" fill="#000000">Core 15</text>
</a>
</g>
</g>
<!-- Core 14&#45;&#45;Core 15 -->
<g id="edge15" class="edge">
<title>Core 14&#45;&#45;Core 15</title>
<path fill="none" stroke="#000000" d="M75.3933,-719.8314C75.3933,-709 75.3933,-695.2876 75.3933,-684.4133"/>
</g>
<!-- Core 16 -->
<g id="node17" class="node">
<title>Core 16</title>
<g id="a_node17"><a xlink:href="/core/page/16" xlink:title="Core 16">
<polygon fill="none" stroke="#000000" points="105.3933,-612 45.3933,-612 45.3933,-576 105.3933,-576 105.3933,-612"/>
<text text-anchor="middle" x="75.3933" y="-590.3" font-family="Times,serif" font-size="14.00" fill="#000000">Core 16</text>
</a>
</g>
</g>
<!-- Core 15&#45;&#45;Core 16 -->
<g id="edge16" class="edge">
<title>Core 15&#45;&#45;Core 16</title>
<path fill="none" stroke="#000000" d="M75.3933,-647.8314C75.3933,-637 75.3933,-623.2876 75.3933,-612.4133"/>
</g>
<!-- Koan 1 -->
<g id="node41" class="node">
<title>Koan 1</title>
<g id="a_node41"><a xlink:href="/koan/" xlink:title="Koan 1">
<polygon fill="none" stroke="#000000" points="318.3933,-612 262.3933,-612 262.3933,-576 318.3933,-576 318.3933,-612"/>
<text text-anchor="middle" x="290.3933" y="-590.3" font-family="Times,serif" font-size="14.00" fill="#000000">Koan 1</text>
</a>
</g>
</g>
<!-- Core 15&#45;&#45;Koan 1 -->
<g id="edge41" class="edge">
<title>Core 15&#45;&#45;Koan 1</title>
<path fill="none" stroke="#000000" d="M105.7416,-655.8369C147.4122,-641.8821 221.7725,-616.98 262.2513,-603.4243"/>
</g>
<!-- Core 17 -->
<g id="node18" class="node">
<title>Core 17</title>
<g id="a_node18"><a xlink:href="/core/page/17" xlink:title="Core 17">
<polygon fill="none" stroke="#000000" points="105.3933,-540 45.3933,-540 45.3933,-504 105.3933,-504 105.3933,-540"/>
<text text-anchor="middle" x="75.3933" y="-518.3" font-family="Times,serif" font-size="14.00" fill="#000000">Core 17</text>
</a>
</g>
</g>
<!-- Core 16&#45;&#45;Core 17 -->
<g id="edge17" class="edge">
<title>Core 16&#45;&#45;Core 17</title>
<path fill="none" stroke="#000000" d="M75.3933,-575.8314C75.3933,-565 75.3933,-551.2876 75.3933,-540.4133"/>
</g>
<!-- Fursoñas 1 -->
<g id="node47" class="node">
<title>Fursoñas 1</title>
<g id="a_node47"><a xlink:href="/fursona/" xlink:title="Fursoñas 1">
<polygon fill="none" stroke="#000000" points="244.3933,-540 168.3933,-540 168.3933,-504 244.3933,-504 244.3933,-540"/>
<text text-anchor="middle" x="206.3933" y="-518.3" font-family="Times,serif" font-size="14.00" fill="#000000">Fursoñas 1</text>
</a>
</g>
</g>
<!-- Core 16&#45;&#45;Fursoñas 1 -->
<g id="edge47" class="edge">
<title>Core 16&#45;&#45;Fursoñas 1</title>
<path fill="none" stroke="#000000" d="M105.4474,-577.4817C125.6917,-566.3551 152.4006,-551.6754 173.2598,-540.2108"/>
</g>
<!-- Core 18 -->
<g id="node19" class="node">
<title>Core 18</title>
<g id="a_node19"><a xlink:href="/core/page/18" xlink:title="Core 18">
<polygon fill="none" stroke="#000000" points="105.3933,-468 45.3933,-468 45.3933,-432 105.3933,-432 105.3933,-468"/>
<text text-anchor="middle" x="75.3933" y="-446.3" font-family="Times,serif" font-size="14.00" fill="#000000">Core 18</text>
</a>
</g>
</g>
<!-- Core 17&#45;&#45;Core 18 -->
<g id="edge18" class="edge">
<title>Core 17&#45;&#45;Core 18</title>
<path fill="none" stroke="#000000" d="M75.3933,-503.8314C75.3933,-493 75.3933,-479.2876 75.3933,-468.4133"/>
</g>
<!-- Core 19 -->
<g id="node20" class="node">
<title>Core 19</title>
<g id="a_node20"><a xlink:href="/core/page/19" xlink:title="Core 19">
<polygon fill="none" stroke="#000000" points="105.3933,-396 45.3933,-396 45.3933,-360 105.3933,-360 105.3933,-396"/>
<text text-anchor="middle" x="75.3933" y="-374.3" font-family="Times,serif" font-size="14.00" fill="#000000">Core 19</text>
</a>
</g>
</g>
<!-- Core 18&#45;&#45;Core 19 -->
<g id="edge19" class="edge">
<title>Core 18&#45;&#45;Core 19</title>
<path fill="none" stroke="#000000" d="M75.3933,-431.8314C75.3933,-421 75.3933,-407.2876 75.3933,-396.4133"/>
</g>
<!-- To be continued... -->
<g id="node21" class="node">
<title>To be continued...</title>
<ellipse fill="none" stroke="#000000" cx="75.3933" cy="-306" rx="75.2868" ry="18"/>
<text text-anchor="middle" x="75.3933" y="-302.3" font-family="Times,serif" font-size="14.00" fill="#000000">To be continued...</text>
</g>
<!-- Core 19&#45;&#45;To be continued... -->
<g id="edge20" class="edge">
<title>Core 19&#45;&#45;To be continued...</title>
<path fill="none" stroke="#000000" d="M75.3933,-359.8314C75.3933,-349 75.3933,-335.2876 75.3933,-324.4133"/>
</g>
<!-- Manic notes 2 -->
<g id="node23" class="node">
<title>Manic notes 2</title>
<g id="a_node23"><a xlink:href="/mania/page/2" xlink:title="Manic notes 2">
<polygon fill="none" stroke="#000000" points="384.8933,-1548 289.8933,-1548 289.8933,-1512 384.8933,-1512 384.8933,-1548"/>
<text text-anchor="middle" x="337.3933" y="-1526.3" font-family="Times,serif" font-size="14.00" fill="#000000">Manic notes 2</text>
</a>
</g>
</g>
<!-- Manic notes 1&#45;&#45;Manic notes 2 -->
<g id="edge22" class="edge">
<title>Manic notes 1&#45;&#45;Manic notes 2</title>
<path fill="none" stroke="#000000" d="M337.3933,-1583.8314C337.3933,-1573 337.3933,-1559.2876 337.3933,-1548.4133"/>
</g>
<!-- Manic notes 3 -->
<g id="node24" class="node">
<title>Manic notes 3</title>
<g id="a_node24"><a xlink:href="/mania/page/3" xlink:title="Manic notes 3">
<polygon fill="none" stroke="#000000" points="384.8933,-1476 289.8933,-1476 289.8933,-1440 384.8933,-1440 384.8933,-1476"/>
<text text-anchor="middle" x="337.3933" y="-1454.3" font-family="Times,serif" font-size="14.00" fill="#000000">Manic notes 3</text>
</a>
</g>
</g>
<!-- Manic notes 2&#45;&#45;Manic notes 3 -->
<g id="edge23" class="edge">
<title>Manic notes 2&#45;&#45;Manic notes 3</title>
<path fill="none" stroke="#000000" d="M337.3933,-1511.8314C337.3933,-1501 337.3933,-1487.2876 337.3933,-1476.4133"/>
</g>
<!-- Manic notes 4 -->
<g id="node25" class="node">
<title>Manic notes 4</title>
<g id="a_node25"><a xlink:href="/mania/page/4" xlink:title="Manic notes 4">
<polygon fill="none" stroke="#000000" points="384.8933,-1404 289.8933,-1404 289.8933,-1368 384.8933,-1368 384.8933,-1404"/>
<text text-anchor="middle" x="337.3933" y="-1382.3" font-family="Times,serif" font-size="14.00" fill="#000000">Manic notes 4</text>
</a>
</g>
</g>
<!-- Manic notes 3&#45;&#45;Manic notes 4 -->
<g id="edge24" class="edge">
<title>Manic notes 3&#45;&#45;Manic notes 4</title>
<path fill="none" stroke="#000000" d="M337.3933,-1439.8314C337.3933,-1429 337.3933,-1415.2876 337.3933,-1404.4133"/>
</g>
<!-- Manic notes 5 -->
<g id="node26" class="node">
<title>Manic notes 5</title>
<g id="a_node26"><a xlink:href="/mania/page/5" xlink:title="Manic notes 5">
<polygon fill="none" stroke="#000000" points="384.8933,-1332 289.8933,-1332 289.8933,-1296 384.8933,-1296 384.8933,-1332"/>
<text text-anchor="middle" x="337.3933" y="-1310.3" font-family="Times,serif" font-size="14.00" fill="#000000">Manic notes 5</text>
</a>
</g>
</g>
<!-- Manic notes 4&#45;&#45;Manic notes 5 -->
<g id="edge25" class="edge">
<title>Manic notes 4&#45;&#45;Manic notes 5</title>
<path fill="none" stroke="#000000" d="M337.3933,-1367.8314C337.3933,-1357 337.3933,-1343.2876 337.3933,-1332.4133"/>
</g>
<!-- Manic notes 6 -->
<g id="node27" class="node">
<title>Manic notes 6</title>
<g id="a_node27"><a xlink:href="/mania/page/6" xlink:title="Manic notes 6">
<polygon fill="none" stroke="#000000" points="384.8933,-1260 289.8933,-1260 289.8933,-1224 384.8933,-1224 384.8933,-1260"/>
<text text-anchor="middle" x="337.3933" y="-1238.3" font-family="Times,serif" font-size="14.00" fill="#000000">Manic notes 6</text>
</a>
</g>
</g>
<!-- Manic notes 5&#45;&#45;Manic notes 6 -->
<g id="edge26" class="edge">
<title>Manic notes 5&#45;&#45;Manic notes 6</title>
<path fill="none" stroke="#000000" d="M337.3933,-1295.8314C337.3933,-1285 337.3933,-1271.2876 337.3933,-1260.4133"/>
</g>
<!-- Manic notes 7 -->
<g id="node28" class="node">
<title>Manic notes 7</title>
<g id="a_node28"><a xlink:href="/mania/page/7" xlink:title="Manic notes 7">
<polygon fill="none" stroke="#000000" points="384.8933,-1188 289.8933,-1188 289.8933,-1152 384.8933,-1152 384.8933,-1188"/>
<text text-anchor="middle" x="337.3933" y="-1166.3" font-family="Times,serif" font-size="14.00" fill="#000000">Manic notes 7</text>
</a>
</g>
</g>
<!-- Manic notes 6&#45;&#45;Manic notes 7 -->
<g id="edge27" class="edge">
<title>Manic notes 6&#45;&#45;Manic notes 7</title>
<path fill="none" stroke="#000000" d="M337.3933,-1223.8314C337.3933,-1213 337.3933,-1199.2876 337.3933,-1188.4133"/>
</g>
<!-- Jay 2 -->
<g id="node30" class="node">
<title>Jay 2</title>
<g id="a_node30"><a xlink:href="/jay/page/2" xlink:title="Jay 2">
<polygon fill="none" stroke="#000000" points="271.3933,-1332 217.3933,-1332 217.3933,-1296 271.3933,-1296 271.3933,-1332"/>
<text text-anchor="middle" x="244.3933" y="-1310.3" font-family="Times,serif" font-size="14.00" fill="#000000">Jay 2</text>
</a>
</g>
</g>
<!-- Jay 1&#45;&#45;Jay 2 -->
<g id="edge29" class="edge">
<title>Jay 1&#45;&#45;Jay 2</title>
<path fill="none" stroke="#000000" d="M244.3933,-1367.8314C244.3933,-1357 244.3933,-1343.2876 244.3933,-1332.4133"/>
</g>
<!-- Jay 3 -->
<g id="node31" class="node">
<title>Jay 3</title>
<g id="a_node31"><a xlink:href="/jay/page/3" xlink:title="Jay 3">
<polygon fill="none" stroke="#000000" points="271.3933,-1260 217.3933,-1260 217.3933,-1224 271.3933,-1224 271.3933,-1260"/>
<text text-anchor="middle" x="244.3933" y="-1238.3" font-family="Times,serif" font-size="14.00" fill="#000000">Jay 3</text>
</a>
</g>
</g>
<!-- Jay 2&#45;&#45;Jay 3 -->
<g id="edge30" class="edge">
<title>Jay 2&#45;&#45;Jay 3</title>
<path fill="none" stroke="#000000" d="M244.3933,-1295.8314C244.3933,-1285 244.3933,-1271.2876 244.3933,-1260.4133"/>
</g>
<!-- Jay 4 -->
<g id="node32" class="node">
<title>Jay 4</title>
<g id="a_node32"><a xlink:href="/jay/page/4" xlink:title="Jay 4">
<polygon fill="none" stroke="#000000" points="271.3933,-1188 217.3933,-1188 217.3933,-1152 271.3933,-1152 271.3933,-1188"/>
<text text-anchor="middle" x="244.3933" y="-1166.3" font-family="Times,serif" font-size="14.00" fill="#000000">Jay 4</text>
</a>
</g>
</g>
<!-- Jay 3&#45;&#45;Jay 4 -->
<g id="edge31" class="edge">
<title>Jay 3&#45;&#45;Jay 4</title>
<path fill="none" stroke="#000000" d="M244.3933,-1223.8314C244.3933,-1213 244.3933,-1199.2876 244.3933,-1188.4133"/>
</g>
<!-- Jay 5 -->
<g id="node33" class="node">
<title>Jay 5</title>
<g id="a_node33"><a xlink:href="/jay/page/5" xlink:title="Jay 5">
<polygon fill="none" stroke="#000000" points="271.3933,-1116 217.3933,-1116 217.3933,-1080 271.3933,-1080 271.3933,-1116"/>
<text text-anchor="middle" x="244.3933" y="-1094.3" font-family="Times,serif" font-size="14.00" fill="#000000">Jay 5</text>
</a>
</g>
</g>
<!-- Jay 4&#45;&#45;Jay 5 -->
<g id="edge32" class="edge">
<title>Jay 4&#45;&#45;Jay 5</title>
<path fill="none" stroke="#000000" d="M244.3933,-1151.8314C244.3933,-1141 244.3933,-1127.2876 244.3933,-1116.4133"/>
</g>
<!-- Jay 6 -->
<g id="node34" class="node">
<title>Jay 6</title>
<g id="a_node34"><a xlink:href="/jay/page/6" xlink:title="Jay 6">
<polygon fill="none" stroke="#000000" points="271.3933,-1044 217.3933,-1044 217.3933,-1008 271.3933,-1008 271.3933,-1044"/>
<text text-anchor="middle" x="244.3933" y="-1022.3" font-family="Times,serif" font-size="14.00" fill="#000000">Jay 6</text>
</a>
</g>
</g>
<!-- Jay 5&#45;&#45;Jay 6 -->
<g id="edge33" class="edge">
<title>Jay 5&#45;&#45;Jay 6</title>
<path fill="none" stroke="#000000" d="M244.3933,-1079.8314C244.3933,-1069 244.3933,-1055.2876 244.3933,-1044.4133"/>
</g>
<!-- From within 2 -->
<g id="node36" class="node">
<title>From within 2</title>
<g id="a_node36"><a xlink:href="/from-within/2" xlink:title="From within 2">
<polygon fill="none" stroke="#000000" points="198.8933,-1116 103.8933,-1116 103.8933,-1080 198.8933,-1080 198.8933,-1116"/>
<text text-anchor="middle" x="151.3933" y="-1094.3" font-family="Times,serif" font-size="14.00" fill="#000000">From within 2</text>
</a>
</g>
</g>
<!-- From within 1&#45;&#45;From within 2 -->
<g id="edge35" class="edge">
<title>From within 1&#45;&#45;From within 2</title>
<path fill="none" stroke="#000000" d="M151.3933,-1151.8314C151.3933,-1141 151.3933,-1127.2876 151.3933,-1116.4133"/>
</g>
<!-- From within 3 -->
<g id="node37" class="node">
<title>From within 3</title>
<g id="a_node37"><a xlink:href="/from-within/3" xlink:title="From within 3">
<polygon fill="none" stroke="#000000" points="198.8933,-1044 103.8933,-1044 103.8933,-1008 198.8933,-1008 198.8933,-1044"/>
<text text-anchor="middle" x="151.3933" y="-1022.3" font-family="Times,serif" font-size="14.00" fill="#000000">From within 3</text>
</a>
</g>
</g>
<!-- From within 2&#45;&#45;From within 3 -->
<g id="edge36" class="edge">
<title>From within 2&#45;&#45;From within 3</title>
<path fill="none" stroke="#000000" d="M151.3933,-1079.8314C151.3933,-1069 151.3933,-1055.2876 151.3933,-1044.4133"/>
</g>
<!-- From within 4 -->
<g id="node38" class="node">
<title>From within 4</title>
<g id="a_node38"><a xlink:href="/from-within/4" xlink:title="From within 4">
<polygon fill="none" stroke="#000000" points="198.8933,-972 103.8933,-972 103.8933,-936 198.8933,-936 198.8933,-972"/>
<text text-anchor="middle" x="151.3933" y="-950.3" font-family="Times,serif" font-size="14.00" fill="#000000">From within 4</text>
</a>
</g>
</g>
<!-- From within 3&#45;&#45;From within 4 -->
<g id="edge37" class="edge">
<title>From within 3&#45;&#45;From within 4</title>
<path fill="none" stroke="#000000" d="M151.3933,-1007.8314C151.3933,-997 151.3933,-983.2876 151.3933,-972.4133"/>
</g>
<!-- From within 5 -->
<g id="node39" class="node">
<title>From within 5</title>
<g id="a_node39"><a xlink:href="/from-within/5" xlink:title="From within 5">
<polygon fill="none" stroke="#000000" points="198.8933,-900 103.8933,-900 103.8933,-864 198.8933,-864 198.8933,-900"/>
<text text-anchor="middle" x="151.3933" y="-878.3" font-family="Times,serif" font-size="14.00" fill="#000000">From within 5</text>
</a>
</g>
</g>
<!-- From within 4&#45;&#45;From within 5 -->
<g id="edge38" class="edge">
<title>From within 4&#45;&#45;From within 5</title>
<path fill="none" stroke="#000000" d="M151.3933,-935.8314C151.3933,-925 151.3933,-911.2876 151.3933,-900.4133"/>
</g>
<!-- From within 6 -->
<g id="node40" class="node">
<title>From within 6</title>
<g id="a_node40"><a xlink:href="/from-within/i-guess.." xlink:title="From within 6">
<polygon fill="none" stroke="#000000" points="198.8933,-828 103.8933,-828 103.8933,-792 198.8933,-792 198.8933,-828"/>
<text text-anchor="middle" x="151.3933" y="-806.3" font-family="Times,serif" font-size="14.00" fill="#000000">From within 6</text>
</a>
</g>
</g>
<!-- From within 5&#45;&#45;From within 6 -->
<g id="edge39" class="edge">
<title>From within 5&#45;&#45;From within 6</title>
<path fill="none" stroke="#000000" d="M151.3933,-863.8314C151.3933,-853 151.3933,-839.2876 151.3933,-828.4133"/>
</g>
<!-- From within 6&#45;&#45;Core 14 -->
<g id="edge40" class="edge">
<title>From within 6&#45;&#45;Core 14</title>
<path fill="none" stroke="#000000" d="M132.2153,-791.8314C120.6943,-780.9167 106.0851,-767.0764 94.5652,-756.1628"/>
</g>
<!-- Koan 2 -->
<g id="node42" class="node">
<title>Koan 2</title>
<g id="a_node42"><a xlink:href="/koan/page/2" xlink:title="Koan 2">
<polygon fill="none" stroke="#000000" points="318.3933,-540 262.3933,-540 262.3933,-504 318.3933,-504 318.3933,-540"/>
<text text-anchor="middle" x="290.3933" y="-518.3" font-family="Times,serif" font-size="14.00" fill="#000000">Koan 2</text>
</a>
</g>
</g>
<!-- Koan 1&#45;&#45;Koan 2 -->
<g id="edge42" class="edge">
<title>Koan 1&#45;&#45;Koan 2</title>
<path fill="none" stroke="#000000" d="M290.3933,-575.8314C290.3933,-565 290.3933,-551.2876 290.3933,-540.4133"/>
</g>
<!-- Koan 3 -->
<g id="node43" class="node">
<title>Koan 3</title>
<g id="a_node43"><a xlink:href="/koan/page/3" xlink:title="Koan 3">
<polygon fill="none" stroke="#000000" points="318.3933,-468 262.3933,-468 262.3933,-432 318.3933,-432 318.3933,-468"/>
<text text-anchor="middle" x="290.3933" y="-446.3" font-family="Times,serif" font-size="14.00" fill="#000000">Koan 3</text>
</a>
</g>
</g>
<!-- Koan 2&#45;&#45;Koan 3 -->
<g id="edge43" class="edge">
<title>Koan 2&#45;&#45;Koan 3</title>
<path fill="none" stroke="#000000" d="M290.3933,-503.8314C290.3933,-493 290.3933,-479.2876 290.3933,-468.4133"/>
</g>
<!-- Koan 4 -->
<g id="node44" class="node">
<title>Koan 4</title>
<g id="a_node44"><a xlink:href="/koan/page/4" xlink:title="Koan 4">
<polygon fill="none" stroke="#000000" points="318.3933,-396 262.3933,-396 262.3933,-360 318.3933,-360 318.3933,-396"/>
<text text-anchor="middle" x="290.3933" y="-374.3" font-family="Times,serif" font-size="14.00" fill="#000000">Koan 4</text>
</a>
</g>
</g>
<!-- Koan 3&#45;&#45;Koan 4 -->
<g id="edge44" class="edge">
<title>Koan 3&#45;&#45;Koan 4</title>
<path fill="none" stroke="#000000" d="M290.3933,-431.8314C290.3933,-421 290.3933,-407.2876 290.3933,-396.4133"/>
</g>
<!-- Koan 5 -->
<g id="node45" class="node">
<title>Koan 5</title>
<g id="a_node45"><a xlink:href="/koan/page/5" xlink:title="Koan 5">
<polygon fill="none" stroke="#000000" points="318.3933,-324 262.3933,-324 262.3933,-288 318.3933,-288 318.3933,-324"/>
<text text-anchor="middle" x="290.3933" y="-302.3" font-family="Times,serif" font-size="14.00" fill="#000000">Koan 5</text>
</a>
</g>
</g>
<!-- Koan 4&#45;&#45;Koan 5 -->
<g id="edge45" class="edge">
<title>Koan 4&#45;&#45;Koan 5</title>
<path fill="none" stroke="#000000" d="M290.3933,-359.8314C290.3933,-349 290.3933,-335.2876 290.3933,-324.4133"/>
</g>
<!-- Koan 6 -->
<g id="node46" class="node">
<title>Koan 6</title>
<g id="a_node46"><a xlink:href="/koan/page/6" xlink:title="Koan 6">
<polygon fill="none" stroke="#000000" points="318.3933,-252 262.3933,-252 262.3933,-216 318.3933,-216 318.3933,-252"/>
<text text-anchor="middle" x="290.3933" y="-230.3" font-family="Times,serif" font-size="14.00" fill="#000000">Koan 6</text>
</a>
</g>
</g>
<!-- Koan 5&#45;&#45;Koan 6 -->
<g id="edge46" class="edge">
<title>Koan 5&#45;&#45;Koan 6</title>
<path fill="none" stroke="#000000" d="M290.3933,-287.8314C290.3933,-277 290.3933,-263.2876 290.3933,-252.4133"/>
</g>
<!-- Fursoñas 2 -->
<g id="node48" class="node">
<title>Fursoñas 2</title>
<g id="a_node48"><a xlink:href="/fursona/page/2" xlink:title="Fursoñas 2">
<polygon fill="none" stroke="#000000" points="244.3933,-468 168.3933,-468 168.3933,-432 244.3933,-432 244.3933,-468"/>
<text text-anchor="middle" x="206.3933" y="-446.3" font-family="Times,serif" font-size="14.00" fill="#000000">Fursoñas 2</text>
</a>
</g>
</g>
<!-- Fursoñas 1&#45;&#45;Fursoñas 2 -->
<g id="edge48" class="edge">
<title>Fursoñas 1&#45;&#45;Fursoñas 2</title>
<path fill="none" stroke="#000000" d="M206.3933,-503.8314C206.3933,-493 206.3933,-479.2876 206.3933,-468.4133"/>
</g>
<!-- Fursoñas 3 -->
<g id="node49" class="node">
<title>Fursoñas 3</title>
<g id="a_node49"><a xlink:href="/fursona/page/3" xlink:title="Fursoñas 3">
<polygon fill="none" stroke="#000000" points="244.3933,-396 168.3933,-396 168.3933,-360 244.3933,-360 244.3933,-396"/>
<text text-anchor="middle" x="206.3933" y="-374.3" font-family="Times,serif" font-size="14.00" fill="#000000">Fursoñas 3</text>
</a>
</g>
</g>
<!-- Fursoñas 2&#45;&#45;Fursoñas 3 -->
<g id="edge49" class="edge">
<title>Fursoñas 2&#45;&#45;Fursoñas 3</title>
<path fill="none" stroke="#000000" d="M206.3933,-431.8314C206.3933,-421 206.3933,-407.2876 206.3933,-396.4133"/>
</g>
<!-- Fursoñas 4 -->
<g id="node50" class="node">
<title>Fursoñas 4</title>
<g id="a_node50"><a xlink:href="/fursona/page/4" xlink:title="Fursoñas 4">
<polygon fill="none" stroke="#000000" points="244.3933,-324 168.3933,-324 168.3933,-288 244.3933,-288 244.3933,-324"/>
<text text-anchor="middle" x="206.3933" y="-302.3" font-family="Times,serif" font-size="14.00" fill="#000000">Fursoñas 4</text>
</a>
</g>
</g>
<!-- Fursoñas 3&#45;&#45;Fursoñas 4 -->
<g id="edge50" class="edge">
<title>Fursoñas 3&#45;&#45;Fursoñas 4</title>
<path fill="none" stroke="#000000" d="M206.3933,-359.8314C206.3933,-349 206.3933,-335.2876 206.3933,-324.4133"/>
</g>
<!-- Fursoñas 5 -->
<g id="node51" class="node">
<title>Fursoñas 5</title>
<g id="a_node51"><a xlink:href="/fursona/page/5" xlink:title="Fursoñas 5">
<polygon fill="none" stroke="#000000" points="244.3933,-252 168.3933,-252 168.3933,-216 244.3933,-216 244.3933,-252"/>
<text text-anchor="middle" x="206.3933" y="-230.3" font-family="Times,serif" font-size="14.00" fill="#000000">Fursoñas 5</text>
</a>
</g>
</g>
<!-- Fursoñas 4&#45;&#45;Fursoñas 5 -->
<g id="edge51" class="edge">
<title>Fursoñas 4&#45;&#45;Fursoñas 5</title>
<path fill="none" stroke="#000000" d="M206.3933,-287.8314C206.3933,-277 206.3933,-263.2876 206.3933,-252.4133"/>
</g>
<!-- Fursoñas 6 -->
<g id="node52" class="node">
<title>Fursoñas 6</title>
<g id="a_node52"><a xlink:href="/fursona/page/6" xlink:title="Fursoñas 6">
<polygon fill="none" stroke="#000000" points="244.3933,-180 168.3933,-180 168.3933,-144 244.3933,-144 244.3933,-180"/>
<text text-anchor="middle" x="206.3933" y="-158.3" font-family="Times,serif" font-size="14.00" fill="#000000">Fursoñas 6</text>
</a>
</g>
</g>
<!-- Fursoñas 5&#45;&#45;Fursoñas 6 -->
<g id="edge52" class="edge">
<title>Fursoñas 5&#45;&#45;Fursoñas 6</title>
<path fill="none" stroke="#000000" d="M206.3933,-215.8314C206.3933,-205 206.3933,-191.2876 206.3933,-180.4133"/>
</g>
<!-- Fursoñas 7 -->
<g id="node53" class="node">
<title>Fursoñas 7</title>
<g id="a_node53"><a xlink:href="/fursona/page/7" xlink:title="Fursoñas 7">
<polygon fill="none" stroke="#000000" points="244.3933,-108 168.3933,-108 168.3933,-72 244.3933,-72 244.3933,-108"/>
<text text-anchor="middle" x="206.3933" y="-86.3" font-family="Times,serif" font-size="14.00" fill="#000000">Fursoñas 7</text>
</a>
</g>
</g>
<!-- Fursoñas 6&#45;&#45;Fursoñas 7 -->
<g id="edge53" class="edge">
<title>Fursoñas 6&#45;&#45;Fursoñas 7</title>
<path fill="none" stroke="#000000" d="M206.3933,-143.8314C206.3933,-133 206.3933,-119.2876 206.3933,-108.4133"/>
</g>
<!-- Fursoñas 8 -->
<g id="node54" class="node">
<title>Fursoñas 8</title>
<g id="a_node54"><a xlink:href="/fursona/page/8" xlink:title="Fursoñas 8">
<polygon fill="none" stroke="#000000" points="244.3933,-36 168.3933,-36 168.3933,0 244.3933,0 244.3933,-36"/>
<text text-anchor="middle" x="206.3933" y="-14.3" font-family="Times,serif" font-size="14.00" fill="#000000">Fursoñas 8</text>
</a>
</g>
</g>
<!-- Fursoñas 7&#45;&#45;Fursoñas 8 -->
<g id="edge54" class="edge">
<title>Fursoñas 7&#45;&#45;Fursoñas 8</title>
<path fill="none" stroke="#000000" d="M206.3933,-71.8314C206.3933,-61 206.3933,-47.2876 206.3933,-36.4133"/>
</g>
</g>
</svg>
