<?xml version="1.0" encoding="UTF-8" standalone="no"?>
<!DOCTYPE svg PUBLIC "-//W3C//DTD SVG 1.1//EN"
 "http://www.w3.org/Graphics/SVG/1.1/DTD/svg11.dtd">
<!-- Generated by graphviz version 2.40.1 (20161225.0304)
 -->
<!-- Title: Map Pages: 1 -->
<svg width="348pt" height="2515pt"
 viewBox="0.00 0.00 347.50 2515.00" xmlns="http://www.w3.org/2000/svg" xmlns:xlink="http://www.w3.org/1999/xlink">
<g id="graph0" class="graph" transform="scale(1 1) rotate(0) translate(4 2511)">
<title>Map</title>
<polygon fill="#ffffff" stroke="transparent" points="-4,4 -4,-2511 343.5,-2511 343.5,4 -4,4"/>
<text text-anchor="middle" x="169.75" y="-7.8" font-family="Times,serif" font-size="14.00" fill="#000000">Map</text>
<!-- Koan 1 -->
<g id="node1" class="node">
<title>Koan 1</title>
<g id="a_node1"><a xlink:href="/koan/" xlink:title="Koan 1">
<polygon fill="none" stroke="#000000" points="83.5,-923 27.5,-923 27.5,-887 83.5,-887 83.5,-923"/>
<text text-anchor="middle" x="55.5" y="-901.3" font-family="Times,serif" font-size="14.00" fill="#000000">Koan 1</text>
</a>
</g>
</g>
<!-- Koan 2 -->
<g id="node2" class="node">
<title>Koan 2</title>
<g id="a_node2"><a xlink:href="/koan/page/2" xlink:title="Koan 2">
<polygon fill="none" stroke="#000000" points="83.5,-851 27.5,-851 27.5,-815 83.5,-815 83.5,-851"/>
<text text-anchor="middle" x="55.5" y="-829.3" font-family="Times,serif" font-size="14.00" fill="#000000">Koan 2</text>
</a>
</g>
</g>
<!-- Koan 1&#45;&#45;Koan 2 -->
<g id="edge44" class="edge">
<title>Koan 1&#45;&#45;Koan 2</title>
<path fill="none" stroke="#000000" d="M55.5,-886.8314C55.5,-876 55.5,-862.2876 55.5,-851.4133"/>
</g>
<!-- Koan 3 -->
<g id="node3" class="node">
<title>Koan 3</title>
<g id="a_node3"><a xlink:href="/koan/page/3" xlink:title="Koan 3">
<polygon fill="none" stroke="#000000" points="83.5,-779 27.5,-779 27.5,-743 83.5,-743 83.5,-779"/>
<text text-anchor="middle" x="55.5" y="-757.3" font-family="Times,serif" font-size="14.00" fill="#000000">Koan 3</text>
</a>
</g>
</g>
<!-- Koan 2&#45;&#45;Koan 3 -->
<g id="edge45" class="edge">
<title>Koan 2&#45;&#45;Koan 3</title>
<path fill="none" stroke="#000000" d="M55.5,-814.8314C55.5,-804 55.5,-790.2876 55.5,-779.4133"/>
</g>
<!-- Koan 4 -->
<g id="node4" class="node">
<title>Koan 4</title>
<g id="a_node4"><a xlink:href="/koan/page/4" xlink:title="Koan 4">
<polygon fill="none" stroke="#000000" points="83.5,-707 27.5,-707 27.5,-671 83.5,-671 83.5,-707"/>
<text text-anchor="middle" x="55.5" y="-685.3" font-family="Times,serif" font-size="14.00" fill="#000000">Koan 4</text>
</a>
</g>
</g>
<!-- Koan 3&#45;&#45;Koan 4 -->
<g id="edge46" class="edge">
<title>Koan 3&#45;&#45;Koan 4</title>
<path fill="none" stroke="#000000" d="M55.5,-742.8314C55.5,-732 55.5,-718.2876 55.5,-707.4133"/>
</g>
<!-- Koan 5 -->
<g id="node5" class="node">
<title>Koan 5</title>
<g id="a_node5"><a xlink:href="/koan/page/5" xlink:title="Koan 5">
<polygon fill="none" stroke="#000000" points="83.5,-635 27.5,-635 27.5,-599 83.5,-599 83.5,-635"/>
<text text-anchor="middle" x="55.5" y="-613.3" font-family="Times,serif" font-size="14.00" fill="#000000">Koan 5</text>
</a>
</g>
</g>
<!-- Koan 4&#45;&#45;Koan 5 -->
<g id="edge47" class="edge">
<title>Koan 4&#45;&#45;Koan 5</title>
<path fill="none" stroke="#000000" d="M55.5,-670.8314C55.5,-660 55.5,-646.2876 55.5,-635.4133"/>
</g>
<!-- Koan 6 -->
<g id="node6" class="node">
<title>Koan 6</title>
<g id="a_node6"><a xlink:href="/koan/page/6" xlink:title="Koan 6">
<polygon fill="none" stroke="#000000" points="83.5,-563 27.5,-563 27.5,-527 83.5,-527 83.5,-563"/>
<text text-anchor="middle" x="55.5" y="-541.3" font-family="Times,serif" font-size="14.00" fill="#000000">Koan 6</text>
</a>
</g>
</g>
<!-- Koan 5&#45;&#45;Koan 6 -->
<g id="edge48" class="edge">
<title>Koan 5&#45;&#45;Koan 6</title>
<path fill="none" stroke="#000000" d="M55.5,-598.8314C55.5,-588 55.5,-574.2876 55.5,-563.4133"/>
</g>
<!-- Manic notes 1 -->
<g id="node7" class="node">
<title>Manic notes 1</title>
<g id="a_node7"><a xlink:href="/mania/" xlink:title="Manic notes 1">
<polygon fill="none" stroke="#000000" points="95,-1931 0,-1931 0,-1895 95,-1895 95,-1931"/>
<text text-anchor="middle" x="47.5" y="-1909.3" font-family="Times,serif" font-size="14.00" fill="#000000">Manic notes 1</text>
</a>
</g>
</g>
<!-- Manic notes 2 -->
<g id="node8" class="node">
<title>Manic notes 2</title>
<g id="a_node8"><a xlink:href="/mania/page/2" xlink:title="Manic notes 2">
<polygon fill="none" stroke="#000000" points="95,-1859 0,-1859 0,-1823 95,-1823 95,-1859"/>
<text text-anchor="middle" x="47.5" y="-1837.3" font-family="Times,serif" font-size="14.00" fill="#000000">Manic notes 2</text>
</a>
</g>
</g>
<!-- Manic notes 1&#45;&#45;Manic notes 2 -->
<g id="edge24" class="edge">
<title>Manic notes 1&#45;&#45;Manic notes 2</title>
<path fill="none" stroke="#000000" d="M47.5,-1894.8314C47.5,-1884 47.5,-1870.2876 47.5,-1859.4133"/>
</g>
<!-- Manic notes 3 -->
<g id="node9" class="node">
<title>Manic notes 3</title>
<g id="a_node9"><a xlink:href="/mania/page/3" xlink:title="Manic notes 3">
<polygon fill="none" stroke="#000000" points="95,-1787 0,-1787 0,-1751 95,-1751 95,-1787"/>
<text text-anchor="middle" x="47.5" y="-1765.3" font-family="Times,serif" font-size="14.00" fill="#000000">Manic notes 3</text>
</a>
</g>
</g>
<!-- Manic notes 2&#45;&#45;Manic notes 3 -->
<g id="edge25" class="edge">
<title>Manic notes 2&#45;&#45;Manic notes 3</title>
<path fill="none" stroke="#000000" d="M47.5,-1822.8314C47.5,-1812 47.5,-1798.2876 47.5,-1787.4133"/>
</g>
<!-- Manic notes 4 -->
<g id="node10" class="node">
<title>Manic notes 4</title>
<g id="a_node10"><a xlink:href="/mania/page/4" xlink:title="Manic notes 4">
<polygon fill="none" stroke="#000000" points="95,-1715 0,-1715 0,-1679 95,-1679 95,-1715"/>
<text text-anchor="middle" x="47.5" y="-1693.3" font-family="Times,serif" font-size="14.00" fill="#000000">Manic notes 4</text>
</a>
</g>
</g>
<!-- Manic notes 3&#45;&#45;Manic notes 4 -->
<g id="edge26" class="edge">
<title>Manic notes 3&#45;&#45;Manic notes 4</title>
<path fill="none" stroke="#000000" d="M47.5,-1750.8314C47.5,-1740 47.5,-1726.2876 47.5,-1715.4133"/>
</g>
<!-- Manic notes 5 -->
<g id="node11" class="node">
<title>Manic notes 5</title>
<g id="a_node11"><a xlink:href="/mania/page/5" xlink:title="Manic notes 5">
<polygon fill="none" stroke="#000000" points="95,-1643 0,-1643 0,-1607 95,-1607 95,-1643"/>
<text text-anchor="middle" x="47.5" y="-1621.3" font-family="Times,serif" font-size="14.00" fill="#000000">Manic notes 5</text>
</a>
</g>
</g>
<!-- Manic notes 4&#45;&#45;Manic notes 5 -->
<g id="edge27" class="edge">
<title>Manic notes 4&#45;&#45;Manic notes 5</title>
<path fill="none" stroke="#000000" d="M47.5,-1678.8314C47.5,-1668 47.5,-1654.2876 47.5,-1643.4133"/>
</g>
<!-- Manic notes 6 -->
<g id="node12" class="node">
<title>Manic notes 6</title>
<g id="a_node12"><a xlink:href="/mania/page/6" xlink:title="Manic notes 6">
<polygon fill="none" stroke="#000000" points="95,-1571 0,-1571 0,-1535 95,-1535 95,-1571"/>
<text text-anchor="middle" x="47.5" y="-1549.3" font-family="Times,serif" font-size="14.00" fill="#000000">Manic notes 6</text>
</a>
</g>
</g>
<!-- Manic notes 5&#45;&#45;Manic notes 6 -->
<g id="edge28" class="edge">
<title>Manic notes 5&#45;&#45;Manic notes 6</title>
<path fill="none" stroke="#000000" d="M47.5,-1606.8314C47.5,-1596 47.5,-1582.2876 47.5,-1571.4133"/>
</g>
<!-- Manic notes 7 -->
<g id="node13" class="node">
<title>Manic notes 7</title>
<g id="a_node13"><a xlink:href="/mania/page/7" xlink:title="Manic notes 7">
<polygon fill="none" stroke="#000000" points="95,-1499 0,-1499 0,-1463 95,-1463 95,-1499"/>
<text text-anchor="middle" x="47.5" y="-1477.3" font-family="Times,serif" font-size="14.00" fill="#000000">Manic notes 7</text>
</a>
</g>
</g>
<!-- Manic notes 6&#45;&#45;Manic notes 7 -->
<g id="edge29" class="edge">
<title>Manic notes 6&#45;&#45;Manic notes 7</title>
<path fill="none" stroke="#000000" d="M47.5,-1534.8314C47.5,-1524 47.5,-1510.2876 47.5,-1499.4133"/>
</g>
<!-- Home -->
<g id="node14" class="node">
<title>Home</title>
<g id="a_node14"><a xlink:href="/" xlink:title="Home">
<polygon fill="none" stroke="#000000" points="170.5,-2507 116.5,-2507 116.5,-2471 170.5,-2471 170.5,-2507"/>
<text text-anchor="middle" x="143.5" y="-2485.3" font-family="Times,serif" font-size="14.00" fill="#000000">Home</text>
</a>
</g>
</g>
<!-- Core 1 -->
<g id="node15" class="node">
<title>Core 1</title>
<g id="a_node15"><a xlink:href="/core/" xlink:title="Core 1">
<polygon fill="none" stroke="#000000" points="170.5,-2435 116.5,-2435 116.5,-2399 170.5,-2399 170.5,-2435"/>
<text text-anchor="middle" x="143.5" y="-2413.3" font-family="Times,serif" font-size="14.00" fill="#000000">Core 1</text>
</a>
</g>
</g>
<!-- Home&#45;&#45;Core 1 -->
<g id="edge1" class="edge">
<title>Home&#45;&#45;Core 1</title>
<path fill="none" stroke="#000000" d="M143.5,-2470.8314C143.5,-2460 143.5,-2446.2876 143.5,-2435.4133"/>
</g>
<!-- Core 2 -->
<g id="node16" class="node">
<title>Core 2</title>
<g id="a_node16"><a xlink:href="/core/page/2" xlink:title="Core 2">
<polygon fill="none" stroke="#000000" points="170.5,-2363 116.5,-2363 116.5,-2327 170.5,-2327 170.5,-2363"/>
<text text-anchor="middle" x="143.5" y="-2341.3" font-family="Times,serif" font-size="14.00" fill="#000000">Core 2</text>
</a>
</g>
</g>
<!-- Core 1&#45;&#45;Core 2 -->
<g id="edge2" class="edge">
<title>Core 1&#45;&#45;Core 2</title>
<path fill="none" stroke="#000000" d="M143.5,-2398.8314C143.5,-2388 143.5,-2374.2876 143.5,-2363.4133"/>
</g>
<!-- Core 3 -->
<g id="node17" class="node">
<title>Core 3</title>
<g id="a_node17"><a xlink:href="/core/page/3" xlink:title="Core 3">
<polygon fill="none" stroke="#000000" points="170.5,-2291 116.5,-2291 116.5,-2255 170.5,-2255 170.5,-2291"/>
<text text-anchor="middle" x="143.5" y="-2269.3" font-family="Times,serif" font-size="14.00" fill="#000000">Core 3</text>
</a>
</g>
</g>
<!-- Core 2&#45;&#45;Core 3 -->
<g id="edge3" class="edge">
<title>Core 2&#45;&#45;Core 3</title>
<path fill="none" stroke="#000000" d="M143.5,-2326.8314C143.5,-2316 143.5,-2302.2876 143.5,-2291.4133"/>
</g>
<!-- Core 4 -->
<g id="node18" class="node">
<title>Core 4</title>
<g id="a_node18"><a xlink:href="/core/page/4" xlink:title="Core 4">
<polygon fill="none" stroke="#000000" points="170.5,-2219 116.5,-2219 116.5,-2183 170.5,-2183 170.5,-2219"/>
<text text-anchor="middle" x="143.5" y="-2197.3" font-family="Times,serif" font-size="14.00" fill="#000000">Core 4</text>
</a>
</g>
</g>
<!-- Core 3&#45;&#45;Core 4 -->
<g id="edge4" class="edge">
<title>Core 3&#45;&#45;Core 4</title>
<path fill="none" stroke="#000000" d="M143.5,-2254.8314C143.5,-2244 143.5,-2230.2876 143.5,-2219.4133"/>
</g>
<!-- Core 5 -->
<g id="node19" class="node">
<title>Core 5</title>
<g id="a_node19"><a xlink:href="/core/page/5" xlink:title="Core 5">
<polygon fill="none" stroke="#000000" points="170.5,-2147 116.5,-2147 116.5,-2111 170.5,-2111 170.5,-2147"/>
<text text-anchor="middle" x="143.5" y="-2125.3" font-family="Times,serif" font-size="14.00" fill="#000000">Core 5</text>
</a>
</g>
</g>
<!-- Core 4&#45;&#45;Core 5 -->
<g id="edge5" class="edge">
<title>Core 4&#45;&#45;Core 5</title>
<path fill="none" stroke="#000000" d="M143.5,-2182.8314C143.5,-2172 143.5,-2158.2876 143.5,-2147.4133"/>
</g>
<!-- Core 6 -->
<g id="node20" class="node">
<title>Core 6</title>
<g id="a_node20"><a xlink:href="/core/page/6" xlink:title="Core 6">
<polygon fill="none" stroke="#000000" points="170.5,-2075 116.5,-2075 116.5,-2039 170.5,-2039 170.5,-2075"/>
<text text-anchor="middle" x="143.5" y="-2053.3" font-family="Times,serif" font-size="14.00" fill="#000000">Core 6</text>
</a>
</g>
</g>
<!-- Core 5&#45;&#45;Core 6 -->
<g id="edge6" class="edge">
<title>Core 5&#45;&#45;Core 6</title>
<path fill="none" stroke="#000000" d="M143.5,-2110.8314C143.5,-2100 143.5,-2086.2876 143.5,-2075.4133"/>
</g>
<!-- Core 7 -->
<g id="node21" class="node">
<title>Core 7</title>
<g id="a_node21"><a xlink:href="/core/page/7" xlink:title="Core 7">
<polygon fill="none" stroke="#000000" points="170.5,-2003 116.5,-2003 116.5,-1967 170.5,-1967 170.5,-2003"/>
<text text-anchor="middle" x="143.5" y="-1981.3" font-family="Times,serif" font-size="14.00" fill="#000000">Core 7</text>
</a>
</g>
</g>
<!-- Core 6&#45;&#45;Core 7 -->
<g id="edge7" class="edge">
<title>Core 6&#45;&#45;Core 7</title>
<path fill="none" stroke="#000000" d="M143.5,-2038.8314C143.5,-2028 143.5,-2014.2876 143.5,-2003.4133"/>
</g>
<!-- Core 7&#45;&#45;Manic notes 1 -->
<g id="edge23" class="edge">
<title>Core 7&#45;&#45;Manic notes 1</title>
<path fill="none" stroke="#000000" d="M119.2751,-1966.8314C104.7223,-1955.9167 86.2686,-1942.0764 71.7171,-1931.1628"/>
</g>
<!-- Core 8 -->
<g id="node22" class="node">
<title>Core 8</title>
<g id="a_node22"><a xlink:href="/core/page/8" xlink:title="Core 8">
<polygon fill="none" stroke="#000000" points="170.5,-1931 116.5,-1931 116.5,-1895 170.5,-1895 170.5,-1931"/>
<text text-anchor="middle" x="143.5" y="-1909.3" font-family="Times,serif" font-size="14.00" fill="#000000">Core 8</text>
</a>
</g>
</g>
<!-- Core 7&#45;&#45;Core 8 -->
<g id="edge8" class="edge">
<title>Core 7&#45;&#45;Core 8</title>
<path fill="none" stroke="#000000" d="M143.5,-1966.8314C143.5,-1956 143.5,-1942.2876 143.5,-1931.4133"/>
</g>
<!-- Core 9 -->
<g id="node23" class="node">
<title>Core 9</title>
<g id="a_node23"><a xlink:href="/core/page/9" xlink:title="Core 9">
<polygon fill="none" stroke="#000000" points="170.5,-1859 116.5,-1859 116.5,-1823 170.5,-1823 170.5,-1859"/>
<text text-anchor="middle" x="143.5" y="-1837.3" font-family="Times,serif" font-size="14.00" fill="#000000">Core 9</text>
</a>
</g>
</g>
<!-- Core 8&#45;&#45;Core 9 -->
<g id="edge9" class="edge">
<title>Core 8&#45;&#45;Core 9</title>
<path fill="none" stroke="#000000" d="M143.5,-1894.8314C143.5,-1884 143.5,-1870.2876 143.5,-1859.4133"/>
</g>
<!-- Core 10 -->
<g id="node24" class="node">
<title>Core 10</title>
<g id="a_node24"><a xlink:href="/core/page/10" xlink:title="Core 10">
<polygon fill="none" stroke="#000000" points="173.5,-1787 113.5,-1787 113.5,-1751 173.5,-1751 173.5,-1787"/>
<text text-anchor="middle" x="143.5" y="-1765.3" font-family="Times,serif" font-size="14.00" fill="#000000">Core 10</text>
</a>
</g>
</g>
<!-- Core 9&#45;&#45;Core 10 -->
<g id="edge10" class="edge">
<title>Core 9&#45;&#45;Core 10</title>
<path fill="none" stroke="#000000" d="M143.5,-1822.8314C143.5,-1812 143.5,-1798.2876 143.5,-1787.4133"/>
</g>
<!-- Core 11 -->
<g id="node25" class="node">
<title>Core 11</title>
<g id="a_node25"><a xlink:href="/core/page/11" xlink:title="Core 11">
<polygon fill="none" stroke="#000000" points="173.5,-1715 113.5,-1715 113.5,-1679 173.5,-1679 173.5,-1715"/>
<text text-anchor="middle" x="143.5" y="-1693.3" font-family="Times,serif" font-size="14.00" fill="#000000">Core 11</text>
</a>
</g>
</g>
<!-- Core 10&#45;&#45;Core 11 -->
<g id="edge11" class="edge">
<title>Core 10&#45;&#45;Core 11</title>
<path fill="none" stroke="#000000" d="M143.5,-1750.8314C143.5,-1740 143.5,-1726.2876 143.5,-1715.4133"/>
</g>
<!-- Jay 1 -->
<g id="node37" class="node">
<title>Jay 1</title>
<g id="a_node37"><a xlink:href="/jay/" xlink:title="Jay 1">
<polygon fill="none" stroke="#000000" points="339.5,-1715 285.5,-1715 285.5,-1679 339.5,-1679 339.5,-1715"/>
<text text-anchor="middle" x="312.5" y="-1693.3" font-family="Times,serif" font-size="14.00" fill="#000000">Jay 1</text>
</a>
</g>
</g>
<!-- Core 10&#45;&#45;Jay 1 -->
<g id="edge30" class="edge">
<title>Core 10&#45;&#45;Jay 1</title>
<path fill="none" stroke="#000000" d="M173.7138,-1756.1278C205.4245,-1742.618 254.8234,-1721.5723 285.3384,-1708.5718"/>
</g>
<!-- Core 12 -->
<g id="node26" class="node">
<title>Core 12</title>
<g id="a_node26"><a xlink:href="/core/page/12" xlink:title="Core 12">
<polygon fill="none" stroke="#000000" points="173.5,-1643 113.5,-1643 113.5,-1607 173.5,-1607 173.5,-1643"/>
<text text-anchor="middle" x="143.5" y="-1621.3" font-family="Times,serif" font-size="14.00" fill="#000000">Core 12</text>
</a>
</g>
</g>
<!-- Core 11&#45;&#45;Core 12 -->
<g id="edge12" class="edge">
<title>Core 11&#45;&#45;Core 12</title>
<path fill="none" stroke="#000000" d="M143.5,-1678.8314C143.5,-1668 143.5,-1654.2876 143.5,-1643.4133"/>
</g>
<!-- Core 13 -->
<g id="node27" class="node">
<title>Core 13</title>
<g id="a_node27"><a xlink:href="/core/page/13" xlink:title="Core 13">
<polygon fill="none" stroke="#000000" points="173.5,-1571 113.5,-1571 113.5,-1535 173.5,-1535 173.5,-1571"/>
<text text-anchor="middle" x="143.5" y="-1549.3" font-family="Times,serif" font-size="14.00" fill="#000000">Core 13</text>
</a>
</g>
</g>
<!-- Core 12&#45;&#45;Core 13 -->
<g id="edge13" class="edge">
<title>Core 12&#45;&#45;Core 13</title>
<path fill="none" stroke="#000000" d="M143.5,-1606.8314C143.5,-1596 143.5,-1582.2876 143.5,-1571.4133"/>
</g>
<!-- Core 14 -->
<g id="node28" class="node">
<title>Core 14</title>
<g id="a_node28"><a xlink:href="/core/page/14" xlink:title="Core 14">
<polygon fill="none" stroke="#000000" points="173.5,-1067 113.5,-1067 113.5,-1031 173.5,-1031 173.5,-1067"/>
<text text-anchor="middle" x="143.5" y="-1045.3" font-family="Times,serif" font-size="14.00" fill="#000000">Core 14</text>
</a>
</g>
</g>
<!-- Core 13&#45;&#45;Core 14 -->
<g id="edge14" class="edge">
<title>Core 13&#45;&#45;Core 14</title>
<path fill="none" stroke="#000000" d="M143.5,-1534.8146C143.5,-1507.4983 143.5,-1454.25 143.5,-1409 143.5,-1409 143.5,-1409 143.5,-1193 143.5,-1147.75 143.5,-1094.5017 143.5,-1067.1854"/>
</g>
<!-- From within 1 -->
<g id="node43" class="node">
<title>From within 1</title>
<g id="a_node43"><a xlink:href="/from-within/" xlink:title="From within 1">
<polygon fill="none" stroke="#000000" points="267,-1499 172,-1499 172,-1463 267,-1463 267,-1499"/>
<text text-anchor="middle" x="219.5" y="-1477.3" font-family="Times,serif" font-size="14.00" fill="#000000">From within 1</text>
</a>
</g>
</g>
<!-- Core 13&#45;&#45;From within 1 -->
<g id="edge36" class="edge">
<title>Core 13&#45;&#45;From within 1</title>
<path fill="none" stroke="#000000" d="M162.678,-1534.8314C174.199,-1523.9167 188.8082,-1510.0764 200.3281,-1499.1628"/>
</g>
<!-- Core 15 -->
<g id="node29" class="node">
<title>Core 15</title>
<g id="a_node29"><a xlink:href="/core/page/15" xlink:title="Core 15">
<polygon fill="none" stroke="#000000" points="173.5,-995 113.5,-995 113.5,-959 173.5,-959 173.5,-995"/>
<text text-anchor="middle" x="143.5" y="-973.3" font-family="Times,serif" font-size="14.00" fill="#000000">Core 15</text>
</a>
</g>
</g>
<!-- Core 14&#45;&#45;Core 15 -->
<g id="edge15" class="edge">
<title>Core 14&#45;&#45;Core 15</title>
<path fill="none" stroke="#000000" d="M143.5,-1030.8314C143.5,-1020 143.5,-1006.2876 143.5,-995.4133"/>
</g>
<!-- Core 15&#45;&#45;Koan 1 -->
<g id="edge43" class="edge">
<title>Core 15&#45;&#45;Koan 1</title>
<path fill="none" stroke="#000000" d="M121.2939,-958.8314C107.9537,-947.9167 91.0379,-934.0764 77.699,-923.1628"/>
</g>
<!-- Core 16 -->
<g id="node30" class="node">
<title>Core 16</title>
<g id="a_node30"><a xlink:href="/core/page/16" xlink:title="Core 16">
<polygon fill="none" stroke="#000000" points="173.5,-923 113.5,-923 113.5,-887 173.5,-887 173.5,-923"/>
<text text-anchor="middle" x="143.5" y="-901.3" font-family="Times,serif" font-size="14.00" fill="#000000">Core 16</text>
</a>
</g>
</g>
<!-- Core 15&#45;&#45;Core 16 -->
<g id="edge16" class="edge">
<title>Core 15&#45;&#45;Core 16</title>
<path fill="none" stroke="#000000" d="M143.5,-958.8314C143.5,-948 143.5,-934.2876 143.5,-923.4133"/>
</g>
<!-- Core 17 -->
<g id="node31" class="node">
<title>Core 17</title>
<g id="a_node31"><a xlink:href="/core/page/17" xlink:title="Core 17">
<polygon fill="none" stroke="#000000" points="173.5,-851 113.5,-851 113.5,-815 173.5,-815 173.5,-851"/>
<text text-anchor="middle" x="143.5" y="-829.3" font-family="Times,serif" font-size="14.00" fill="#000000">Core 17</text>
</a>
</g>
</g>
<!-- Core 16&#45;&#45;Core 17 -->
<g id="edge17" class="edge">
<title>Core 16&#45;&#45;Core 17</title>
<path fill="none" stroke="#000000" d="M143.5,-886.8314C143.5,-876 143.5,-862.2876 143.5,-851.4133"/>
</g>
<!-- Fursoñas 1 -->
<g id="node49" class="node">
<title>Fursoñas 1</title>
<g id="a_node49"><a xlink:href="/fursona/" xlink:title="Fursoñas 1">
<polygon fill="none" stroke="#000000" points="313.5,-851 237.5,-851 237.5,-815 313.5,-815 313.5,-851"/>
<text text-anchor="middle" x="275.5" y="-829.3" font-family="Times,serif" font-size="14.00" fill="#000000">Fursoñas 1</text>
</a>
</g>
</g>
<!-- Core 16&#45;&#45;Fursoñas 1 -->
<g id="edge49" class="edge">
<title>Core 16&#45;&#45;Fursoñas 1</title>
<path fill="none" stroke="#000000" d="M173.7835,-888.4817C194.1823,-877.3551 221.0951,-862.6754 242.1135,-851.2108"/>
</g>
<!-- Core 18 -->
<g id="node32" class="node">
<title>Core 18</title>
<g id="a_node32"><a xlink:href="/core/page/18" xlink:title="Core 18">
<polygon fill="none" stroke="#000000" points="173.5,-779 113.5,-779 113.5,-743 173.5,-743 173.5,-779"/>
<text text-anchor="middle" x="143.5" y="-757.3" font-family="Times,serif" font-size="14.00" fill="#000000">Core 18</text>
</a>
</g>
</g>
<!-- Core 17&#45;&#45;Core 18 -->
<g id="edge18" class="edge">
<title>Core 17&#45;&#45;Core 18</title>
<path fill="none" stroke="#000000" d="M143.5,-814.8314C143.5,-804 143.5,-790.2876 143.5,-779.4133"/>
</g>
<!-- Core 19 -->
<g id="node33" class="node">
<title>Core 19</title>
<g id="a_node33"><a xlink:href="/core/page/21" xlink:title="Core 19">
<polygon fill="none" stroke="#000000" points="173.5,-707 113.5,-707 113.5,-671 173.5,-671 173.5,-707"/>
<text text-anchor="middle" x="143.5" y="-685.3" font-family="Times,serif" font-size="14.00" fill="#000000">Core 19</text>
</a>
</g>
</g>
<!-- Core 18&#45;&#45;Core 19 -->
<g id="edge19" class="edge">
<title>Core 18&#45;&#45;Core 19</title>
<path fill="none" stroke="#000000" d="M143.5,-742.8314C143.5,-732 143.5,-718.2876 143.5,-707.4133"/>
</g>
<!-- Core 20 -->
<g id="node35" class="node">
<title>Core 20</title>
<polygon fill="none" stroke="#000000" points="173.5,-635 113.5,-635 113.5,-599 173.5,-599 173.5,-635"/>
<text text-anchor="middle" x="143.5" y="-613.3" font-family="Times,serif" font-size="14.00" fill="#000000">Core 20</text>
</g>
<!-- Core 19&#45;&#45;Core 20 -->
<g id="edge20" class="edge">
<title>Core 19&#45;&#45;Core 20</title>
<path fill="none" stroke="#000000" d="M143.5,-670.8314C143.5,-660 143.5,-646.2876 143.5,-635.4133"/>
</g>
<!-- To be continued... -->
<g id="node34" class="node">
<title>To be continued...</title>
<ellipse fill="none" stroke="#000000" cx="145.5" cy="-41" rx="75.2868" ry="18"/>
<text text-anchor="middle" x="145.5" y="-37.3" font-family="Times,serif" font-size="14.00" fill="#000000">To be continued...</text>
</g>
<!-- Core 21 -->
<g id="node36" class="node">
<title>Core 21</title>
<polygon fill="none" stroke="#000000" points="175.5,-131 115.5,-131 115.5,-95 175.5,-95 175.5,-131"/>
<text text-anchor="middle" x="145.5" y="-109.3" font-family="Times,serif" font-size="14.00" fill="#000000">Core 21</text>
</g>
<!-- Core 20&#45;&#45;Core 21 -->
<g id="edge21" class="edge">
<title>Core 20&#45;&#45;Core 21</title>
<path fill="none" stroke="#000000" d="M136.7136,-598.6497C127.3203,-571.5619 111.5,-519.0977 111.5,-473 111.5,-473 111.5,-473 111.5,-257 111.5,-210.7627 128.3091,-158.3552 138.2895,-131.3133"/>
</g>
<!-- Margaras 1 -->
<g id="node57" class="node">
<title>Margaras 1</title>
<g id="a_node57"><a xlink:href="/margaras" xlink:title="Margaras 1">
<polygon fill="none" stroke="#000000" points="219,-491 140,-491 140,-455 219,-455 219,-491"/>
<text text-anchor="middle" x="179.5" y="-469.3" font-family="Times,serif" font-size="14.00" fill="#000000">Margaras 1</text>
</a>
</g>
</g>
<!-- Core 20&#45;&#45;Margaras 1 -->
<g id="edge57" class="edge">
<title>Core 20&#45;&#45;Margaras 1</title>
<path fill="none" stroke="#000000" d="M148.0594,-598.7623C154.9842,-571.0633 168.0749,-518.7005 174.9776,-491.0896"/>
</g>
<!-- Core 21&#45;&#45;To be continued... -->
<g id="edge22" class="edge">
<title>Core 21&#45;&#45;To be continued...</title>
<path fill="none" stroke="#000000" d="M145.5,-94.8314C145.5,-84 145.5,-70.2876 145.5,-59.4133"/>
</g>
<!-- Jay 2 -->
<g id="node38" class="node">
<title>Jay 2</title>
<g id="a_node38"><a xlink:href="/jay/page/2" xlink:title="Jay 2">
<polygon fill="none" stroke="#000000" points="339.5,-1643 285.5,-1643 285.5,-1607 339.5,-1607 339.5,-1643"/>
<text text-anchor="middle" x="312.5" y="-1621.3" font-family="Times,serif" font-size="14.00" fill="#000000">Jay 2</text>
</a>
</g>
</g>
<!-- Jay 1&#45;&#45;Jay 2 -->
<g id="edge31" class="edge">
<title>Jay 1&#45;&#45;Jay 2</title>
<path fill="none" stroke="#000000" d="M312.5,-1678.8314C312.5,-1668 312.5,-1654.2876 312.5,-1643.4133"/>
</g>
<!-- Jay 3 -->
<g id="node39" class="node">
<title>Jay 3</title>
<g id="a_node39"><a xlink:href="/jay/page/3" xlink:title="Jay 3">
<polygon fill="none" stroke="#000000" points="339.5,-1571 285.5,-1571 285.5,-1535 339.5,-1535 339.5,-1571"/>
<text text-anchor="middle" x="312.5" y="-1549.3" font-family="Times,serif" font-size="14.00" fill="#000000">Jay 3</text>
</a>
</g>
</g>
<!-- Jay 2&#45;&#45;Jay 3 -->
<g id="edge32" class="edge">
<title>Jay 2&#45;&#45;Jay 3</title>
<path fill="none" stroke="#000000" d="M312.5,-1606.8314C312.5,-1596 312.5,-1582.2876 312.5,-1571.4133"/>
</g>
<!-- Jay 4 -->
<g id="node40" class="node">
<title>Jay 4</title>
<g id="a_node40"><a xlink:href="/jay/page/4" xlink:title="Jay 4">
<polygon fill="none" stroke="#000000" points="339.5,-1499 285.5,-1499 285.5,-1463 339.5,-1463 339.5,-1499"/>
<text text-anchor="middle" x="312.5" y="-1477.3" font-family="Times,serif" font-size="14.00" fill="#000000">Jay 4</text>
</a>
</g>
</g>
<!-- Jay 3&#45;&#45;Jay 4 -->
<g id="edge33" class="edge">
<title>Jay 3&#45;&#45;Jay 4</title>
<path fill="none" stroke="#000000" d="M312.5,-1534.8314C312.5,-1524 312.5,-1510.2876 312.5,-1499.4133"/>
</g>
<!-- Jay 5 -->
<g id="node41" class="node">
<title>Jay 5</title>
<g id="a_node41"><a xlink:href="/jay/page/5" xlink:title="Jay 5">
<polygon fill="none" stroke="#000000" points="339.5,-1427 285.5,-1427 285.5,-1391 339.5,-1391 339.5,-1427"/>
<text text-anchor="middle" x="312.5" y="-1405.3" font-family="Times,serif" font-size="14.00" fill="#000000">Jay 5</text>
</a>
</g>
</g>
<!-- Jay 4&#45;&#45;Jay 5 -->
<g id="edge34" class="edge">
<title>Jay 4&#45;&#45;Jay 5</title>
<path fill="none" stroke="#000000" d="M312.5,-1462.8314C312.5,-1452 312.5,-1438.2876 312.5,-1427.4133"/>
</g>
<!-- Jay 6 -->
<g id="node42" class="node">
<title>Jay 6</title>
<g id="a_node42"><a xlink:href="/jay/page/6" xlink:title="Jay 6">
<polygon fill="none" stroke="#000000" points="339.5,-1355 285.5,-1355 285.5,-1319 339.5,-1319 339.5,-1355"/>
<text text-anchor="middle" x="312.5" y="-1333.3" font-family="Times,serif" font-size="14.00" fill="#000000">Jay 6</text>
</a>
</g>
</g>
<!-- Jay 5&#45;&#45;Jay 6 -->
<g id="edge35" class="edge">
<title>Jay 5&#45;&#45;Jay 6</title>
<path fill="none" stroke="#000000" d="M312.5,-1390.8314C312.5,-1380 312.5,-1366.2876 312.5,-1355.4133"/>
</g>
<!-- From within 2 -->
<g id="node44" class="node">
<title>From within 2</title>
<g id="a_node44"><a xlink:href="/from-within/2" xlink:title="From within 2">
<polygon fill="none" stroke="#000000" points="267,-1427 172,-1427 172,-1391 267,-1391 267,-1427"/>
<text text-anchor="middle" x="219.5" y="-1405.3" font-family="Times,serif" font-size="14.00" fill="#000000">From within 2</text>
</a>
</g>
</g>
<!-- From within 1&#45;&#45;From within 2 -->
<g id="edge37" class="edge">
<title>From within 1&#45;&#45;From within 2</title>
<path fill="none" stroke="#000000" d="M219.5,-1462.8314C219.5,-1452 219.5,-1438.2876 219.5,-1427.4133"/>
</g>
<!-- From within 3 -->
<g id="node45" class="node">
<title>From within 3</title>
<g id="a_node45"><a xlink:href="/from-within/3" xlink:title="From within 3">
<polygon fill="none" stroke="#000000" points="267,-1355 172,-1355 172,-1319 267,-1319 267,-1355"/>
<text text-anchor="middle" x="219.5" y="-1333.3" font-family="Times,serif" font-size="14.00" fill="#000000">From within 3</text>
</a>
</g>
</g>
<!-- From within 2&#45;&#45;From within 3 -->
<g id="edge38" class="edge">
<title>From within 2&#45;&#45;From within 3</title>
<path fill="none" stroke="#000000" d="M219.5,-1390.8314C219.5,-1380 219.5,-1366.2876 219.5,-1355.4133"/>
</g>
<!-- From within 4 -->
<g id="node46" class="node">
<title>From within 4</title>
<g id="a_node46"><a xlink:href="/from-within/4" xlink:title="From within 4">
<polygon fill="none" stroke="#000000" points="267,-1283 172,-1283 172,-1247 267,-1247 267,-1283"/>
<text text-anchor="middle" x="219.5" y="-1261.3" font-family="Times,serif" font-size="14.00" fill="#000000">From within 4</text>
</a>
</g>
</g>
<!-- From within 3&#45;&#45;From within 4 -->
<g id="edge39" class="edge">
<title>From within 3&#45;&#45;From within 4</title>
<path fill="none" stroke="#000000" d="M219.5,-1318.8314C219.5,-1308 219.5,-1294.2876 219.5,-1283.4133"/>
</g>
<!-- From within 5 -->
<g id="node47" class="node">
<title>From within 5</title>
<g id="a_node47"><a xlink:href="/from-within/5" xlink:title="From within 5">
<polygon fill="none" stroke="#000000" points="267,-1211 172,-1211 172,-1175 267,-1175 267,-1211"/>
<text text-anchor="middle" x="219.5" y="-1189.3" font-family="Times,serif" font-size="14.00" fill="#000000">From within 5</text>
</a>
</g>
</g>
<!-- From within 4&#45;&#45;From within 5 -->
<g id="edge40" class="edge">
<title>From within 4&#45;&#45;From within 5</title>
<path fill="none" stroke="#000000" d="M219.5,-1246.8314C219.5,-1236 219.5,-1222.2876 219.5,-1211.4133"/>
</g>
<!-- From within 6 -->
<g id="node48" class="node">
<title>From within 6</title>
<g id="a_node48"><a xlink:href="/from-within/i-guess.." xlink:title="From within 6">
<polygon fill="none" stroke="#000000" points="267,-1139 172,-1139 172,-1103 267,-1103 267,-1139"/>
<text text-anchor="middle" x="219.5" y="-1117.3" font-family="Times,serif" font-size="14.00" fill="#000000">From within 6</text>
</a>
</g>
</g>
<!-- From within 5&#45;&#45;From within 6 -->
<g id="edge41" class="edge">
<title>From within 5&#45;&#45;From within 6</title>
<path fill="none" stroke="#000000" d="M219.5,-1174.8314C219.5,-1164 219.5,-1150.2876 219.5,-1139.4133"/>
</g>
<!-- From within 6&#45;&#45;Core 14 -->
<g id="edge42" class="edge">
<title>From within 6&#45;&#45;Core 14</title>
<path fill="none" stroke="#000000" d="M200.322,-1102.8314C188.801,-1091.9167 174.1918,-1078.0764 162.6719,-1067.1628"/>
</g>
<!-- Fursoñas 2 -->
<g id="node50" class="node">
<title>Fursoñas 2</title>
<g id="a_node50"><a xlink:href="/fursona/page/2" xlink:title="Fursoñas 2">
<polygon fill="none" stroke="#000000" points="313.5,-779 237.5,-779 237.5,-743 313.5,-743 313.5,-779"/>
<text text-anchor="middle" x="275.5" y="-757.3" font-family="Times,serif" font-size="14.00" fill="#000000">Fursoñas 2</text>
</a>
</g>
</g>
<!-- Fursoñas 1&#45;&#45;Fursoñas 2 -->
<g id="edge50" class="edge">
<title>Fursoñas 1&#45;&#45;Fursoñas 2</title>
<path fill="none" stroke="#000000" d="M275.5,-814.8314C275.5,-804 275.5,-790.2876 275.5,-779.4133"/>
</g>
<!-- Fursoñas 3 -->
<g id="node51" class="node">
<title>Fursoñas 3</title>
<g id="a_node51"><a xlink:href="/fursona/page/3" xlink:title="Fursoñas 3">
<polygon fill="none" stroke="#000000" points="313.5,-707 237.5,-707 237.5,-671 313.5,-671 313.5,-707"/>
<text text-anchor="middle" x="275.5" y="-685.3" font-family="Times,serif" font-size="14.00" fill="#000000">Fursoñas 3</text>
</a>
</g>
</g>
<!-- Fursoñas 2&#45;&#45;Fursoñas 3 -->
<g id="edge51" class="edge">
<title>Fursoñas 2&#45;&#45;Fursoñas 3</title>
<path fill="none" stroke="#000000" d="M275.5,-742.8314C275.5,-732 275.5,-718.2876 275.5,-707.4133"/>
</g>
<!-- Fursoñas 4 -->
<g id="node52" class="node">
<title>Fursoñas 4</title>
<g id="a_node52"><a xlink:href="/fursona/page/4" xlink:title="Fursoñas 4">
<polygon fill="none" stroke="#000000" points="313.5,-635 237.5,-635 237.5,-599 313.5,-599 313.5,-635"/>
<text text-anchor="middle" x="275.5" y="-613.3" font-family="Times,serif" font-size="14.00" fill="#000000">Fursoñas 4</text>
</a>
</g>
</g>
<!-- Fursoñas 3&#45;&#45;Fursoñas 4 -->
<g id="edge52" class="edge">
<title>Fursoñas 3&#45;&#45;Fursoñas 4</title>
<path fill="none" stroke="#000000" d="M275.5,-670.8314C275.5,-660 275.5,-646.2876 275.5,-635.4133"/>
</g>
<!-- Fursoñas 5 -->
<g id="node53" class="node">
<title>Fursoñas 5</title>
<g id="a_node53"><a xlink:href="/fursona/page/5" xlink:title="Fursoñas 5">
<polygon fill="none" stroke="#000000" points="313.5,-563 237.5,-563 237.5,-527 313.5,-527 313.5,-563"/>
<text text-anchor="middle" x="275.5" y="-541.3" font-family="Times,serif" font-size="14.00" fill="#000000">Fursoñas 5</text>
</a>
</g>
</g>
<!-- Fursoñas 4&#45;&#45;Fursoñas 5 -->
<g id="edge53" class="edge">
<title>Fursoñas 4&#45;&#45;Fursoñas 5</title>
<path fill="none" stroke="#000000" d="M275.5,-598.8314C275.5,-588 275.5,-574.2876 275.5,-563.4133"/>
</g>
<!-- Fursoñas 6 -->
<g id="node54" class="node">
<title>Fursoñas 6</title>
<g id="a_node54"><a xlink:href="/fursona/page/6" xlink:title="Fursoñas 6">
<polygon fill="none" stroke="#000000" points="313.5,-491 237.5,-491 237.5,-455 313.5,-455 313.5,-491"/>
<text text-anchor="middle" x="275.5" y="-469.3" font-family="Times,serif" font-size="14.00" fill="#000000">Fursoñas 6</text>
</a>
</g>
</g>
<!-- Fursoñas 5&#45;&#45;Fursoñas 6 -->
<g id="edge54" class="edge">
<title>Fursoñas 5&#45;&#45;Fursoñas 6</title>
<path fill="none" stroke="#000000" d="M275.5,-526.8314C275.5,-516 275.5,-502.2876 275.5,-491.4133"/>
</g>
<!-- Fursoñas 7 -->
<g id="node55" class="node">
<title>Fursoñas 7</title>
<g id="a_node55"><a xlink:href="/fursona/page/7" xlink:title="Fursoñas 7">
<polygon fill="none" stroke="#000000" points="313.5,-419 237.5,-419 237.5,-383 313.5,-383 313.5,-419"/>
<text text-anchor="middle" x="275.5" y="-397.3" font-family="Times,serif" font-size="14.00" fill="#000000">Fursoñas 7</text>
</a>
</g>
</g>
<!-- Fursoñas 6&#45;&#45;Fursoñas 7 -->
<g id="edge55" class="edge">
<title>Fursoñas 6&#45;&#45;Fursoñas 7</title>
<path fill="none" stroke="#000000" d="M275.5,-454.8314C275.5,-444 275.5,-430.2876 275.5,-419.4133"/>
</g>
<!-- Fursoñas 8 -->
<g id="node56" class="node">
<title>Fursoñas 8</title>
<g id="a_node56"><a xlink:href="/fursona/page/8" xlink:title="Fursoñas 8">
<polygon fill="none" stroke="#000000" points="313.5,-347 237.5,-347 237.5,-311 313.5,-311 313.5,-347"/>
<text text-anchor="middle" x="275.5" y="-325.3" font-family="Times,serif" font-size="14.00" fill="#000000">Fursoñas 8</text>
</a>
</g>
</g>
<!-- Fursoñas 7&#45;&#45;Fursoñas 8 -->
<g id="edge56" class="edge">
<title>Fursoñas 7&#45;&#45;Fursoñas 8</title>
<path fill="none" stroke="#000000" d="M275.5,-382.8314C275.5,-372 275.5,-358.2876 275.5,-347.4133"/>
</g>
<!-- Margaras 2 -->
<g id="node58" class="node">
<title>Margaras 2</title>
<g id="a_node58"><a xlink:href="/margaras/page/2" xlink:title="Margaras 2">
<polygon fill="none" stroke="#000000" points="219,-419 140,-419 140,-383 219,-383 219,-419"/>
<text text-anchor="middle" x="179.5" y="-397.3" font-family="Times,serif" font-size="14.00" fill="#000000">Margaras 2</text>
</a>
</g>
</g>
<!-- Margaras 1&#45;&#45;Margaras 2 -->
<g id="edge58" class="edge">
<title>Margaras 1&#45;&#45;Margaras 2</title>
<path fill="none" stroke="#000000" d="M179.5,-454.8314C179.5,-444 179.5,-430.2876 179.5,-419.4133"/>
</g>
<!-- Margaras 3 -->
<g id="node59" class="node">
<title>Margaras 3</title>
<g id="a_node59"><a xlink:href="/margaras/page/3" xlink:title="Margaras 3">
<polygon fill="none" stroke="#000000" points="219,-347 140,-347 140,-311 219,-311 219,-347"/>
<text text-anchor="middle" x="179.5" y="-325.3" font-family="Times,serif" font-size="14.00" fill="#000000">Margaras 3</text>
</a>
</g>
</g>
<!-- Margaras 2&#45;&#45;Margaras 3 -->
<g id="edge59" class="edge">
<title>Margaras 2&#45;&#45;Margaras 3</title>
<path fill="none" stroke="#000000" d="M179.5,-382.8314C179.5,-372 179.5,-358.2876 179.5,-347.4133"/>
</g>
<!-- Margaras 4 -->
<g id="node60" class="node">
<title>Margaras 4</title>
<g id="a_node60"><a xlink:href="/margaras/page/4" xlink:title="Margaras 4">
<polygon fill="none" stroke="#000000" points="219,-275 140,-275 140,-239 219,-239 219,-275"/>
<text text-anchor="middle" x="179.5" y="-253.3" font-family="Times,serif" font-size="14.00" fill="#000000">Margaras 4</text>
</a>
</g>
</g>
<!-- Margaras 3&#45;&#45;Margaras 4 -->
<g id="edge60" class="edge">
<title>Margaras 3&#45;&#45;Margaras 4</title>
<path fill="none" stroke="#000000" d="M179.5,-310.8314C179.5,-300 179.5,-286.2876 179.5,-275.4133"/>
</g>
<!-- Margaras 5 -->
<g id="node61" class="node">
<title>Margaras 5</title>
<g id="a_node61"><a xlink:href="/margaras/page/5" xlink:title="Margaras 5">
<polygon fill="none" stroke="#000000" points="219,-203 140,-203 140,-167 219,-167 219,-203"/>
<text text-anchor="middle" x="179.5" y="-181.3" font-family="Times,serif" font-size="14.00" fill="#000000">Margaras 5</text>
</a>
</g>
</g>
<!-- Margaras 4&#45;&#45;Margaras 5 -->
<g id="edge61" class="edge">
<title>Margaras 4&#45;&#45;Margaras 5</title>
<path fill="none" stroke="#000000" d="M179.5,-238.8314C179.5,-228 179.5,-214.2876 179.5,-203.4133"/>
</g>
<!-- Margaras 5&#45;&#45;Core 21 -->
<g id="edge62" class="edge">
<title>Margaras 5&#45;&#45;Core 21</title>
<path fill="none" stroke="#000000" d="M170.9204,-166.8314C165.8056,-156 159.3302,-142.2876 154.1952,-131.4133"/>
</g>
</g>
</svg>
