<?xml version="1.0" encoding="UTF-8" standalone="no"?>
<!DOCTYPE svg PUBLIC "-//W3C//DTD SVG 1.1//EN"
 "http://www.w3.org/Graphics/SVG/1.1/DTD/svg11.dtd">
<!-- Generated by graphviz version 2.40.1 (20161225.0304)
 -->
<!-- Title: Map Pages: 1 -->
<svg width="354pt" height="2852pt"
 viewBox="0.00 0.00 353.50 2852.00" xmlns="http://www.w3.org/2000/svg" xmlns:xlink="http://www.w3.org/1999/xlink">
<g id="graph0" class="graph" transform="scale(1 1) rotate(0) translate(4 2848)">
<title>Map</title>
<polygon fill="#ffffff" stroke="transparent" points="-4,4 -4,-2848 349.5,-2848 349.5,4 -4,4"/>
<!-- Koan 1 -->
<g id="node1" class="node">
<title>Koan 1</title>
<g id="a_node1"><a xlink:href="/koan/" xlink:title="Koan 1">
<polygon fill="none" stroke="#000000" points="95.5,-1260 39.5,-1260 39.5,-1224 95.5,-1224 95.5,-1260"/>
<text text-anchor="middle" x="67.5" y="-1238.3" font-family="Times,serif" font-size="14.00" fill="#000000">Koan 1</text>
</a>
</g>
</g>
<!-- Koan 2 -->
<g id="node2" class="node">
<title>Koan 2</title>
<g id="a_node2"><a xlink:href="/koan/page/2" xlink:title="Koan 2">
<polygon fill="none" stroke="#000000" points="95.5,-1188 39.5,-1188 39.5,-1152 95.5,-1152 95.5,-1188"/>
<text text-anchor="middle" x="67.5" y="-1166.3" font-family="Times,serif" font-size="14.00" fill="#000000">Koan 2</text>
</a>
</g>
</g>
<!-- Koan 1&#45;&#45;Koan 2 -->
<g id="edge50" class="edge">
<title>Koan 1&#45;&#45;Koan 2</title>
<path fill="none" stroke="#000000" d="M67.5,-1223.8314C67.5,-1213 67.5,-1199.2876 67.5,-1188.4133"/>
</g>
<!-- Koan 3 -->
<g id="node3" class="node">
<title>Koan 3</title>
<g id="a_node3"><a xlink:href="/koan/page/3" xlink:title="Koan 3">
<polygon fill="none" stroke="#000000" points="95.5,-1116 39.5,-1116 39.5,-1080 95.5,-1080 95.5,-1116"/>
<text text-anchor="middle" x="67.5" y="-1094.3" font-family="Times,serif" font-size="14.00" fill="#000000">Koan 3</text>
</a>
</g>
</g>
<!-- Koan 2&#45;&#45;Koan 3 -->
<g id="edge51" class="edge">
<title>Koan 2&#45;&#45;Koan 3</title>
<path fill="none" stroke="#000000" d="M67.5,-1151.8314C67.5,-1141 67.5,-1127.2876 67.5,-1116.4133"/>
</g>
<!-- Koan 4 -->
<g id="node4" class="node">
<title>Koan 4</title>
<g id="a_node4"><a xlink:href="/koan/page/4" xlink:title="Koan 4">
<polygon fill="none" stroke="#000000" points="95.5,-1044 39.5,-1044 39.5,-1008 95.5,-1008 95.5,-1044"/>
<text text-anchor="middle" x="67.5" y="-1022.3" font-family="Times,serif" font-size="14.00" fill="#000000">Koan 4</text>
</a>
</g>
</g>
<!-- Koan 3&#45;&#45;Koan 4 -->
<g id="edge52" class="edge">
<title>Koan 3&#45;&#45;Koan 4</title>
<path fill="none" stroke="#000000" d="M67.5,-1079.8314C67.5,-1069 67.5,-1055.2876 67.5,-1044.4133"/>
</g>
<!-- Koan 5 -->
<g id="node5" class="node">
<title>Koan 5</title>
<g id="a_node5"><a xlink:href="/koan/page/5" xlink:title="Koan 5">
<polygon fill="none" stroke="#000000" points="95.5,-972 39.5,-972 39.5,-936 95.5,-936 95.5,-972"/>
<text text-anchor="middle" x="67.5" y="-950.3" font-family="Times,serif" font-size="14.00" fill="#000000">Koan 5</text>
</a>
</g>
</g>
<!-- Koan 4&#45;&#45;Koan 5 -->
<g id="edge53" class="edge">
<title>Koan 4&#45;&#45;Koan 5</title>
<path fill="none" stroke="#000000" d="M67.5,-1007.8314C67.5,-997 67.5,-983.2876 67.5,-972.4133"/>
</g>
<!-- Koan 6 -->
<g id="node6" class="node">
<title>Koan 6</title>
<g id="a_node6"><a xlink:href="/koan/page/6" xlink:title="Koan 6">
<polygon fill="none" stroke="#000000" points="95.5,-900 39.5,-900 39.5,-864 95.5,-864 95.5,-900"/>
<text text-anchor="middle" x="67.5" y="-878.3" font-family="Times,serif" font-size="14.00" fill="#000000">Koan 6</text>
</a>
</g>
</g>
<!-- Koan 5&#45;&#45;Koan 6 -->
<g id="edge54" class="edge">
<title>Koan 5&#45;&#45;Koan 6</title>
<path fill="none" stroke="#000000" d="M67.5,-935.8314C67.5,-925 67.5,-911.2876 67.5,-900.4133"/>
</g>
<!-- Manic notes 1 -->
<g id="node7" class="node">
<title>Manic notes 1</title>
<g id="a_node7"><a xlink:href="/mania/" xlink:title="Manic notes 1">
<polygon fill="none" stroke="#000000" points="95,-2268 0,-2268 0,-2232 95,-2232 95,-2268"/>
<text text-anchor="middle" x="47.5" y="-2246.3" font-family="Times,serif" font-size="14.00" fill="#000000">Manic notes 1</text>
</a>
</g>
</g>
<!-- Manic notes 2 -->
<g id="node8" class="node">
<title>Manic notes 2</title>
<g id="a_node8"><a xlink:href="/mania/page/2" xlink:title="Manic notes 2">
<polygon fill="none" stroke="#000000" points="95,-2196 0,-2196 0,-2160 95,-2160 95,-2196"/>
<text text-anchor="middle" x="47.5" y="-2174.3" font-family="Times,serif" font-size="14.00" fill="#000000">Manic notes 2</text>
</a>
</g>
</g>
<!-- Manic notes 1&#45;&#45;Manic notes 2 -->
<g id="edge30" class="edge">
<title>Manic notes 1&#45;&#45;Manic notes 2</title>
<path fill="none" stroke="#000000" d="M47.5,-2231.8314C47.5,-2221 47.5,-2207.2876 47.5,-2196.4133"/>
</g>
<!-- Manic notes 3 -->
<g id="node9" class="node">
<title>Manic notes 3</title>
<g id="a_node9"><a xlink:href="/mania/page/3" xlink:title="Manic notes 3">
<polygon fill="none" stroke="#000000" points="95,-2124 0,-2124 0,-2088 95,-2088 95,-2124"/>
<text text-anchor="middle" x="47.5" y="-2102.3" font-family="Times,serif" font-size="14.00" fill="#000000">Manic notes 3</text>
</a>
</g>
</g>
<!-- Manic notes 2&#45;&#45;Manic notes 3 -->
<g id="edge31" class="edge">
<title>Manic notes 2&#45;&#45;Manic notes 3</title>
<path fill="none" stroke="#000000" d="M47.5,-2159.8314C47.5,-2149 47.5,-2135.2876 47.5,-2124.4133"/>
</g>
<!-- Manic notes 4 -->
<g id="node10" class="node">
<title>Manic notes 4</title>
<g id="a_node10"><a xlink:href="/mania/page/4" xlink:title="Manic notes 4">
<polygon fill="none" stroke="#000000" points="95,-2052 0,-2052 0,-2016 95,-2016 95,-2052"/>
<text text-anchor="middle" x="47.5" y="-2030.3" font-family="Times,serif" font-size="14.00" fill="#000000">Manic notes 4</text>
</a>
</g>
</g>
<!-- Manic notes 3&#45;&#45;Manic notes 4 -->
<g id="edge32" class="edge">
<title>Manic notes 3&#45;&#45;Manic notes 4</title>
<path fill="none" stroke="#000000" d="M47.5,-2087.8314C47.5,-2077 47.5,-2063.2876 47.5,-2052.4133"/>
</g>
<!-- Manic notes 5 -->
<g id="node11" class="node">
<title>Manic notes 5</title>
<g id="a_node11"><a xlink:href="/mania/page/5" xlink:title="Manic notes 5">
<polygon fill="none" stroke="#000000" points="95,-1980 0,-1980 0,-1944 95,-1944 95,-1980"/>
<text text-anchor="middle" x="47.5" y="-1958.3" font-family="Times,serif" font-size="14.00" fill="#000000">Manic notes 5</text>
</a>
</g>
</g>
<!-- Manic notes 4&#45;&#45;Manic notes 5 -->
<g id="edge33" class="edge">
<title>Manic notes 4&#45;&#45;Manic notes 5</title>
<path fill="none" stroke="#000000" d="M47.5,-2015.8314C47.5,-2005 47.5,-1991.2876 47.5,-1980.4133"/>
</g>
<!-- Manic notes 6 -->
<g id="node12" class="node">
<title>Manic notes 6</title>
<g id="a_node12"><a xlink:href="/mania/page/6" xlink:title="Manic notes 6">
<polygon fill="none" stroke="#000000" points="95,-1908 0,-1908 0,-1872 95,-1872 95,-1908"/>
<text text-anchor="middle" x="47.5" y="-1886.3" font-family="Times,serif" font-size="14.00" fill="#000000">Manic notes 6</text>
</a>
</g>
</g>
<!-- Manic notes 5&#45;&#45;Manic notes 6 -->
<g id="edge34" class="edge">
<title>Manic notes 5&#45;&#45;Manic notes 6</title>
<path fill="none" stroke="#000000" d="M47.5,-1943.8314C47.5,-1933 47.5,-1919.2876 47.5,-1908.4133"/>
</g>
<!-- Manic notes 7 -->
<g id="node13" class="node">
<title>Manic notes 7</title>
<g id="a_node13"><a xlink:href="/mania/page/7" xlink:title="Manic notes 7">
<polygon fill="none" stroke="#000000" points="95,-1836 0,-1836 0,-1800 95,-1800 95,-1836"/>
<text text-anchor="middle" x="47.5" y="-1814.3" font-family="Times,serif" font-size="14.00" fill="#000000">Manic notes 7</text>
</a>
</g>
</g>
<!-- Manic notes 6&#45;&#45;Manic notes 7 -->
<g id="edge35" class="edge">
<title>Manic notes 6&#45;&#45;Manic notes 7</title>
<path fill="none" stroke="#000000" d="M47.5,-1871.8314C47.5,-1861 47.5,-1847.2876 47.5,-1836.4133"/>
</g>
<!-- Home -->
<g id="node14" class="node">
<title>Home</title>
<g id="a_node14"><a xlink:href="/" xlink:title="Home">
<polygon fill="none" stroke="#000000" points="170.5,-2844 116.5,-2844 116.5,-2808 170.5,-2808 170.5,-2844"/>
<text text-anchor="middle" x="143.5" y="-2822.3" font-family="Times,serif" font-size="14.00" fill="#000000">Home</text>
</a>
</g>
</g>
<!-- Core 1 -->
<g id="node15" class="node">
<title>Core 1</title>
<g id="a_node15"><a xlink:href="/core/" xlink:title="Core 1">
<polygon fill="none" stroke="#000000" points="170.5,-2772 116.5,-2772 116.5,-2736 170.5,-2736 170.5,-2772"/>
<text text-anchor="middle" x="143.5" y="-2750.3" font-family="Times,serif" font-size="14.00" fill="#000000">Core 1</text>
</a>
</g>
</g>
<!-- Home&#45;&#45;Core 1 -->
<g id="edge1" class="edge">
<title>Home&#45;&#45;Core 1</title>
<path fill="none" stroke="#000000" d="M143.5,-2807.8314C143.5,-2797 143.5,-2783.2876 143.5,-2772.4133"/>
</g>
<!-- Core 2 -->
<g id="node16" class="node">
<title>Core 2</title>
<g id="a_node16"><a xlink:href="/core/page/2" xlink:title="Core 2">
<polygon fill="none" stroke="#000000" points="170.5,-2700 116.5,-2700 116.5,-2664 170.5,-2664 170.5,-2700"/>
<text text-anchor="middle" x="143.5" y="-2678.3" font-family="Times,serif" font-size="14.00" fill="#000000">Core 2</text>
</a>
</g>
</g>
<!-- Core 1&#45;&#45;Core 2 -->
<g id="edge2" class="edge">
<title>Core 1&#45;&#45;Core 2</title>
<path fill="none" stroke="#000000" d="M143.5,-2735.8314C143.5,-2725 143.5,-2711.2876 143.5,-2700.4133"/>
</g>
<!-- Core 3 -->
<g id="node17" class="node">
<title>Core 3</title>
<g id="a_node17"><a xlink:href="/core/page/3" xlink:title="Core 3">
<polygon fill="none" stroke="#000000" points="170.5,-2628 116.5,-2628 116.5,-2592 170.5,-2592 170.5,-2628"/>
<text text-anchor="middle" x="143.5" y="-2606.3" font-family="Times,serif" font-size="14.00" fill="#000000">Core 3</text>
</a>
</g>
</g>
<!-- Core 2&#45;&#45;Core 3 -->
<g id="edge3" class="edge">
<title>Core 2&#45;&#45;Core 3</title>
<path fill="none" stroke="#000000" d="M143.5,-2663.8314C143.5,-2653 143.5,-2639.2876 143.5,-2628.4133"/>
</g>
<!-- Core 4 -->
<g id="node18" class="node">
<title>Core 4</title>
<g id="a_node18"><a xlink:href="/core/page/4" xlink:title="Core 4">
<polygon fill="none" stroke="#000000" points="170.5,-2556 116.5,-2556 116.5,-2520 170.5,-2520 170.5,-2556"/>
<text text-anchor="middle" x="143.5" y="-2534.3" font-family="Times,serif" font-size="14.00" fill="#000000">Core 4</text>
</a>
</g>
</g>
<!-- Core 3&#45;&#45;Core 4 -->
<g id="edge4" class="edge">
<title>Core 3&#45;&#45;Core 4</title>
<path fill="none" stroke="#000000" d="M143.5,-2591.8314C143.5,-2581 143.5,-2567.2876 143.5,-2556.4133"/>
</g>
<!-- Core 5 -->
<g id="node19" class="node">
<title>Core 5</title>
<g id="a_node19"><a xlink:href="/core/page/5" xlink:title="Core 5">
<polygon fill="none" stroke="#000000" points="170.5,-2484 116.5,-2484 116.5,-2448 170.5,-2448 170.5,-2484"/>
<text text-anchor="middle" x="143.5" y="-2462.3" font-family="Times,serif" font-size="14.00" fill="#000000">Core 5</text>
</a>
</g>
</g>
<!-- Core 4&#45;&#45;Core 5 -->
<g id="edge5" class="edge">
<title>Core 4&#45;&#45;Core 5</title>
<path fill="none" stroke="#000000" d="M143.5,-2519.8314C143.5,-2509 143.5,-2495.2876 143.5,-2484.4133"/>
</g>
<!-- Core 6 -->
<g id="node20" class="node">
<title>Core 6</title>
<g id="a_node20"><a xlink:href="/core/page/6" xlink:title="Core 6">
<polygon fill="none" stroke="#000000" points="170.5,-2412 116.5,-2412 116.5,-2376 170.5,-2376 170.5,-2412"/>
<text text-anchor="middle" x="143.5" y="-2390.3" font-family="Times,serif" font-size="14.00" fill="#000000">Core 6</text>
</a>
</g>
</g>
<!-- Core 5&#45;&#45;Core 6 -->
<g id="edge6" class="edge">
<title>Core 5&#45;&#45;Core 6</title>
<path fill="none" stroke="#000000" d="M143.5,-2447.8314C143.5,-2437 143.5,-2423.2876 143.5,-2412.4133"/>
</g>
<!-- Core 7 -->
<g id="node21" class="node">
<title>Core 7</title>
<g id="a_node21"><a xlink:href="/core/page/7" xlink:title="Core 7">
<polygon fill="none" stroke="#000000" points="170.5,-2340 116.5,-2340 116.5,-2304 170.5,-2304 170.5,-2340"/>
<text text-anchor="middle" x="143.5" y="-2318.3" font-family="Times,serif" font-size="14.00" fill="#000000">Core 7</text>
</a>
</g>
</g>
<!-- Core 6&#45;&#45;Core 7 -->
<g id="edge7" class="edge">
<title>Core 6&#45;&#45;Core 7</title>
<path fill="none" stroke="#000000" d="M143.5,-2375.8314C143.5,-2365 143.5,-2351.2876 143.5,-2340.4133"/>
</g>
<!-- Core 7&#45;&#45;Manic notes 1 -->
<g id="edge29" class="edge">
<title>Core 7&#45;&#45;Manic notes 1</title>
<path fill="none" stroke="#000000" d="M119.2751,-2303.8314C104.7223,-2292.9167 86.2686,-2279.0764 71.7171,-2268.1628"/>
</g>
<!-- Core 8 -->
<g id="node22" class="node">
<title>Core 8</title>
<g id="a_node22"><a xlink:href="/core/page/8" xlink:title="Core 8">
<polygon fill="none" stroke="#000000" points="170.5,-2268 116.5,-2268 116.5,-2232 170.5,-2232 170.5,-2268"/>
<text text-anchor="middle" x="143.5" y="-2246.3" font-family="Times,serif" font-size="14.00" fill="#000000">Core 8</text>
</a>
</g>
</g>
<!-- Core 7&#45;&#45;Core 8 -->
<g id="edge8" class="edge">
<title>Core 7&#45;&#45;Core 8</title>
<path fill="none" stroke="#000000" d="M143.5,-2303.8314C143.5,-2293 143.5,-2279.2876 143.5,-2268.4133"/>
</g>
<!-- Core 9 -->
<g id="node23" class="node">
<title>Core 9</title>
<g id="a_node23"><a xlink:href="/core/page/9" xlink:title="Core 9">
<polygon fill="none" stroke="#000000" points="170.5,-2196 116.5,-2196 116.5,-2160 170.5,-2160 170.5,-2196"/>
<text text-anchor="middle" x="143.5" y="-2174.3" font-family="Times,serif" font-size="14.00" fill="#000000">Core 9</text>
</a>
</g>
</g>
<!-- Core 8&#45;&#45;Core 9 -->
<g id="edge9" class="edge">
<title>Core 8&#45;&#45;Core 9</title>
<path fill="none" stroke="#000000" d="M143.5,-2231.8314C143.5,-2221 143.5,-2207.2876 143.5,-2196.4133"/>
</g>
<!-- Core 10 -->
<g id="node24" class="node">
<title>Core 10</title>
<g id="a_node24"><a xlink:href="/core/page/10" xlink:title="Core 10">
<polygon fill="none" stroke="#000000" points="173.5,-2124 113.5,-2124 113.5,-2088 173.5,-2088 173.5,-2124"/>
<text text-anchor="middle" x="143.5" y="-2102.3" font-family="Times,serif" font-size="14.00" fill="#000000">Core 10</text>
</a>
</g>
</g>
<!-- Core 9&#45;&#45;Core 10 -->
<g id="edge10" class="edge">
<title>Core 9&#45;&#45;Core 10</title>
<path fill="none" stroke="#000000" d="M143.5,-2159.8314C143.5,-2149 143.5,-2135.2876 143.5,-2124.4133"/>
</g>
<!-- Core 11 -->
<g id="node25" class="node">
<title>Core 11</title>
<g id="a_node25"><a xlink:href="/core/page/11" xlink:title="Core 11">
<polygon fill="none" stroke="#000000" points="173.5,-2052 113.5,-2052 113.5,-2016 173.5,-2016 173.5,-2052"/>
<text text-anchor="middle" x="143.5" y="-2030.3" font-family="Times,serif" font-size="14.00" fill="#000000">Core 11</text>
</a>
</g>
</g>
<!-- Core 10&#45;&#45;Core 11 -->
<g id="edge11" class="edge">
<title>Core 10&#45;&#45;Core 11</title>
<path fill="none" stroke="#000000" d="M143.5,-2087.8314C143.5,-2077 143.5,-2063.2876 143.5,-2052.4133"/>
</g>
<!-- Jay 1 -->
<g id="node43" class="node">
<title>Jay 1</title>
<g id="a_node43"><a xlink:href="/jay/" xlink:title="Jay 1">
<polygon fill="none" stroke="#000000" points="339.5,-2052 285.5,-2052 285.5,-2016 339.5,-2016 339.5,-2052"/>
<text text-anchor="middle" x="312.5" y="-2030.3" font-family="Times,serif" font-size="14.00" fill="#000000">Jay 1</text>
</a>
</g>
</g>
<!-- Core 10&#45;&#45;Jay 1 -->
<g id="edge36" class="edge">
<title>Core 10&#45;&#45;Jay 1</title>
<path fill="none" stroke="#000000" d="M173.7138,-2093.1278C205.4245,-2079.618 254.8234,-2058.5723 285.3384,-2045.5718"/>
</g>
<!-- Core 12 -->
<g id="node26" class="node">
<title>Core 12</title>
<g id="a_node26"><a xlink:href="/core/page/12" xlink:title="Core 12">
<polygon fill="none" stroke="#000000" points="173.5,-1980 113.5,-1980 113.5,-1944 173.5,-1944 173.5,-1980"/>
<text text-anchor="middle" x="143.5" y="-1958.3" font-family="Times,serif" font-size="14.00" fill="#000000">Core 12</text>
</a>
</g>
</g>
<!-- Core 11&#45;&#45;Core 12 -->
<g id="edge12" class="edge">
<title>Core 11&#45;&#45;Core 12</title>
<path fill="none" stroke="#000000" d="M143.5,-2015.8314C143.5,-2005 143.5,-1991.2876 143.5,-1980.4133"/>
</g>
<!-- Core 13 -->
<g id="node27" class="node">
<title>Core 13</title>
<g id="a_node27"><a xlink:href="/core/page/13" xlink:title="Core 13">
<polygon fill="none" stroke="#000000" points="173.5,-1908 113.5,-1908 113.5,-1872 173.5,-1872 173.5,-1908"/>
<text text-anchor="middle" x="143.5" y="-1886.3" font-family="Times,serif" font-size="14.00" fill="#000000">Core 13</text>
</a>
</g>
</g>
<!-- Core 12&#45;&#45;Core 13 -->
<g id="edge13" class="edge">
<title>Core 12&#45;&#45;Core 13</title>
<path fill="none" stroke="#000000" d="M143.5,-1943.8314C143.5,-1933 143.5,-1919.2876 143.5,-1908.4133"/>
</g>
<!-- Core 14 -->
<g id="node28" class="node">
<title>Core 14</title>
<g id="a_node28"><a xlink:href="/core/page/14" xlink:title="Core 14">
<polygon fill="none" stroke="#000000" points="173.5,-1404 113.5,-1404 113.5,-1368 173.5,-1368 173.5,-1404"/>
<text text-anchor="middle" x="143.5" y="-1382.3" font-family="Times,serif" font-size="14.00" fill="#000000">Core 14</text>
</a>
</g>
</g>
<!-- Core 13&#45;&#45;Core 14 -->
<g id="edge14" class="edge">
<title>Core 13&#45;&#45;Core 14</title>
<path fill="none" stroke="#000000" d="M143.5,-1871.8146C143.5,-1844.4983 143.5,-1791.25 143.5,-1746 143.5,-1746 143.5,-1746 143.5,-1530 143.5,-1484.75 143.5,-1431.5017 143.5,-1404.1854"/>
</g>
<!-- From within 1 -->
<g id="node49" class="node">
<title>From within 1</title>
<g id="a_node49"><a xlink:href="/from-within/" xlink:title="From within 1">
<polygon fill="none" stroke="#000000" points="267,-1836 172,-1836 172,-1800 267,-1800 267,-1836"/>
<text text-anchor="middle" x="219.5" y="-1814.3" font-family="Times,serif" font-size="14.00" fill="#000000">From within 1</text>
</a>
</g>
</g>
<!-- Core 13&#45;&#45;From within 1 -->
<g id="edge42" class="edge">
<title>Core 13&#45;&#45;From within 1</title>
<path fill="none" stroke="#000000" d="M162.678,-1871.8314C174.199,-1860.9167 188.8082,-1847.0764 200.3281,-1836.1628"/>
</g>
<!-- Core 15 -->
<g id="node29" class="node">
<title>Core 15</title>
<g id="a_node29"><a xlink:href="/core/page/15" xlink:title="Core 15">
<polygon fill="none" stroke="#000000" points="173.5,-1332 113.5,-1332 113.5,-1296 173.5,-1296 173.5,-1332"/>
<text text-anchor="middle" x="143.5" y="-1310.3" font-family="Times,serif" font-size="14.00" fill="#000000">Core 15</text>
</a>
</g>
</g>
<!-- Core 14&#45;&#45;Core 15 -->
<g id="edge15" class="edge">
<title>Core 14&#45;&#45;Core 15</title>
<path fill="none" stroke="#000000" d="M143.5,-1367.8314C143.5,-1357 143.5,-1343.2876 143.5,-1332.4133"/>
</g>
<!-- Core 15&#45;&#45;Koan 1 -->
<g id="edge49" class="edge">
<title>Core 15&#45;&#45;Koan 1</title>
<path fill="none" stroke="#000000" d="M124.322,-1295.8314C112.801,-1284.9167 98.1918,-1271.0764 86.6719,-1260.1628"/>
</g>
<!-- Core 16 -->
<g id="node30" class="node">
<title>Core 16</title>
<g id="a_node30"><a xlink:href="/core/page/16" xlink:title="Core 16">
<polygon fill="none" stroke="#000000" points="173.5,-1260 113.5,-1260 113.5,-1224 173.5,-1224 173.5,-1260"/>
<text text-anchor="middle" x="143.5" y="-1238.3" font-family="Times,serif" font-size="14.00" fill="#000000">Core 16</text>
</a>
</g>
</g>
<!-- Core 15&#45;&#45;Core 16 -->
<g id="edge16" class="edge">
<title>Core 15&#45;&#45;Core 16</title>
<path fill="none" stroke="#000000" d="M143.5,-1295.8314C143.5,-1285 143.5,-1271.2876 143.5,-1260.4133"/>
</g>
<!-- Core 17 -->
<g id="node31" class="node">
<title>Core 17</title>
<g id="a_node31"><a xlink:href="/core/page/17" xlink:title="Core 17">
<polygon fill="none" stroke="#000000" points="173.5,-1188 113.5,-1188 113.5,-1152 173.5,-1152 173.5,-1188"/>
<text text-anchor="middle" x="143.5" y="-1166.3" font-family="Times,serif" font-size="14.00" fill="#000000">Core 17</text>
</a>
</g>
</g>
<!-- Core 16&#45;&#45;Core 17 -->
<g id="edge17" class="edge">
<title>Core 16&#45;&#45;Core 17</title>
<path fill="none" stroke="#000000" d="M143.5,-1223.8314C143.5,-1213 143.5,-1199.2876 143.5,-1188.4133"/>
</g>
<!-- Fursoñas 1 -->
<g id="node55" class="node">
<title>Fursoñas 1</title>
<g id="a_node55"><a xlink:href="/fursona/" xlink:title="Fursoñas 1">
<polygon fill="none" stroke="#000000" points="345.5,-1188 269.5,-1188 269.5,-1152 345.5,-1152 345.5,-1188"/>
<text text-anchor="middle" x="307.5" y="-1166.3" font-family="Times,serif" font-size="14.00" fill="#000000">Fursoñas 1</text>
</a>
</g>
</g>
<!-- Core 16&#45;&#45;Fursoñas 1 -->
<g id="edge55" class="edge">
<title>Core 16&#45;&#45;Fursoñas 1</title>
<path fill="none" stroke="#000000" d="M173.5801,-1228.7941C200.4893,-1216.9803 240.0708,-1199.6031 269.2272,-1186.8027"/>
</g>
<!-- Core 18 -->
<g id="node32" class="node">
<title>Core 18</title>
<g id="a_node32"><a xlink:href="/core/page/18" xlink:title="Core 18">
<polygon fill="none" stroke="#000000" points="173.5,-1116 113.5,-1116 113.5,-1080 173.5,-1080 173.5,-1116"/>
<text text-anchor="middle" x="143.5" y="-1094.3" font-family="Times,serif" font-size="14.00" fill="#000000">Core 18</text>
</a>
</g>
</g>
<!-- Core 17&#45;&#45;Core 18 -->
<g id="edge18" class="edge">
<title>Core 17&#45;&#45;Core 18</title>
<path fill="none" stroke="#000000" d="M143.5,-1151.8314C143.5,-1141 143.5,-1127.2876 143.5,-1116.4133"/>
</g>
<!-- Core 19 -->
<g id="node33" class="node">
<title>Core 19</title>
<g id="a_node33"><a xlink:href="/core/page/19" xlink:title="Core 19">
<polygon fill="none" stroke="#000000" points="173.5,-1044 113.5,-1044 113.5,-1008 173.5,-1008 173.5,-1044"/>
<text text-anchor="middle" x="143.5" y="-1022.3" font-family="Times,serif" font-size="14.00" fill="#000000">Core 19</text>
</a>
</g>
</g>
<!-- Core 18&#45;&#45;Core 19 -->
<g id="edge19" class="edge">
<title>Core 18&#45;&#45;Core 19</title>
<path fill="none" stroke="#000000" d="M143.5,-1079.8314C143.5,-1069 143.5,-1055.2876 143.5,-1044.4133"/>
</g>
<!-- Core 20 -->
<g id="node34" class="node">
<title>Core 20</title>
<g id="a_node34"><a xlink:href="/core/page/20" xlink:title="Core 20">
<polygon fill="none" stroke="#000000" points="173.5,-972 113.5,-972 113.5,-936 173.5,-936 173.5,-972"/>
<text text-anchor="middle" x="143.5" y="-950.3" font-family="Times,serif" font-size="14.00" fill="#000000">Core 20</text>
</a>
</g>
</g>
<!-- Core 19&#45;&#45;Core 20 -->
<g id="edge20" class="edge">
<title>Core 19&#45;&#45;Core 20</title>
<path fill="none" stroke="#000000" d="M143.5,-1007.8314C143.5,-997 143.5,-983.2876 143.5,-972.4133"/>
</g>
<!-- Core 21 -->
<g id="node35" class="node">
<title>Core 21</title>
<g id="a_node35"><a xlink:href="/core/page/21" xlink:title="Core 21">
<polygon fill="none" stroke="#000000" points="173.5,-540 113.5,-540 113.5,-504 173.5,-504 173.5,-540"/>
<text text-anchor="middle" x="143.5" y="-518.3" font-family="Times,serif" font-size="14.00" fill="#000000">Core 21</text>
</a>
</g>
</g>
<!-- Core 20&#45;&#45;Core 21 -->
<g id="edge21" class="edge">
<title>Core 20&#45;&#45;Core 21</title>
<path fill="none" stroke="#000000" d="M143.5,-935.8146C143.5,-908.4983 143.5,-855.25 143.5,-810 143.5,-810 143.5,-810 143.5,-666 143.5,-620.75 143.5,-567.5017 143.5,-540.1854"/>
</g>
<!-- Margaras 1 -->
<g id="node63" class="node">
<title>Margaras 1</title>
<g id="a_node63"><a xlink:href="/margaras" xlink:title="Margaras 1">
<polygon fill="none" stroke="#000000" points="251,-900 172,-900 172,-864 251,-864 251,-900"/>
<text text-anchor="middle" x="211.5" y="-878.3" font-family="Times,serif" font-size="14.00" fill="#000000">Margaras 1</text>
</a>
</g>
</g>
<!-- Core 20&#45;&#45;Margaras 1 -->
<g id="edge63" class="edge">
<title>Core 20&#45;&#45;Margaras 1</title>
<path fill="none" stroke="#000000" d="M160.6593,-935.8314C170.8889,-925 183.8395,-911.2876 194.1097,-900.4133"/>
</g>
<!-- Core 22 -->
<g id="node36" class="node">
<title>Core 22</title>
<g id="a_node36"><a xlink:href="/core/page/22" xlink:title="Core 22">
<polygon fill="none" stroke="#000000" points="173.5,-468 113.5,-468 113.5,-432 173.5,-432 173.5,-468"/>
<text text-anchor="middle" x="143.5" y="-446.3" font-family="Times,serif" font-size="14.00" fill="#000000">Core 22</text>
</a>
</g>
</g>
<!-- Core 21&#45;&#45;Core 22 -->
<g id="edge22" class="edge">
<title>Core 21&#45;&#45;Core 22</title>
<path fill="none" stroke="#000000" d="M143.5,-503.8314C143.5,-493 143.5,-479.2876 143.5,-468.4133"/>
</g>
<!-- Core 23 -->
<g id="node37" class="node">
<title>Core 23</title>
<g id="a_node37"><a xlink:href="/core/page/23" xlink:title="Core 23">
<polygon fill="none" stroke="#000000" points="173.5,-396 113.5,-396 113.5,-360 173.5,-360 173.5,-396"/>
<text text-anchor="middle" x="143.5" y="-374.3" font-family="Times,serif" font-size="14.00" fill="#000000">Core 23</text>
</a>
</g>
</g>
<!-- Core 22&#45;&#45;Core 23 -->
<g id="edge23" class="edge">
<title>Core 22&#45;&#45;Core 23</title>
<path fill="none" stroke="#000000" d="M143.5,-431.8314C143.5,-421 143.5,-407.2876 143.5,-396.4133"/>
</g>
<!-- Core 24 -->
<g id="node38" class="node">
<title>Core 24</title>
<g id="a_node38"><a xlink:href="/core/page/24" xlink:title="Core 24">
<polygon fill="none" stroke="#000000" points="173.5,-324 113.5,-324 113.5,-288 173.5,-288 173.5,-324"/>
<text text-anchor="middle" x="143.5" y="-302.3" font-family="Times,serif" font-size="14.00" fill="#000000">Core 24</text>
</a>
</g>
</g>
<!-- Core 23&#45;&#45;Core 24 -->
<g id="edge24" class="edge">
<title>Core 23&#45;&#45;Core 24</title>
<path fill="none" stroke="#000000" d="M143.5,-359.8314C143.5,-349 143.5,-335.2876 143.5,-324.4133"/>
</g>
<!-- Core 25 -->
<g id="node39" class="node">
<title>Core 25</title>
<g id="a_node39"><a xlink:href="/core/page/25" xlink:title="Core 25">
<polygon fill="none" stroke="#000000" points="173.5,-252 113.5,-252 113.5,-216 173.5,-216 173.5,-252"/>
<text text-anchor="middle" x="143.5" y="-230.3" font-family="Times,serif" font-size="14.00" fill="#000000">Core 25</text>
</a>
</g>
</g>
<!-- Core 24&#45;&#45;Core 25 -->
<g id="edge25" class="edge">
<title>Core 24&#45;&#45;Core 25</title>
<path fill="none" stroke="#000000" d="M143.5,-287.8314C143.5,-277 143.5,-263.2876 143.5,-252.4133"/>
</g>
<!-- Core 26 -->
<g id="node40" class="node">
<title>Core 26</title>
<g id="a_node40"><a xlink:href="/core/page/26" xlink:title="Core 26">
<polygon fill="none" stroke="#000000" points="173.5,-180 113.5,-180 113.5,-144 173.5,-144 173.5,-180"/>
<text text-anchor="middle" x="143.5" y="-158.3" font-family="Times,serif" font-size="14.00" fill="#000000">Core 26</text>
</a>
</g>
</g>
<!-- Core 25&#45;&#45;Core 26 -->
<g id="edge26" class="edge">
<title>Core 25&#45;&#45;Core 26</title>
<path fill="none" stroke="#000000" d="M143.5,-215.8314C143.5,-205 143.5,-191.2876 143.5,-180.4133"/>
</g>
<!-- Core 27 -->
<g id="node41" class="node">
<title>Core 27</title>
<g id="a_node41"><a xlink:href="/core/page/27" xlink:title="Core 27">
<polygon fill="none" stroke="#000000" points="173.5,-108 113.5,-108 113.5,-72 173.5,-72 173.5,-108"/>
<text text-anchor="middle" x="143.5" y="-86.3" font-family="Times,serif" font-size="14.00" fill="#000000">Core 27</text>
</a>
</g>
</g>
<!-- Core 26&#45;&#45;Core 27 -->
<g id="edge27" class="edge">
<title>Core 26&#45;&#45;Core 27</title>
<path fill="none" stroke="#000000" d="M143.5,-143.8314C143.5,-133 143.5,-119.2876 143.5,-108.4133"/>
</g>
<!-- To be continued... -->
<g id="node42" class="node">
<title>To be continued...</title>
<text text-anchor="middle" x="143.5" y="-14.3" font-family="Times,serif" font-size="14.00" fill="#000000">To be continued...</text>
</g>
<!-- Core 27&#45;&#45;To be continued... -->
<g id="edge28" class="edge">
<title>Core 27&#45;&#45;To be continued...</title>
<path fill="none" stroke="#000000" d="M143.5,-71.8314C143.5,-61 143.5,-47.2876 143.5,-36.4133"/>
</g>
<!-- Jay 2 -->
<g id="node44" class="node">
<title>Jay 2</title>
<g id="a_node44"><a xlink:href="/jay/page/2" xlink:title="Jay 2">
<polygon fill="none" stroke="#000000" points="339.5,-1980 285.5,-1980 285.5,-1944 339.5,-1944 339.5,-1980"/>
<text text-anchor="middle" x="312.5" y="-1958.3" font-family="Times,serif" font-size="14.00" fill="#000000">Jay 2</text>
</a>
</g>
</g>
<!-- Jay 1&#45;&#45;Jay 2 -->
<g id="edge37" class="edge">
<title>Jay 1&#45;&#45;Jay 2</title>
<path fill="none" stroke="#000000" d="M312.5,-2015.8314C312.5,-2005 312.5,-1991.2876 312.5,-1980.4133"/>
</g>
<!-- Jay 3 -->
<g id="node45" class="node">
<title>Jay 3</title>
<g id="a_node45"><a xlink:href="/jay/page/3" xlink:title="Jay 3">
<polygon fill="none" stroke="#000000" points="339.5,-1908 285.5,-1908 285.5,-1872 339.5,-1872 339.5,-1908"/>
<text text-anchor="middle" x="312.5" y="-1886.3" font-family="Times,serif" font-size="14.00" fill="#000000">Jay 3</text>
</a>
</g>
</g>
<!-- Jay 2&#45;&#45;Jay 3 -->
<g id="edge38" class="edge">
<title>Jay 2&#45;&#45;Jay 3</title>
<path fill="none" stroke="#000000" d="M312.5,-1943.8314C312.5,-1933 312.5,-1919.2876 312.5,-1908.4133"/>
</g>
<!-- Jay 4 -->
<g id="node46" class="node">
<title>Jay 4</title>
<g id="a_node46"><a xlink:href="/jay/page/4" xlink:title="Jay 4">
<polygon fill="none" stroke="#000000" points="339.5,-1836 285.5,-1836 285.5,-1800 339.5,-1800 339.5,-1836"/>
<text text-anchor="middle" x="312.5" y="-1814.3" font-family="Times,serif" font-size="14.00" fill="#000000">Jay 4</text>
</a>
</g>
</g>
<!-- Jay 3&#45;&#45;Jay 4 -->
<g id="edge39" class="edge">
<title>Jay 3&#45;&#45;Jay 4</title>
<path fill="none" stroke="#000000" d="M312.5,-1871.8314C312.5,-1861 312.5,-1847.2876 312.5,-1836.4133"/>
</g>
<!-- Jay 5 -->
<g id="node47" class="node">
<title>Jay 5</title>
<g id="a_node47"><a xlink:href="/jay/page/5" xlink:title="Jay 5">
<polygon fill="none" stroke="#000000" points="339.5,-1764 285.5,-1764 285.5,-1728 339.5,-1728 339.5,-1764"/>
<text text-anchor="middle" x="312.5" y="-1742.3" font-family="Times,serif" font-size="14.00" fill="#000000">Jay 5</text>
</a>
</g>
</g>
<!-- Jay 4&#45;&#45;Jay 5 -->
<g id="edge40" class="edge">
<title>Jay 4&#45;&#45;Jay 5</title>
<path fill="none" stroke="#000000" d="M312.5,-1799.8314C312.5,-1789 312.5,-1775.2876 312.5,-1764.4133"/>
</g>
<!-- Jay 6 -->
<g id="node48" class="node">
<title>Jay 6</title>
<g id="a_node48"><a xlink:href="/jay/page/6" xlink:title="Jay 6">
<polygon fill="none" stroke="#000000" points="339.5,-1692 285.5,-1692 285.5,-1656 339.5,-1656 339.5,-1692"/>
<text text-anchor="middle" x="312.5" y="-1670.3" font-family="Times,serif" font-size="14.00" fill="#000000">Jay 6</text>
</a>
</g>
</g>
<!-- Jay 5&#45;&#45;Jay 6 -->
<g id="edge41" class="edge">
<title>Jay 5&#45;&#45;Jay 6</title>
<path fill="none" stroke="#000000" d="M312.5,-1727.8314C312.5,-1717 312.5,-1703.2876 312.5,-1692.4133"/>
</g>
<!-- From within 2 -->
<g id="node50" class="node">
<title>From within 2</title>
<g id="a_node50"><a xlink:href="/from-within/2" xlink:title="From within 2">
<polygon fill="none" stroke="#000000" points="267,-1764 172,-1764 172,-1728 267,-1728 267,-1764"/>
<text text-anchor="middle" x="219.5" y="-1742.3" font-family="Times,serif" font-size="14.00" fill="#000000">From within 2</text>
</a>
</g>
</g>
<!-- From within 1&#45;&#45;From within 2 -->
<g id="edge43" class="edge">
<title>From within 1&#45;&#45;From within 2</title>
<path fill="none" stroke="#000000" d="M219.5,-1799.8314C219.5,-1789 219.5,-1775.2876 219.5,-1764.4133"/>
</g>
<!-- From within 3 -->
<g id="node51" class="node">
<title>From within 3</title>
<g id="a_node51"><a xlink:href="/from-within/3" xlink:title="From within 3">
<polygon fill="none" stroke="#000000" points="267,-1692 172,-1692 172,-1656 267,-1656 267,-1692"/>
<text text-anchor="middle" x="219.5" y="-1670.3" font-family="Times,serif" font-size="14.00" fill="#000000">From within 3</text>
</a>
</g>
</g>
<!-- From within 2&#45;&#45;From within 3 -->
<g id="edge44" class="edge">
<title>From within 2&#45;&#45;From within 3</title>
<path fill="none" stroke="#000000" d="M219.5,-1727.8314C219.5,-1717 219.5,-1703.2876 219.5,-1692.4133"/>
</g>
<!-- From within 4 -->
<g id="node52" class="node">
<title>From within 4</title>
<g id="a_node52"><a xlink:href="/from-within/4" xlink:title="From within 4">
<polygon fill="none" stroke="#000000" points="267,-1620 172,-1620 172,-1584 267,-1584 267,-1620"/>
<text text-anchor="middle" x="219.5" y="-1598.3" font-family="Times,serif" font-size="14.00" fill="#000000">From within 4</text>
</a>
</g>
</g>
<!-- From within 3&#45;&#45;From within 4 -->
<g id="edge45" class="edge">
<title>From within 3&#45;&#45;From within 4</title>
<path fill="none" stroke="#000000" d="M219.5,-1655.8314C219.5,-1645 219.5,-1631.2876 219.5,-1620.4133"/>
</g>
<!-- From within 5 -->
<g id="node53" class="node">
<title>From within 5</title>
<g id="a_node53"><a xlink:href="/from-within/5" xlink:title="From within 5">
<polygon fill="none" stroke="#000000" points="267,-1548 172,-1548 172,-1512 267,-1512 267,-1548"/>
<text text-anchor="middle" x="219.5" y="-1526.3" font-family="Times,serif" font-size="14.00" fill="#000000">From within 5</text>
</a>
</g>
</g>
<!-- From within 4&#45;&#45;From within 5 -->
<g id="edge46" class="edge">
<title>From within 4&#45;&#45;From within 5</title>
<path fill="none" stroke="#000000" d="M219.5,-1583.8314C219.5,-1573 219.5,-1559.2876 219.5,-1548.4133"/>
</g>
<!-- From within 6 -->
<g id="node54" class="node">
<title>From within 6</title>
<g id="a_node54"><a xlink:href="/from-within/i-guess.." xlink:title="From within 6">
<polygon fill="none" stroke="#000000" points="267,-1476 172,-1476 172,-1440 267,-1440 267,-1476"/>
<text text-anchor="middle" x="219.5" y="-1454.3" font-family="Times,serif" font-size="14.00" fill="#000000">From within 6</text>
</a>
</g>
</g>
<!-- From within 5&#45;&#45;From within 6 -->
<g id="edge47" class="edge">
<title>From within 5&#45;&#45;From within 6</title>
<path fill="none" stroke="#000000" d="M219.5,-1511.8314C219.5,-1501 219.5,-1487.2876 219.5,-1476.4133"/>
</g>
<!-- From within 6&#45;&#45;Core 14 -->
<g id="edge48" class="edge">
<title>From within 6&#45;&#45;Core 14</title>
<path fill="none" stroke="#000000" d="M200.322,-1439.8314C188.801,-1428.9167 174.1918,-1415.0764 162.6719,-1404.1628"/>
</g>
<!-- Fursoñas 2 -->
<g id="node56" class="node">
<title>Fursoñas 2</title>
<g id="a_node56"><a xlink:href="/fursona/page/2" xlink:title="Fursoñas 2">
<polygon fill="none" stroke="#000000" points="345.5,-1116 269.5,-1116 269.5,-1080 345.5,-1080 345.5,-1116"/>
<text text-anchor="middle" x="307.5" y="-1094.3" font-family="Times,serif" font-size="14.00" fill="#000000">Fursoñas 2</text>
</a>
</g>
</g>
<!-- Fursoñas 1&#45;&#45;Fursoñas 2 -->
<g id="edge56" class="edge">
<title>Fursoñas 1&#45;&#45;Fursoñas 2</title>
<path fill="none" stroke="#000000" d="M307.5,-1151.8314C307.5,-1141 307.5,-1127.2876 307.5,-1116.4133"/>
</g>
<!-- Fursoñas 3 -->
<g id="node57" class="node">
<title>Fursoñas 3</title>
<g id="a_node57"><a xlink:href="/fursona/page/3" xlink:title="Fursoñas 3">
<polygon fill="none" stroke="#000000" points="345.5,-1044 269.5,-1044 269.5,-1008 345.5,-1008 345.5,-1044"/>
<text text-anchor="middle" x="307.5" y="-1022.3" font-family="Times,serif" font-size="14.00" fill="#000000">Fursoñas 3</text>
</a>
</g>
</g>
<!-- Fursoñas 2&#45;&#45;Fursoñas 3 -->
<g id="edge57" class="edge">
<title>Fursoñas 2&#45;&#45;Fursoñas 3</title>
<path fill="none" stroke="#000000" d="M307.5,-1079.8314C307.5,-1069 307.5,-1055.2876 307.5,-1044.4133"/>
</g>
<!-- Fursoñas 4 -->
<g id="node58" class="node">
<title>Fursoñas 4</title>
<g id="a_node58"><a xlink:href="/fursona/page/4" xlink:title="Fursoñas 4">
<polygon fill="none" stroke="#000000" points="345.5,-972 269.5,-972 269.5,-936 345.5,-936 345.5,-972"/>
<text text-anchor="middle" x="307.5" y="-950.3" font-family="Times,serif" font-size="14.00" fill="#000000">Fursoñas 4</text>
</a>
</g>
</g>
<!-- Fursoñas 3&#45;&#45;Fursoñas 4 -->
<g id="edge58" class="edge">
<title>Fursoñas 3&#45;&#45;Fursoñas 4</title>
<path fill="none" stroke="#000000" d="M307.5,-1007.8314C307.5,-997 307.5,-983.2876 307.5,-972.4133"/>
</g>
<!-- Fursoñas 5 -->
<g id="node59" class="node">
<title>Fursoñas 5</title>
<g id="a_node59"><a xlink:href="/fursona/page/5" xlink:title="Fursoñas 5">
<polygon fill="none" stroke="#000000" points="345.5,-900 269.5,-900 269.5,-864 345.5,-864 345.5,-900"/>
<text text-anchor="middle" x="307.5" y="-878.3" font-family="Times,serif" font-size="14.00" fill="#000000">Fursoñas 5</text>
</a>
</g>
</g>
<!-- Fursoñas 4&#45;&#45;Fursoñas 5 -->
<g id="edge59" class="edge">
<title>Fursoñas 4&#45;&#45;Fursoñas 5</title>
<path fill="none" stroke="#000000" d="M307.5,-935.8314C307.5,-925 307.5,-911.2876 307.5,-900.4133"/>
</g>
<!-- Fursoñas 6 -->
<g id="node60" class="node">
<title>Fursoñas 6</title>
<g id="a_node60"><a xlink:href="/fursona/page/6" xlink:title="Fursoñas 6">
<polygon fill="none" stroke="#000000" points="345.5,-828 269.5,-828 269.5,-792 345.5,-792 345.5,-828"/>
<text text-anchor="middle" x="307.5" y="-806.3" font-family="Times,serif" font-size="14.00" fill="#000000">Fursoñas 6</text>
</a>
</g>
</g>
<!-- Fursoñas 5&#45;&#45;Fursoñas 6 -->
<g id="edge60" class="edge">
<title>Fursoñas 5&#45;&#45;Fursoñas 6</title>
<path fill="none" stroke="#000000" d="M307.5,-863.8314C307.5,-853 307.5,-839.2876 307.5,-828.4133"/>
</g>
<!-- Fursoñas 7 -->
<g id="node61" class="node">
<title>Fursoñas 7</title>
<g id="a_node61"><a xlink:href="/fursona/page/7" xlink:title="Fursoñas 7">
<polygon fill="none" stroke="#000000" points="345.5,-756 269.5,-756 269.5,-720 345.5,-720 345.5,-756"/>
<text text-anchor="middle" x="307.5" y="-734.3" font-family="Times,serif" font-size="14.00" fill="#000000">Fursoñas 7</text>
</a>
</g>
</g>
<!-- Fursoñas 6&#45;&#45;Fursoñas 7 -->
<g id="edge61" class="edge">
<title>Fursoñas 6&#45;&#45;Fursoñas 7</title>
<path fill="none" stroke="#000000" d="M307.5,-791.8314C307.5,-781 307.5,-767.2876 307.5,-756.4133"/>
</g>
<!-- Fursoñas 8 -->
<g id="node62" class="node">
<title>Fursoñas 8</title>
<g id="a_node62"><a xlink:href="/fursona/page/8" xlink:title="Fursoñas 8">
<polygon fill="none" stroke="#000000" points="345.5,-684 269.5,-684 269.5,-648 345.5,-648 345.5,-684"/>
<text text-anchor="middle" x="307.5" y="-662.3" font-family="Times,serif" font-size="14.00" fill="#000000">Fursoñas 8</text>
</a>
</g>
</g>
<!-- Fursoñas 7&#45;&#45;Fursoñas 8 -->
<g id="edge62" class="edge">
<title>Fursoñas 7&#45;&#45;Fursoñas 8</title>
<path fill="none" stroke="#000000" d="M307.5,-719.8314C307.5,-709 307.5,-695.2876 307.5,-684.4133"/>
</g>
<!-- Margaras 2 -->
<g id="node64" class="node">
<title>Margaras 2</title>
<g id="a_node64"><a xlink:href="/margaras/page/2" xlink:title="Margaras 2">
<polygon fill="none" stroke="#000000" points="251,-828 172,-828 172,-792 251,-792 251,-828"/>
<text text-anchor="middle" x="211.5" y="-806.3" font-family="Times,serif" font-size="14.00" fill="#000000">Margaras 2</text>
</a>
</g>
</g>
<!-- Margaras 1&#45;&#45;Margaras 2 -->
<g id="edge64" class="edge">
<title>Margaras 1&#45;&#45;Margaras 2</title>
<path fill="none" stroke="#000000" d="M211.5,-863.8314C211.5,-853 211.5,-839.2876 211.5,-828.4133"/>
</g>
<!-- Margaras 3 -->
<g id="node65" class="node">
<title>Margaras 3</title>
<g id="a_node65"><a xlink:href="/margaras/page/3" xlink:title="Margaras 3">
<polygon fill="none" stroke="#000000" points="251,-756 172,-756 172,-720 251,-720 251,-756"/>
<text text-anchor="middle" x="211.5" y="-734.3" font-family="Times,serif" font-size="14.00" fill="#000000">Margaras 3</text>
</a>
</g>
</g>
<!-- Margaras 2&#45;&#45;Margaras 3 -->
<g id="edge65" class="edge">
<title>Margaras 2&#45;&#45;Margaras 3</title>
<path fill="none" stroke="#000000" d="M211.5,-791.8314C211.5,-781 211.5,-767.2876 211.5,-756.4133"/>
</g>
<!-- Margaras 4 -->
<g id="node66" class="node">
<title>Margaras 4</title>
<g id="a_node66"><a xlink:href="/margaras/page/4" xlink:title="Margaras 4">
<polygon fill="none" stroke="#000000" points="251,-684 172,-684 172,-648 251,-648 251,-684"/>
<text text-anchor="middle" x="211.5" y="-662.3" font-family="Times,serif" font-size="14.00" fill="#000000">Margaras 4</text>
</a>
</g>
</g>
<!-- Margaras 3&#45;&#45;Margaras 4 -->
<g id="edge66" class="edge">
<title>Margaras 3&#45;&#45;Margaras 4</title>
<path fill="none" stroke="#000000" d="M211.5,-719.8314C211.5,-709 211.5,-695.2876 211.5,-684.4133"/>
</g>
<!-- Margaras 5 -->
<g id="node67" class="node">
<title>Margaras 5</title>
<g id="a_node67"><a xlink:href="/margaras/page/5" xlink:title="Margaras 5">
<polygon fill="none" stroke="#000000" points="251,-612 172,-612 172,-576 251,-576 251,-612"/>
<text text-anchor="middle" x="211.5" y="-590.3" font-family="Times,serif" font-size="14.00" fill="#000000">Margaras 5</text>
</a>
</g>
</g>
<!-- Margaras 4&#45;&#45;Margaras 5 -->
<g id="edge67" class="edge">
<title>Margaras 4&#45;&#45;Margaras 5</title>
<path fill="none" stroke="#000000" d="M211.5,-647.8314C211.5,-637 211.5,-623.2876 211.5,-612.4133"/>
</g>
<!-- Margaras 5&#45;&#45;Core 21 -->
<g id="edge68" class="edge">
<title>Margaras 5&#45;&#45;Core 21</title>
<path fill="none" stroke="#000000" d="M194.3407,-575.8314C184.1111,-565 171.1605,-551.2876 160.8903,-540.4133"/>
</g>
</g>
</svg>
