<?xml version="1.0" encoding="UTF-8" standalone="no"?>
<!DOCTYPE svg PUBLIC "-//W3C//DTD SVG 1.1//EN"
 "http://www.w3.org/Graphics/SVG/1.1/DTD/svg11.dtd">
<!-- Generated by graphviz version 2.40.1 (20161225.0304)
 -->
<!-- Title: Map Pages: 1 -->
<svg width="428pt" height="3068pt"
 viewBox="0.00 0.00 427.50 3068.00" xmlns="http://www.w3.org/2000/svg" xmlns:xlink="http://www.w3.org/1999/xlink">
<g id="graph0" class="graph" transform="scale(1 1) rotate(0) translate(4 3064)">
<title>Map</title>
<polygon fill="#ffffff" stroke="transparent" points="-4,4 -4,-3064 423.5,-3064 423.5,4 -4,4"/>
<!-- Koan 1 -->
<g id="node1" class="node">
<title>Koan 1</title>
<g id="a_node1"><a xlink:href="/koan/" xlink:title="Koan 1">
<polygon fill="none" stroke="#000000" points="169.5,-1476 113.5,-1476 113.5,-1440 169.5,-1440 169.5,-1476"/>
<text text-anchor="middle" x="141.5" y="-1454.3" font-family="Times,serif" font-size="14.00" fill="#000000">Koan 1</text>
</a>
</g>
</g>
<!-- Koan 2 -->
<g id="node2" class="node">
<title>Koan 2</title>
<g id="a_node2"><a xlink:href="/koan/page/2" xlink:title="Koan 2">
<polygon fill="none" stroke="#000000" points="169.5,-1404 113.5,-1404 113.5,-1368 169.5,-1368 169.5,-1404"/>
<text text-anchor="middle" x="141.5" y="-1382.3" font-family="Times,serif" font-size="14.00" fill="#000000">Koan 2</text>
</a>
</g>
</g>
<!-- Koan 1&#45;&#45;Koan 2 -->
<g id="edge57" class="edge">
<title>Koan 1&#45;&#45;Koan 2</title>
<path fill="none" stroke="#000000" d="M141.5,-1439.8314C141.5,-1429 141.5,-1415.2876 141.5,-1404.4133"/>
</g>
<!-- Koan 3 -->
<g id="node3" class="node">
<title>Koan 3</title>
<g id="a_node3"><a xlink:href="/koan/page/3" xlink:title="Koan 3">
<polygon fill="none" stroke="#000000" points="169.5,-1332 113.5,-1332 113.5,-1296 169.5,-1296 169.5,-1332"/>
<text text-anchor="middle" x="141.5" y="-1310.3" font-family="Times,serif" font-size="14.00" fill="#000000">Koan 3</text>
</a>
</g>
</g>
<!-- Koan 2&#45;&#45;Koan 3 -->
<g id="edge58" class="edge">
<title>Koan 2&#45;&#45;Koan 3</title>
<path fill="none" stroke="#000000" d="M141.5,-1367.8314C141.5,-1357 141.5,-1343.2876 141.5,-1332.4133"/>
</g>
<!-- Koan 4 -->
<g id="node4" class="node">
<title>Koan 4</title>
<g id="a_node4"><a xlink:href="/koan/page/4" xlink:title="Koan 4">
<polygon fill="none" stroke="#000000" points="169.5,-1260 113.5,-1260 113.5,-1224 169.5,-1224 169.5,-1260"/>
<text text-anchor="middle" x="141.5" y="-1238.3" font-family="Times,serif" font-size="14.00" fill="#000000">Koan 4</text>
</a>
</g>
</g>
<!-- Koan 3&#45;&#45;Koan 4 -->
<g id="edge59" class="edge">
<title>Koan 3&#45;&#45;Koan 4</title>
<path fill="none" stroke="#000000" d="M141.5,-1295.8314C141.5,-1285 141.5,-1271.2876 141.5,-1260.4133"/>
</g>
<!-- Koan 5 -->
<g id="node5" class="node">
<title>Koan 5</title>
<g id="a_node5"><a xlink:href="/koan/page/5" xlink:title="Koan 5">
<polygon fill="none" stroke="#000000" points="169.5,-1188 113.5,-1188 113.5,-1152 169.5,-1152 169.5,-1188"/>
<text text-anchor="middle" x="141.5" y="-1166.3" font-family="Times,serif" font-size="14.00" fill="#000000">Koan 5</text>
</a>
</g>
</g>
<!-- Koan 4&#45;&#45;Koan 5 -->
<g id="edge60" class="edge">
<title>Koan 4&#45;&#45;Koan 5</title>
<path fill="none" stroke="#000000" d="M141.5,-1223.8314C141.5,-1213 141.5,-1199.2876 141.5,-1188.4133"/>
</g>
<!-- Koan 6 -->
<g id="node6" class="node">
<title>Koan 6</title>
<g id="a_node6"><a xlink:href="/koan/page/6" xlink:title="Koan 6">
<polygon fill="none" stroke="#000000" points="169.5,-1116 113.5,-1116 113.5,-1080 169.5,-1080 169.5,-1116"/>
<text text-anchor="middle" x="141.5" y="-1094.3" font-family="Times,serif" font-size="14.00" fill="#000000">Koan 6</text>
</a>
</g>
</g>
<!-- Koan 5&#45;&#45;Koan 6 -->
<g id="edge61" class="edge">
<title>Koan 5&#45;&#45;Koan 6</title>
<path fill="none" stroke="#000000" d="M141.5,-1151.8314C141.5,-1141 141.5,-1127.2876 141.5,-1116.4133"/>
</g>
<!-- Manic notes 1 -->
<g id="node7" class="node">
<title>Manic notes 1</title>
<g id="a_node7"><a xlink:href="/mania/" xlink:title="Manic notes 1">
<polygon fill="none" stroke="#000000" points="95,-2484 0,-2484 0,-2448 95,-2448 95,-2484"/>
<text text-anchor="middle" x="47.5" y="-2462.3" font-family="Times,serif" font-size="14.00" fill="#000000">Manic notes 1</text>
</a>
</g>
</g>
<!-- Manic notes 2 -->
<g id="node8" class="node">
<title>Manic notes 2</title>
<g id="a_node8"><a xlink:href="/mania/page/2" xlink:title="Manic notes 2">
<polygon fill="none" stroke="#000000" points="95,-2412 0,-2412 0,-2376 95,-2376 95,-2412"/>
<text text-anchor="middle" x="47.5" y="-2390.3" font-family="Times,serif" font-size="14.00" fill="#000000">Manic notes 2</text>
</a>
</g>
</g>
<!-- Manic notes 1&#45;&#45;Manic notes 2 -->
<g id="edge33" class="edge">
<title>Manic notes 1&#45;&#45;Manic notes 2</title>
<path fill="none" stroke="#000000" d="M47.5,-2447.8314C47.5,-2437 47.5,-2423.2876 47.5,-2412.4133"/>
</g>
<!-- Manic notes 3 -->
<g id="node9" class="node">
<title>Manic notes 3</title>
<g id="a_node9"><a xlink:href="/mania/page/3" xlink:title="Manic notes 3">
<polygon fill="none" stroke="#000000" points="95,-2340 0,-2340 0,-2304 95,-2304 95,-2340"/>
<text text-anchor="middle" x="47.5" y="-2318.3" font-family="Times,serif" font-size="14.00" fill="#000000">Manic notes 3</text>
</a>
</g>
</g>
<!-- Manic notes 2&#45;&#45;Manic notes 3 -->
<g id="edge34" class="edge">
<title>Manic notes 2&#45;&#45;Manic notes 3</title>
<path fill="none" stroke="#000000" d="M47.5,-2375.8314C47.5,-2365 47.5,-2351.2876 47.5,-2340.4133"/>
</g>
<!-- Manic notes 4 -->
<g id="node10" class="node">
<title>Manic notes 4</title>
<g id="a_node10"><a xlink:href="/mania/page/4" xlink:title="Manic notes 4">
<polygon fill="none" stroke="#000000" points="95,-2268 0,-2268 0,-2232 95,-2232 95,-2268"/>
<text text-anchor="middle" x="47.5" y="-2246.3" font-family="Times,serif" font-size="14.00" fill="#000000">Manic notes 4</text>
</a>
</g>
</g>
<!-- Manic notes 3&#45;&#45;Manic notes 4 -->
<g id="edge35" class="edge">
<title>Manic notes 3&#45;&#45;Manic notes 4</title>
<path fill="none" stroke="#000000" d="M47.5,-2303.8314C47.5,-2293 47.5,-2279.2876 47.5,-2268.4133"/>
</g>
<!-- Manic notes 5 -->
<g id="node11" class="node">
<title>Manic notes 5</title>
<g id="a_node11"><a xlink:href="/mania/page/5" xlink:title="Manic notes 5">
<polygon fill="none" stroke="#000000" points="95,-2196 0,-2196 0,-2160 95,-2160 95,-2196"/>
<text text-anchor="middle" x="47.5" y="-2174.3" font-family="Times,serif" font-size="14.00" fill="#000000">Manic notes 5</text>
</a>
</g>
</g>
<!-- Manic notes 4&#45;&#45;Manic notes 5 -->
<g id="edge36" class="edge">
<title>Manic notes 4&#45;&#45;Manic notes 5</title>
<path fill="none" stroke="#000000" d="M47.5,-2231.8314C47.5,-2221 47.5,-2207.2876 47.5,-2196.4133"/>
</g>
<!-- Manic notes 6 -->
<g id="node12" class="node">
<title>Manic notes 6</title>
<g id="a_node12"><a xlink:href="/mania/page/6" xlink:title="Manic notes 6">
<polygon fill="none" stroke="#000000" points="95,-2124 0,-2124 0,-2088 95,-2088 95,-2124"/>
<text text-anchor="middle" x="47.5" y="-2102.3" font-family="Times,serif" font-size="14.00" fill="#000000">Manic notes 6</text>
</a>
</g>
</g>
<!-- Manic notes 5&#45;&#45;Manic notes 6 -->
<g id="edge37" class="edge">
<title>Manic notes 5&#45;&#45;Manic notes 6</title>
<path fill="none" stroke="#000000" d="M47.5,-2159.8314C47.5,-2149 47.5,-2135.2876 47.5,-2124.4133"/>
</g>
<!-- Manic notes 7 -->
<g id="node13" class="node">
<title>Manic notes 7</title>
<g id="a_node13"><a xlink:href="/mania/page/7" xlink:title="Manic notes 7">
<polygon fill="none" stroke="#000000" points="95,-2052 0,-2052 0,-2016 95,-2016 95,-2052"/>
<text text-anchor="middle" x="47.5" y="-2030.3" font-family="Times,serif" font-size="14.00" fill="#000000">Manic notes 7</text>
</a>
</g>
</g>
<!-- Manic notes 6&#45;&#45;Manic notes 7 -->
<g id="edge38" class="edge">
<title>Manic notes 6&#45;&#45;Manic notes 7</title>
<path fill="none" stroke="#000000" d="M47.5,-2087.8314C47.5,-2077 47.5,-2063.2876 47.5,-2052.4133"/>
</g>
<!-- Birds 1 -->
<g id="node14" class="node">
<title>Birds 1</title>
<g id="a_node14"><a xlink:href="/birds" xlink:title="Birds 1">
<polygon fill="none" stroke="#000000" points="169.5,-2412 113.5,-2412 113.5,-2376 169.5,-2376 169.5,-2412"/>
<text text-anchor="middle" x="141.5" y="-2390.3" font-family="Times,serif" font-size="14.00" fill="#000000">Birds 1</text>
</a>
</g>
</g>
<!-- Birds 2 -->
<g id="node15" class="node">
<title>Birds 2</title>
<g id="a_node15"><a xlink:href="/birds/page/2" xlink:title="Birds 2">
<polygon fill="none" stroke="#000000" points="169.5,-2340 113.5,-2340 113.5,-2304 169.5,-2304 169.5,-2340"/>
<text text-anchor="middle" x="141.5" y="-2318.3" font-family="Times,serif" font-size="14.00" fill="#000000">Birds 2</text>
</a>
</g>
</g>
<!-- Birds 1&#45;&#45;Birds 2 -->
<g id="edge40" class="edge">
<title>Birds 1&#45;&#45;Birds 2</title>
<path fill="none" stroke="#000000" d="M141.5,-2375.8314C141.5,-2365 141.5,-2351.2876 141.5,-2340.4133"/>
</g>
<!-- Birds 3 -->
<g id="node16" class="node">
<title>Birds 3</title>
<g id="a_node16"><a xlink:href="/birds/page/3" xlink:title="Birds 3">
<polygon fill="none" stroke="#000000" points="169.5,-2268 113.5,-2268 113.5,-2232 169.5,-2232 169.5,-2268"/>
<text text-anchor="middle" x="141.5" y="-2246.3" font-family="Times,serif" font-size="14.00" fill="#000000">Birds 3</text>
</a>
</g>
</g>
<!-- Birds 2&#45;&#45;Birds 3 -->
<g id="edge41" class="edge">
<title>Birds 2&#45;&#45;Birds 3</title>
<path fill="none" stroke="#000000" d="M141.5,-2303.8314C141.5,-2293 141.5,-2279.2876 141.5,-2268.4133"/>
</g>
<!-- Birds 4 -->
<g id="node17" class="node">
<title>Birds 4</title>
<g id="a_node17"><a xlink:href="/birds/page/4" xlink:title="Birds 4">
<polygon fill="none" stroke="#000000" points="169.5,-2196 113.5,-2196 113.5,-2160 169.5,-2160 169.5,-2196"/>
<text text-anchor="middle" x="141.5" y="-2174.3" font-family="Times,serif" font-size="14.00" fill="#000000">Birds 4</text>
</a>
</g>
</g>
<!-- Birds 3&#45;&#45;Birds 4 -->
<g id="edge42" class="edge">
<title>Birds 3&#45;&#45;Birds 4</title>
<path fill="none" stroke="#000000" d="M141.5,-2231.8314C141.5,-2221 141.5,-2207.2876 141.5,-2196.4133"/>
</g>
<!-- Home -->
<g id="node18" class="node">
<title>Home</title>
<g id="a_node18"><a xlink:href="/" xlink:title="Home">
<polygon fill="none" stroke="#000000" points="244.5,-3060 190.5,-3060 190.5,-3024 244.5,-3024 244.5,-3060"/>
<text text-anchor="middle" x="217.5" y="-3038.3" font-family="Times,serif" font-size="14.00" fill="#000000">Home</text>
</a>
</g>
</g>
<!-- Core 1 -->
<g id="node19" class="node">
<title>Core 1</title>
<g id="a_node19"><a xlink:href="/core/" xlink:title="Core 1">
<polygon fill="none" stroke="#000000" points="244.5,-2988 190.5,-2988 190.5,-2952 244.5,-2952 244.5,-2988"/>
<text text-anchor="middle" x="217.5" y="-2966.3" font-family="Times,serif" font-size="14.00" fill="#000000">Core 1</text>
</a>
</g>
</g>
<!-- Home&#45;&#45;Core 1 -->
<g id="edge1" class="edge">
<title>Home&#45;&#45;Core 1</title>
<path fill="none" stroke="#000000" d="M217.5,-3023.8314C217.5,-3013 217.5,-2999.2876 217.5,-2988.4133"/>
</g>
<!-- Core 2 -->
<g id="node20" class="node">
<title>Core 2</title>
<g id="a_node20"><a xlink:href="/core/page/2" xlink:title="Core 2">
<polygon fill="none" stroke="#000000" points="244.5,-2916 190.5,-2916 190.5,-2880 244.5,-2880 244.5,-2916"/>
<text text-anchor="middle" x="217.5" y="-2894.3" font-family="Times,serif" font-size="14.00" fill="#000000">Core 2</text>
</a>
</g>
</g>
<!-- Core 1&#45;&#45;Core 2 -->
<g id="edge2" class="edge">
<title>Core 1&#45;&#45;Core 2</title>
<path fill="none" stroke="#000000" d="M217.5,-2951.8314C217.5,-2941 217.5,-2927.2876 217.5,-2916.4133"/>
</g>
<!-- Core 3 -->
<g id="node21" class="node">
<title>Core 3</title>
<g id="a_node21"><a xlink:href="/core/page/3" xlink:title="Core 3">
<polygon fill="none" stroke="#000000" points="244.5,-2844 190.5,-2844 190.5,-2808 244.5,-2808 244.5,-2844"/>
<text text-anchor="middle" x="217.5" y="-2822.3" font-family="Times,serif" font-size="14.00" fill="#000000">Core 3</text>
</a>
</g>
</g>
<!-- Core 2&#45;&#45;Core 3 -->
<g id="edge3" class="edge">
<title>Core 2&#45;&#45;Core 3</title>
<path fill="none" stroke="#000000" d="M217.5,-2879.8314C217.5,-2869 217.5,-2855.2876 217.5,-2844.4133"/>
</g>
<!-- Core 4 -->
<g id="node22" class="node">
<title>Core 4</title>
<g id="a_node22"><a xlink:href="/core/page/4" xlink:title="Core 4">
<polygon fill="none" stroke="#000000" points="244.5,-2772 190.5,-2772 190.5,-2736 244.5,-2736 244.5,-2772"/>
<text text-anchor="middle" x="217.5" y="-2750.3" font-family="Times,serif" font-size="14.00" fill="#000000">Core 4</text>
</a>
</g>
</g>
<!-- Core 3&#45;&#45;Core 4 -->
<g id="edge4" class="edge">
<title>Core 3&#45;&#45;Core 4</title>
<path fill="none" stroke="#000000" d="M217.5,-2807.8314C217.5,-2797 217.5,-2783.2876 217.5,-2772.4133"/>
</g>
<!-- Core 5 -->
<g id="node23" class="node">
<title>Core 5</title>
<g id="a_node23"><a xlink:href="/core/page/5" xlink:title="Core 5">
<polygon fill="none" stroke="#000000" points="244.5,-2700 190.5,-2700 190.5,-2664 244.5,-2664 244.5,-2700"/>
<text text-anchor="middle" x="217.5" y="-2678.3" font-family="Times,serif" font-size="14.00" fill="#000000">Core 5</text>
</a>
</g>
</g>
<!-- Core 4&#45;&#45;Core 5 -->
<g id="edge5" class="edge">
<title>Core 4&#45;&#45;Core 5</title>
<path fill="none" stroke="#000000" d="M217.5,-2735.8314C217.5,-2725 217.5,-2711.2876 217.5,-2700.4133"/>
</g>
<!-- Core 6 -->
<g id="node24" class="node">
<title>Core 6</title>
<g id="a_node24"><a xlink:href="/core/page/6" xlink:title="Core 6">
<polygon fill="none" stroke="#000000" points="244.5,-2628 190.5,-2628 190.5,-2592 244.5,-2592 244.5,-2628"/>
<text text-anchor="middle" x="217.5" y="-2606.3" font-family="Times,serif" font-size="14.00" fill="#000000">Core 6</text>
</a>
</g>
</g>
<!-- Core 5&#45;&#45;Core 6 -->
<g id="edge6" class="edge">
<title>Core 5&#45;&#45;Core 6</title>
<path fill="none" stroke="#000000" d="M217.5,-2663.8314C217.5,-2653 217.5,-2639.2876 217.5,-2628.4133"/>
</g>
<!-- Core 7 -->
<g id="node25" class="node">
<title>Core 7</title>
<g id="a_node25"><a xlink:href="/core/page/7" xlink:title="Core 7">
<polygon fill="none" stroke="#000000" points="244.5,-2556 190.5,-2556 190.5,-2520 244.5,-2520 244.5,-2556"/>
<text text-anchor="middle" x="217.5" y="-2534.3" font-family="Times,serif" font-size="14.00" fill="#000000">Core 7</text>
</a>
</g>
</g>
<!-- Core 6&#45;&#45;Core 7 -->
<g id="edge7" class="edge">
<title>Core 6&#45;&#45;Core 7</title>
<path fill="none" stroke="#000000" d="M217.5,-2591.8314C217.5,-2581 217.5,-2567.2876 217.5,-2556.4133"/>
</g>
<!-- Core 7&#45;&#45;Manic notes 1 -->
<g id="edge32" class="edge">
<title>Core 7&#45;&#45;Manic notes 1</title>
<path fill="none" stroke="#000000" d="M190.1866,-2526.432C163.1556,-2514.9835 121.3875,-2497.2935 90.0144,-2484.0061"/>
</g>
<!-- Core 8 -->
<g id="node26" class="node">
<title>Core 8</title>
<g id="a_node26"><a xlink:href="/core/page/8" xlink:title="Core 8">
<polygon fill="none" stroke="#000000" points="244.5,-2484 190.5,-2484 190.5,-2448 244.5,-2448 244.5,-2484"/>
<text text-anchor="middle" x="217.5" y="-2462.3" font-family="Times,serif" font-size="14.00" fill="#000000">Core 8</text>
</a>
</g>
</g>
<!-- Core 7&#45;&#45;Core 8 -->
<g id="edge8" class="edge">
<title>Core 7&#45;&#45;Core 8</title>
<path fill="none" stroke="#000000" d="M217.5,-2519.8314C217.5,-2509 217.5,-2495.2876 217.5,-2484.4133"/>
</g>
<!-- Core 8&#45;&#45;Birds 1 -->
<g id="edge39" class="edge">
<title>Core 8&#45;&#45;Birds 1</title>
<path fill="none" stroke="#000000" d="M198.322,-2447.8314C186.801,-2436.9167 172.1918,-2423.0764 160.6719,-2412.1628"/>
</g>
<!-- Core 9 -->
<g id="node27" class="node">
<title>Core 9</title>
<g id="a_node27"><a xlink:href="/core/page/9" xlink:title="Core 9">
<polygon fill="none" stroke="#000000" points="244.5,-2412 190.5,-2412 190.5,-2376 244.5,-2376 244.5,-2412"/>
<text text-anchor="middle" x="217.5" y="-2390.3" font-family="Times,serif" font-size="14.00" fill="#000000">Core 9</text>
</a>
</g>
</g>
<!-- Core 8&#45;&#45;Core 9 -->
<g id="edge9" class="edge">
<title>Core 8&#45;&#45;Core 9</title>
<path fill="none" stroke="#000000" d="M217.5,-2447.8314C217.5,-2437 217.5,-2423.2876 217.5,-2412.4133"/>
</g>
<!-- Core 10 -->
<g id="node28" class="node">
<title>Core 10</title>
<g id="a_node28"><a xlink:href="/core/page/10" xlink:title="Core 10">
<polygon fill="none" stroke="#000000" points="247.5,-2340 187.5,-2340 187.5,-2304 247.5,-2304 247.5,-2340"/>
<text text-anchor="middle" x="217.5" y="-2318.3" font-family="Times,serif" font-size="14.00" fill="#000000">Core 10</text>
</a>
</g>
</g>
<!-- Core 9&#45;&#45;Core 10 -->
<g id="edge10" class="edge">
<title>Core 9&#45;&#45;Core 10</title>
<path fill="none" stroke="#000000" d="M217.5,-2375.8314C217.5,-2365 217.5,-2351.2876 217.5,-2340.4133"/>
</g>
<!-- Core 11 -->
<g id="node29" class="node">
<title>Core 11</title>
<g id="a_node29"><a xlink:href="/core/page/11" xlink:title="Core 11">
<polygon fill="none" stroke="#000000" points="247.5,-2268 187.5,-2268 187.5,-2232 247.5,-2232 247.5,-2268"/>
<text text-anchor="middle" x="217.5" y="-2246.3" font-family="Times,serif" font-size="14.00" fill="#000000">Core 11</text>
</a>
</g>
</g>
<!-- Core 10&#45;&#45;Core 11 -->
<g id="edge11" class="edge">
<title>Core 10&#45;&#45;Core 11</title>
<path fill="none" stroke="#000000" d="M217.5,-2303.8314C217.5,-2293 217.5,-2279.2876 217.5,-2268.4133"/>
</g>
<!-- Jay 1 -->
<g id="node50" class="node">
<title>Jay 1</title>
<g id="a_node50"><a xlink:href="/jay/" xlink:title="Jay 1">
<polygon fill="none" stroke="#000000" points="413.5,-2268 359.5,-2268 359.5,-2232 413.5,-2232 413.5,-2268"/>
<text text-anchor="middle" x="386.5" y="-2246.3" font-family="Times,serif" font-size="14.00" fill="#000000">Jay 1</text>
</a>
</g>
</g>
<!-- Core 10&#45;&#45;Jay 1 -->
<g id="edge43" class="edge">
<title>Core 10&#45;&#45;Jay 1</title>
<path fill="none" stroke="#000000" d="M247.7138,-2309.1278C279.4245,-2295.618 328.8234,-2274.5723 359.3384,-2261.5718"/>
</g>
<!-- Core 12 -->
<g id="node30" class="node">
<title>Core 12</title>
<g id="a_node30"><a xlink:href="/core/page/12" xlink:title="Core 12">
<polygon fill="none" stroke="#000000" points="247.5,-2196 187.5,-2196 187.5,-2160 247.5,-2160 247.5,-2196"/>
<text text-anchor="middle" x="217.5" y="-2174.3" font-family="Times,serif" font-size="14.00" fill="#000000">Core 12</text>
</a>
</g>
</g>
<!-- Core 11&#45;&#45;Core 12 -->
<g id="edge12" class="edge">
<title>Core 11&#45;&#45;Core 12</title>
<path fill="none" stroke="#000000" d="M217.5,-2231.8314C217.5,-2221 217.5,-2207.2876 217.5,-2196.4133"/>
</g>
<!-- Core 13 -->
<g id="node31" class="node">
<title>Core 13</title>
<g id="a_node31"><a xlink:href="/core/page/13" xlink:title="Core 13">
<polygon fill="none" stroke="#000000" points="247.5,-2124 187.5,-2124 187.5,-2088 247.5,-2088 247.5,-2124"/>
<text text-anchor="middle" x="217.5" y="-2102.3" font-family="Times,serif" font-size="14.00" fill="#000000">Core 13</text>
</a>
</g>
</g>
<!-- Core 12&#45;&#45;Core 13 -->
<g id="edge13" class="edge">
<title>Core 12&#45;&#45;Core 13</title>
<path fill="none" stroke="#000000" d="M217.5,-2159.8314C217.5,-2149 217.5,-2135.2876 217.5,-2124.4133"/>
</g>
<!-- Core 14 -->
<g id="node32" class="node">
<title>Core 14</title>
<g id="a_node32"><a xlink:href="/core/page/14" xlink:title="Core 14">
<polygon fill="none" stroke="#000000" points="247.5,-1620 187.5,-1620 187.5,-1584 247.5,-1584 247.5,-1620"/>
<text text-anchor="middle" x="217.5" y="-1598.3" font-family="Times,serif" font-size="14.00" fill="#000000">Core 14</text>
</a>
</g>
</g>
<!-- Core 13&#45;&#45;Core 14 -->
<g id="edge14" class="edge">
<title>Core 13&#45;&#45;Core 14</title>
<path fill="none" stroke="#000000" d="M217.5,-2087.8146C217.5,-2060.4983 217.5,-2007.25 217.5,-1962 217.5,-1962 217.5,-1962 217.5,-1746 217.5,-1700.75 217.5,-1647.5017 217.5,-1620.1854"/>
</g>
<!-- From within 1 -->
<g id="node56" class="node">
<title>From within 1</title>
<g id="a_node56"><a xlink:href="/from-within/" xlink:title="From within 1">
<polygon fill="none" stroke="#000000" points="341,-2052 246,-2052 246,-2016 341,-2016 341,-2052"/>
<text text-anchor="middle" x="293.5" y="-2030.3" font-family="Times,serif" font-size="14.00" fill="#000000">From within 1</text>
</a>
</g>
</g>
<!-- Core 13&#45;&#45;From within 1 -->
<g id="edge49" class="edge">
<title>Core 13&#45;&#45;From within 1</title>
<path fill="none" stroke="#000000" d="M236.678,-2087.8314C248.199,-2076.9167 262.8082,-2063.0764 274.3281,-2052.1628"/>
</g>
<!-- Core 15 -->
<g id="node33" class="node">
<title>Core 15</title>
<g id="a_node33"><a xlink:href="/core/page/15" xlink:title="Core 15">
<polygon fill="none" stroke="#000000" points="247.5,-1548 187.5,-1548 187.5,-1512 247.5,-1512 247.5,-1548"/>
<text text-anchor="middle" x="217.5" y="-1526.3" font-family="Times,serif" font-size="14.00" fill="#000000">Core 15</text>
</a>
</g>
</g>
<!-- Core 14&#45;&#45;Core 15 -->
<g id="edge15" class="edge">
<title>Core 14&#45;&#45;Core 15</title>
<path fill="none" stroke="#000000" d="M217.5,-1583.8314C217.5,-1573 217.5,-1559.2876 217.5,-1548.4133"/>
</g>
<!-- Core 15&#45;&#45;Koan 1 -->
<g id="edge56" class="edge">
<title>Core 15&#45;&#45;Koan 1</title>
<path fill="none" stroke="#000000" d="M198.322,-1511.8314C186.801,-1500.9167 172.1918,-1487.0764 160.6719,-1476.1628"/>
</g>
<!-- Core 16 -->
<g id="node34" class="node">
<title>Core 16</title>
<g id="a_node34"><a xlink:href="/core/page/16" xlink:title="Core 16">
<polygon fill="none" stroke="#000000" points="247.5,-1476 187.5,-1476 187.5,-1440 247.5,-1440 247.5,-1476"/>
<text text-anchor="middle" x="217.5" y="-1454.3" font-family="Times,serif" font-size="14.00" fill="#000000">Core 16</text>
</a>
</g>
</g>
<!-- Core 15&#45;&#45;Core 16 -->
<g id="edge16" class="edge">
<title>Core 15&#45;&#45;Core 16</title>
<path fill="none" stroke="#000000" d="M217.5,-1511.8314C217.5,-1501 217.5,-1487.2876 217.5,-1476.4133"/>
</g>
<!-- Core 17 -->
<g id="node35" class="node">
<title>Core 17</title>
<g id="a_node35"><a xlink:href="/core/page/17" xlink:title="Core 17">
<polygon fill="none" stroke="#000000" points="247.5,-1404 187.5,-1404 187.5,-1368 247.5,-1368 247.5,-1404"/>
<text text-anchor="middle" x="217.5" y="-1382.3" font-family="Times,serif" font-size="14.00" fill="#000000">Core 17</text>
</a>
</g>
</g>
<!-- Core 16&#45;&#45;Core 17 -->
<g id="edge17" class="edge">
<title>Core 16&#45;&#45;Core 17</title>
<path fill="none" stroke="#000000" d="M217.5,-1439.8314C217.5,-1429 217.5,-1415.2876 217.5,-1404.4133"/>
</g>
<!-- Fursoñas 1 -->
<g id="node62" class="node">
<title>Fursoñas 1</title>
<g id="a_node62"><a xlink:href="/fursona/" xlink:title="Fursoñas 1">
<polygon fill="none" stroke="#000000" points="419.5,-1404 343.5,-1404 343.5,-1368 419.5,-1368 419.5,-1404"/>
<text text-anchor="middle" x="381.5" y="-1382.3" font-family="Times,serif" font-size="14.00" fill="#000000">Fursoñas 1</text>
</a>
</g>
</g>
<!-- Core 16&#45;&#45;Fursoñas 1 -->
<g id="edge62" class="edge">
<title>Core 16&#45;&#45;Fursoñas 1</title>
<path fill="none" stroke="#000000" d="M247.5801,-1444.7941C274.4893,-1432.9803 314.0708,-1415.6031 343.2272,-1402.8027"/>
</g>
<!-- Core 18 -->
<g id="node36" class="node">
<title>Core 18</title>
<g id="a_node36"><a xlink:href="/core/page/18" xlink:title="Core 18">
<polygon fill="none" stroke="#000000" points="247.5,-1332 187.5,-1332 187.5,-1296 247.5,-1296 247.5,-1332"/>
<text text-anchor="middle" x="217.5" y="-1310.3" font-family="Times,serif" font-size="14.00" fill="#000000">Core 18</text>
</a>
</g>
</g>
<!-- Core 17&#45;&#45;Core 18 -->
<g id="edge18" class="edge">
<title>Core 17&#45;&#45;Core 18</title>
<path fill="none" stroke="#000000" d="M217.5,-1367.8314C217.5,-1357 217.5,-1343.2876 217.5,-1332.4133"/>
</g>
<!-- Core 19 -->
<g id="node37" class="node">
<title>Core 19</title>
<g id="a_node37"><a xlink:href="/core/page/19" xlink:title="Core 19">
<polygon fill="none" stroke="#000000" points="247.5,-1260 187.5,-1260 187.5,-1224 247.5,-1224 247.5,-1260"/>
<text text-anchor="middle" x="217.5" y="-1238.3" font-family="Times,serif" font-size="14.00" fill="#000000">Core 19</text>
</a>
</g>
</g>
<!-- Core 18&#45;&#45;Core 19 -->
<g id="edge19" class="edge">
<title>Core 18&#45;&#45;Core 19</title>
<path fill="none" stroke="#000000" d="M217.5,-1295.8314C217.5,-1285 217.5,-1271.2876 217.5,-1260.4133"/>
</g>
<!-- Core 20 -->
<g id="node38" class="node">
<title>Core 20</title>
<g id="a_node38"><a xlink:href="/core/page/20" xlink:title="Core 20">
<polygon fill="none" stroke="#000000" points="247.5,-1188 187.5,-1188 187.5,-1152 247.5,-1152 247.5,-1188"/>
<text text-anchor="middle" x="217.5" y="-1166.3" font-family="Times,serif" font-size="14.00" fill="#000000">Core 20</text>
</a>
</g>
</g>
<!-- Core 19&#45;&#45;Core 20 -->
<g id="edge20" class="edge">
<title>Core 19&#45;&#45;Core 20</title>
<path fill="none" stroke="#000000" d="M217.5,-1223.8314C217.5,-1213 217.5,-1199.2876 217.5,-1188.4133"/>
</g>
<!-- Core 21 -->
<g id="node39" class="node">
<title>Core 21</title>
<g id="a_node39"><a xlink:href="/core/page/21" xlink:title="Core 21">
<polygon fill="none" stroke="#000000" points="247.5,-756 187.5,-756 187.5,-720 247.5,-720 247.5,-756"/>
<text text-anchor="middle" x="217.5" y="-734.3" font-family="Times,serif" font-size="14.00" fill="#000000">Core 21</text>
</a>
</g>
</g>
<!-- Core 20&#45;&#45;Core 21 -->
<g id="edge21" class="edge">
<title>Core 20&#45;&#45;Core 21</title>
<path fill="none" stroke="#000000" d="M217.5,-1151.8146C217.5,-1124.4983 217.5,-1071.25 217.5,-1026 217.5,-1026 217.5,-1026 217.5,-882 217.5,-836.75 217.5,-783.5017 217.5,-756.1854"/>
</g>
<!-- Margaras 1 -->
<g id="node70" class="node">
<title>Margaras 1</title>
<g id="a_node70"><a xlink:href="/margaras" xlink:title="Margaras 1">
<polygon fill="none" stroke="#000000" points="325,-1116 246,-1116 246,-1080 325,-1080 325,-1116"/>
<text text-anchor="middle" x="285.5" y="-1094.3" font-family="Times,serif" font-size="14.00" fill="#000000">Margaras 1</text>
</a>
</g>
</g>
<!-- Core 20&#45;&#45;Margaras 1 -->
<g id="edge70" class="edge">
<title>Core 20&#45;&#45;Margaras 1</title>
<path fill="none" stroke="#000000" d="M234.6593,-1151.8314C244.8889,-1141 257.8395,-1127.2876 268.1097,-1116.4133"/>
</g>
<!-- Core 22 -->
<g id="node40" class="node">
<title>Core 22</title>
<g id="a_node40"><a xlink:href="/core/page/22" xlink:title="Core 22">
<polygon fill="none" stroke="#000000" points="247.5,-684 187.5,-684 187.5,-648 247.5,-648 247.5,-684"/>
<text text-anchor="middle" x="217.5" y="-662.3" font-family="Times,serif" font-size="14.00" fill="#000000">Core 22</text>
</a>
</g>
</g>
<!-- Core 21&#45;&#45;Core 22 -->
<g id="edge22" class="edge">
<title>Core 21&#45;&#45;Core 22</title>
<path fill="none" stroke="#000000" d="M217.5,-719.8314C217.5,-709 217.5,-695.2876 217.5,-684.4133"/>
</g>
<!-- Core 23 -->
<g id="node41" class="node">
<title>Core 23</title>
<g id="a_node41"><a xlink:href="/core/page/23" xlink:title="Core 23">
<polygon fill="none" stroke="#000000" points="247.5,-612 187.5,-612 187.5,-576 247.5,-576 247.5,-612"/>
<text text-anchor="middle" x="217.5" y="-590.3" font-family="Times,serif" font-size="14.00" fill="#000000">Core 23</text>
</a>
</g>
</g>
<!-- Core 22&#45;&#45;Core 23 -->
<g id="edge23" class="edge">
<title>Core 22&#45;&#45;Core 23</title>
<path fill="none" stroke="#000000" d="M217.5,-647.8314C217.5,-637 217.5,-623.2876 217.5,-612.4133"/>
</g>
<!-- Core 24 -->
<g id="node42" class="node">
<title>Core 24</title>
<g id="a_node42"><a xlink:href="/core/page/24" xlink:title="Core 24">
<polygon fill="none" stroke="#000000" points="247.5,-540 187.5,-540 187.5,-504 247.5,-504 247.5,-540"/>
<text text-anchor="middle" x="217.5" y="-518.3" font-family="Times,serif" font-size="14.00" fill="#000000">Core 24</text>
</a>
</g>
</g>
<!-- Core 23&#45;&#45;Core 24 -->
<g id="edge24" class="edge">
<title>Core 23&#45;&#45;Core 24</title>
<path fill="none" stroke="#000000" d="M217.5,-575.8314C217.5,-565 217.5,-551.2876 217.5,-540.4133"/>
</g>
<!-- Core 25 -->
<g id="node43" class="node">
<title>Core 25</title>
<g id="a_node43"><a xlink:href="/core/page/25" xlink:title="Core 25">
<polygon fill="none" stroke="#000000" points="247.5,-468 187.5,-468 187.5,-432 247.5,-432 247.5,-468"/>
<text text-anchor="middle" x="217.5" y="-446.3" font-family="Times,serif" font-size="14.00" fill="#000000">Core 25</text>
</a>
</g>
</g>
<!-- Core 24&#45;&#45;Core 25 -->
<g id="edge25" class="edge">
<title>Core 24&#45;&#45;Core 25</title>
<path fill="none" stroke="#000000" d="M217.5,-503.8314C217.5,-493 217.5,-479.2876 217.5,-468.4133"/>
</g>
<!-- Core 26 -->
<g id="node44" class="node">
<title>Core 26</title>
<g id="a_node44"><a xlink:href="/core/page/26" xlink:title="Core 26">
<polygon fill="none" stroke="#000000" points="247.5,-396 187.5,-396 187.5,-360 247.5,-360 247.5,-396"/>
<text text-anchor="middle" x="217.5" y="-374.3" font-family="Times,serif" font-size="14.00" fill="#000000">Core 26</text>
</a>
</g>
</g>
<!-- Core 25&#45;&#45;Core 26 -->
<g id="edge26" class="edge">
<title>Core 25&#45;&#45;Core 26</title>
<path fill="none" stroke="#000000" d="M217.5,-431.8314C217.5,-421 217.5,-407.2876 217.5,-396.4133"/>
</g>
<!-- Core 27 -->
<g id="node45" class="node">
<title>Core 27</title>
<g id="a_node45"><a xlink:href="/core/page/27" xlink:title="Core 27">
<polygon fill="none" stroke="#000000" points="247.5,-324 187.5,-324 187.5,-288 247.5,-288 247.5,-324"/>
<text text-anchor="middle" x="217.5" y="-302.3" font-family="Times,serif" font-size="14.00" fill="#000000">Core 27</text>
</a>
</g>
</g>
<!-- Core 26&#45;&#45;Core 27 -->
<g id="edge27" class="edge">
<title>Core 26&#45;&#45;Core 27</title>
<path fill="none" stroke="#000000" d="M217.5,-359.8314C217.5,-349 217.5,-335.2876 217.5,-324.4133"/>
</g>
<!-- Core 28 -->
<g id="node46" class="node">
<title>Core 28</title>
<g id="a_node46"><a xlink:href="/core/page/28" xlink:title="Core 28">
<polygon fill="none" stroke="#000000" points="247.5,-252 187.5,-252 187.5,-216 247.5,-216 247.5,-252"/>
<text text-anchor="middle" x="217.5" y="-230.3" font-family="Times,serif" font-size="14.00" fill="#000000">Core 28</text>
</a>
</g>
</g>
<!-- Core 27&#45;&#45;Core 28 -->
<g id="edge28" class="edge">
<title>Core 27&#45;&#45;Core 28</title>
<path fill="none" stroke="#000000" d="M217.5,-287.8314C217.5,-277 217.5,-263.2876 217.5,-252.4133"/>
</g>
<!-- Core 29 -->
<g id="node47" class="node">
<title>Core 29</title>
<g id="a_node47"><a xlink:href="/core/page/29" xlink:title="Core 29">
<polygon fill="none" stroke="#000000" points="247.5,-180 187.5,-180 187.5,-144 247.5,-144 247.5,-180"/>
<text text-anchor="middle" x="217.5" y="-158.3" font-family="Times,serif" font-size="14.00" fill="#000000">Core 29</text>
</a>
</g>
</g>
<!-- Core 28&#45;&#45;Core 29 -->
<g id="edge29" class="edge">
<title>Core 28&#45;&#45;Core 29</title>
<path fill="none" stroke="#000000" d="M217.5,-215.8314C217.5,-205 217.5,-191.2876 217.5,-180.4133"/>
</g>
<!-- Core 30 -->
<g id="node48" class="node">
<title>Core 30</title>
<g id="a_node48"><a xlink:href="/core/page/30" xlink:title="Core 30">
<polygon fill="none" stroke="#000000" points="247.5,-108 187.5,-108 187.5,-72 247.5,-72 247.5,-108"/>
<text text-anchor="middle" x="217.5" y="-86.3" font-family="Times,serif" font-size="14.00" fill="#000000">Core 30</text>
</a>
</g>
</g>
<!-- Core 29&#45;&#45;Core 30 -->
<g id="edge30" class="edge">
<title>Core 29&#45;&#45;Core 30</title>
<path fill="none" stroke="#000000" d="M217.5,-143.8314C217.5,-133 217.5,-119.2876 217.5,-108.4133"/>
</g>
<!-- To be continued... -->
<g id="node49" class="node">
<title>To be continued...</title>
<text text-anchor="middle" x="217.5" y="-14.3" font-family="Times,serif" font-size="14.00" fill="#000000">To be continued...</text>
</g>
<!-- Core 30&#45;&#45;To be continued... -->
<g id="edge31" class="edge">
<title>Core 30&#45;&#45;To be continued...</title>
<path fill="none" stroke="#000000" d="M217.5,-71.8314C217.5,-61 217.5,-47.2876 217.5,-36.4133"/>
</g>
<!-- Jay 2 -->
<g id="node51" class="node">
<title>Jay 2</title>
<g id="a_node51"><a xlink:href="/jay/page/2" xlink:title="Jay 2">
<polygon fill="none" stroke="#000000" points="413.5,-2196 359.5,-2196 359.5,-2160 413.5,-2160 413.5,-2196"/>
<text text-anchor="middle" x="386.5" y="-2174.3" font-family="Times,serif" font-size="14.00" fill="#000000">Jay 2</text>
</a>
</g>
</g>
<!-- Jay 1&#45;&#45;Jay 2 -->
<g id="edge44" class="edge">
<title>Jay 1&#45;&#45;Jay 2</title>
<path fill="none" stroke="#000000" d="M386.5,-2231.8314C386.5,-2221 386.5,-2207.2876 386.5,-2196.4133"/>
</g>
<!-- Jay 3 -->
<g id="node52" class="node">
<title>Jay 3</title>
<g id="a_node52"><a xlink:href="/jay/page/3" xlink:title="Jay 3">
<polygon fill="none" stroke="#000000" points="413.5,-2124 359.5,-2124 359.5,-2088 413.5,-2088 413.5,-2124"/>
<text text-anchor="middle" x="386.5" y="-2102.3" font-family="Times,serif" font-size="14.00" fill="#000000">Jay 3</text>
</a>
</g>
</g>
<!-- Jay 2&#45;&#45;Jay 3 -->
<g id="edge45" class="edge">
<title>Jay 2&#45;&#45;Jay 3</title>
<path fill="none" stroke="#000000" d="M386.5,-2159.8314C386.5,-2149 386.5,-2135.2876 386.5,-2124.4133"/>
</g>
<!-- Jay 4 -->
<g id="node53" class="node">
<title>Jay 4</title>
<g id="a_node53"><a xlink:href="/jay/page/4" xlink:title="Jay 4">
<polygon fill="none" stroke="#000000" points="413.5,-2052 359.5,-2052 359.5,-2016 413.5,-2016 413.5,-2052"/>
<text text-anchor="middle" x="386.5" y="-2030.3" font-family="Times,serif" font-size="14.00" fill="#000000">Jay 4</text>
</a>
</g>
</g>
<!-- Jay 3&#45;&#45;Jay 4 -->
<g id="edge46" class="edge">
<title>Jay 3&#45;&#45;Jay 4</title>
<path fill="none" stroke="#000000" d="M386.5,-2087.8314C386.5,-2077 386.5,-2063.2876 386.5,-2052.4133"/>
</g>
<!-- Jay 5 -->
<g id="node54" class="node">
<title>Jay 5</title>
<g id="a_node54"><a xlink:href="/jay/page/5" xlink:title="Jay 5">
<polygon fill="none" stroke="#000000" points="413.5,-1980 359.5,-1980 359.5,-1944 413.5,-1944 413.5,-1980"/>
<text text-anchor="middle" x="386.5" y="-1958.3" font-family="Times,serif" font-size="14.00" fill="#000000">Jay 5</text>
</a>
</g>
</g>
<!-- Jay 4&#45;&#45;Jay 5 -->
<g id="edge47" class="edge">
<title>Jay 4&#45;&#45;Jay 5</title>
<path fill="none" stroke="#000000" d="M386.5,-2015.8314C386.5,-2005 386.5,-1991.2876 386.5,-1980.4133"/>
</g>
<!-- Jay 6 -->
<g id="node55" class="node">
<title>Jay 6</title>
<g id="a_node55"><a xlink:href="/jay/page/6" xlink:title="Jay 6">
<polygon fill="none" stroke="#000000" points="413.5,-1908 359.5,-1908 359.5,-1872 413.5,-1872 413.5,-1908"/>
<text text-anchor="middle" x="386.5" y="-1886.3" font-family="Times,serif" font-size="14.00" fill="#000000">Jay 6</text>
</a>
</g>
</g>
<!-- Jay 5&#45;&#45;Jay 6 -->
<g id="edge48" class="edge">
<title>Jay 5&#45;&#45;Jay 6</title>
<path fill="none" stroke="#000000" d="M386.5,-1943.8314C386.5,-1933 386.5,-1919.2876 386.5,-1908.4133"/>
</g>
<!-- From within 2 -->
<g id="node57" class="node">
<title>From within 2</title>
<g id="a_node57"><a xlink:href="/from-within/2" xlink:title="From within 2">
<polygon fill="none" stroke="#000000" points="341,-1980 246,-1980 246,-1944 341,-1944 341,-1980"/>
<text text-anchor="middle" x="293.5" y="-1958.3" font-family="Times,serif" font-size="14.00" fill="#000000">From within 2</text>
</a>
</g>
</g>
<!-- From within 1&#45;&#45;From within 2 -->
<g id="edge50" class="edge">
<title>From within 1&#45;&#45;From within 2</title>
<path fill="none" stroke="#000000" d="M293.5,-2015.8314C293.5,-2005 293.5,-1991.2876 293.5,-1980.4133"/>
</g>
<!-- From within 3 -->
<g id="node58" class="node">
<title>From within 3</title>
<g id="a_node58"><a xlink:href="/from-within/3" xlink:title="From within 3">
<polygon fill="none" stroke="#000000" points="341,-1908 246,-1908 246,-1872 341,-1872 341,-1908"/>
<text text-anchor="middle" x="293.5" y="-1886.3" font-family="Times,serif" font-size="14.00" fill="#000000">From within 3</text>
</a>
</g>
</g>
<!-- From within 2&#45;&#45;From within 3 -->
<g id="edge51" class="edge">
<title>From within 2&#45;&#45;From within 3</title>
<path fill="none" stroke="#000000" d="M293.5,-1943.8314C293.5,-1933 293.5,-1919.2876 293.5,-1908.4133"/>
</g>
<!-- From within 4 -->
<g id="node59" class="node">
<title>From within 4</title>
<g id="a_node59"><a xlink:href="/from-within/4" xlink:title="From within 4">
<polygon fill="none" stroke="#000000" points="341,-1836 246,-1836 246,-1800 341,-1800 341,-1836"/>
<text text-anchor="middle" x="293.5" y="-1814.3" font-family="Times,serif" font-size="14.00" fill="#000000">From within 4</text>
</a>
</g>
</g>
<!-- From within 3&#45;&#45;From within 4 -->
<g id="edge52" class="edge">
<title>From within 3&#45;&#45;From within 4</title>
<path fill="none" stroke="#000000" d="M293.5,-1871.8314C293.5,-1861 293.5,-1847.2876 293.5,-1836.4133"/>
</g>
<!-- From within 5 -->
<g id="node60" class="node">
<title>From within 5</title>
<g id="a_node60"><a xlink:href="/from-within/5" xlink:title="From within 5">
<polygon fill="none" stroke="#000000" points="341,-1764 246,-1764 246,-1728 341,-1728 341,-1764"/>
<text text-anchor="middle" x="293.5" y="-1742.3" font-family="Times,serif" font-size="14.00" fill="#000000">From within 5</text>
</a>
</g>
</g>
<!-- From within 4&#45;&#45;From within 5 -->
<g id="edge53" class="edge">
<title>From within 4&#45;&#45;From within 5</title>
<path fill="none" stroke="#000000" d="M293.5,-1799.8314C293.5,-1789 293.5,-1775.2876 293.5,-1764.4133"/>
</g>
<!-- From within 6 -->
<g id="node61" class="node">
<title>From within 6</title>
<g id="a_node61"><a xlink:href="/from-within/i-guess.." xlink:title="From within 6">
<polygon fill="none" stroke="#000000" points="341,-1692 246,-1692 246,-1656 341,-1656 341,-1692"/>
<text text-anchor="middle" x="293.5" y="-1670.3" font-family="Times,serif" font-size="14.00" fill="#000000">From within 6</text>
</a>
</g>
</g>
<!-- From within 5&#45;&#45;From within 6 -->
<g id="edge54" class="edge">
<title>From within 5&#45;&#45;From within 6</title>
<path fill="none" stroke="#000000" d="M293.5,-1727.8314C293.5,-1717 293.5,-1703.2876 293.5,-1692.4133"/>
</g>
<!-- From within 6&#45;&#45;Core 14 -->
<g id="edge55" class="edge">
<title>From within 6&#45;&#45;Core 14</title>
<path fill="none" stroke="#000000" d="M274.322,-1655.8314C262.801,-1644.9167 248.1918,-1631.0764 236.6719,-1620.1628"/>
</g>
<!-- Fursoñas 2 -->
<g id="node63" class="node">
<title>Fursoñas 2</title>
<g id="a_node63"><a xlink:href="/fursona/page/2" xlink:title="Fursoñas 2">
<polygon fill="none" stroke="#000000" points="419.5,-1332 343.5,-1332 343.5,-1296 419.5,-1296 419.5,-1332"/>
<text text-anchor="middle" x="381.5" y="-1310.3" font-family="Times,serif" font-size="14.00" fill="#000000">Fursoñas 2</text>
</a>
</g>
</g>
<!-- Fursoñas 1&#45;&#45;Fursoñas 2 -->
<g id="edge63" class="edge">
<title>Fursoñas 1&#45;&#45;Fursoñas 2</title>
<path fill="none" stroke="#000000" d="M381.5,-1367.8314C381.5,-1357 381.5,-1343.2876 381.5,-1332.4133"/>
</g>
<!-- Fursoñas 3 -->
<g id="node64" class="node">
<title>Fursoñas 3</title>
<g id="a_node64"><a xlink:href="/fursona/page/3" xlink:title="Fursoñas 3">
<polygon fill="none" stroke="#000000" points="419.5,-1260 343.5,-1260 343.5,-1224 419.5,-1224 419.5,-1260"/>
<text text-anchor="middle" x="381.5" y="-1238.3" font-family="Times,serif" font-size="14.00" fill="#000000">Fursoñas 3</text>
</a>
</g>
</g>
<!-- Fursoñas 2&#45;&#45;Fursoñas 3 -->
<g id="edge64" class="edge">
<title>Fursoñas 2&#45;&#45;Fursoñas 3</title>
<path fill="none" stroke="#000000" d="M381.5,-1295.8314C381.5,-1285 381.5,-1271.2876 381.5,-1260.4133"/>
</g>
<!-- Fursoñas 4 -->
<g id="node65" class="node">
<title>Fursoñas 4</title>
<g id="a_node65"><a xlink:href="/fursona/page/4" xlink:title="Fursoñas 4">
<polygon fill="none" stroke="#000000" points="419.5,-1188 343.5,-1188 343.5,-1152 419.5,-1152 419.5,-1188"/>
<text text-anchor="middle" x="381.5" y="-1166.3" font-family="Times,serif" font-size="14.00" fill="#000000">Fursoñas 4</text>
</a>
</g>
</g>
<!-- Fursoñas 3&#45;&#45;Fursoñas 4 -->
<g id="edge65" class="edge">
<title>Fursoñas 3&#45;&#45;Fursoñas 4</title>
<path fill="none" stroke="#000000" d="M381.5,-1223.8314C381.5,-1213 381.5,-1199.2876 381.5,-1188.4133"/>
</g>
<!-- Fursoñas 5 -->
<g id="node66" class="node">
<title>Fursoñas 5</title>
<g id="a_node66"><a xlink:href="/fursona/page/5" xlink:title="Fursoñas 5">
<polygon fill="none" stroke="#000000" points="419.5,-1116 343.5,-1116 343.5,-1080 419.5,-1080 419.5,-1116"/>
<text text-anchor="middle" x="381.5" y="-1094.3" font-family="Times,serif" font-size="14.00" fill="#000000">Fursoñas 5</text>
</a>
</g>
</g>
<!-- Fursoñas 4&#45;&#45;Fursoñas 5 -->
<g id="edge66" class="edge">
<title>Fursoñas 4&#45;&#45;Fursoñas 5</title>
<path fill="none" stroke="#000000" d="M381.5,-1151.8314C381.5,-1141 381.5,-1127.2876 381.5,-1116.4133"/>
</g>
<!-- Fursoñas 6 -->
<g id="node67" class="node">
<title>Fursoñas 6</title>
<g id="a_node67"><a xlink:href="/fursona/page/6" xlink:title="Fursoñas 6">
<polygon fill="none" stroke="#000000" points="419.5,-1044 343.5,-1044 343.5,-1008 419.5,-1008 419.5,-1044"/>
<text text-anchor="middle" x="381.5" y="-1022.3" font-family="Times,serif" font-size="14.00" fill="#000000">Fursoñas 6</text>
</a>
</g>
</g>
<!-- Fursoñas 5&#45;&#45;Fursoñas 6 -->
<g id="edge67" class="edge">
<title>Fursoñas 5&#45;&#45;Fursoñas 6</title>
<path fill="none" stroke="#000000" d="M381.5,-1079.8314C381.5,-1069 381.5,-1055.2876 381.5,-1044.4133"/>
</g>
<!-- Fursoñas 7 -->
<g id="node68" class="node">
<title>Fursoñas 7</title>
<g id="a_node68"><a xlink:href="/fursona/page/7" xlink:title="Fursoñas 7">
<polygon fill="none" stroke="#000000" points="419.5,-972 343.5,-972 343.5,-936 419.5,-936 419.5,-972"/>
<text text-anchor="middle" x="381.5" y="-950.3" font-family="Times,serif" font-size="14.00" fill="#000000">Fursoñas 7</text>
</a>
</g>
</g>
<!-- Fursoñas 6&#45;&#45;Fursoñas 7 -->
<g id="edge68" class="edge">
<title>Fursoñas 6&#45;&#45;Fursoñas 7</title>
<path fill="none" stroke="#000000" d="M381.5,-1007.8314C381.5,-997 381.5,-983.2876 381.5,-972.4133"/>
</g>
<!-- Fursoñas 8 -->
<g id="node69" class="node">
<title>Fursoñas 8</title>
<g id="a_node69"><a xlink:href="/fursona/page/8" xlink:title="Fursoñas 8">
<polygon fill="none" stroke="#000000" points="419.5,-900 343.5,-900 343.5,-864 419.5,-864 419.5,-900"/>
<text text-anchor="middle" x="381.5" y="-878.3" font-family="Times,serif" font-size="14.00" fill="#000000">Fursoñas 8</text>
</a>
</g>
</g>
<!-- Fursoñas 7&#45;&#45;Fursoñas 8 -->
<g id="edge69" class="edge">
<title>Fursoñas 7&#45;&#45;Fursoñas 8</title>
<path fill="none" stroke="#000000" d="M381.5,-935.8314C381.5,-925 381.5,-911.2876 381.5,-900.4133"/>
</g>
<!-- Margaras 2 -->
<g id="node71" class="node">
<title>Margaras 2</title>
<g id="a_node71"><a xlink:href="/margaras/page/2" xlink:title="Margaras 2">
<polygon fill="none" stroke="#000000" points="325,-1044 246,-1044 246,-1008 325,-1008 325,-1044"/>
<text text-anchor="middle" x="285.5" y="-1022.3" font-family="Times,serif" font-size="14.00" fill="#000000">Margaras 2</text>
</a>
</g>
</g>
<!-- Margaras 1&#45;&#45;Margaras 2 -->
<g id="edge71" class="edge">
<title>Margaras 1&#45;&#45;Margaras 2</title>
<path fill="none" stroke="#000000" d="M285.5,-1079.8314C285.5,-1069 285.5,-1055.2876 285.5,-1044.4133"/>
</g>
<!-- Margaras 3 -->
<g id="node72" class="node">
<title>Margaras 3</title>
<g id="a_node72"><a xlink:href="/margaras/page/3" xlink:title="Margaras 3">
<polygon fill="none" stroke="#000000" points="325,-972 246,-972 246,-936 325,-936 325,-972"/>
<text text-anchor="middle" x="285.5" y="-950.3" font-family="Times,serif" font-size="14.00" fill="#000000">Margaras 3</text>
</a>
</g>
</g>
<!-- Margaras 2&#45;&#45;Margaras 3 -->
<g id="edge72" class="edge">
<title>Margaras 2&#45;&#45;Margaras 3</title>
<path fill="none" stroke="#000000" d="M285.5,-1007.8314C285.5,-997 285.5,-983.2876 285.5,-972.4133"/>
</g>
<!-- Margaras 4 -->
<g id="node73" class="node">
<title>Margaras 4</title>
<g id="a_node73"><a xlink:href="/margaras/page/4" xlink:title="Margaras 4">
<polygon fill="none" stroke="#000000" points="325,-900 246,-900 246,-864 325,-864 325,-900"/>
<text text-anchor="middle" x="285.5" y="-878.3" font-family="Times,serif" font-size="14.00" fill="#000000">Margaras 4</text>
</a>
</g>
</g>
<!-- Margaras 3&#45;&#45;Margaras 4 -->
<g id="edge73" class="edge">
<title>Margaras 3&#45;&#45;Margaras 4</title>
<path fill="none" stroke="#000000" d="M285.5,-935.8314C285.5,-925 285.5,-911.2876 285.5,-900.4133"/>
</g>
<!-- Margaras 5 -->
<g id="node74" class="node">
<title>Margaras 5</title>
<g id="a_node74"><a xlink:href="/margaras/page/5" xlink:title="Margaras 5">
<polygon fill="none" stroke="#000000" points="325,-828 246,-828 246,-792 325,-792 325,-828"/>
<text text-anchor="middle" x="285.5" y="-806.3" font-family="Times,serif" font-size="14.00" fill="#000000">Margaras 5</text>
</a>
</g>
</g>
<!-- Margaras 4&#45;&#45;Margaras 5 -->
<g id="edge74" class="edge">
<title>Margaras 4&#45;&#45;Margaras 5</title>
<path fill="none" stroke="#000000" d="M285.5,-863.8314C285.5,-853 285.5,-839.2876 285.5,-828.4133"/>
</g>
<!-- Margaras 5&#45;&#45;Core 21 -->
<g id="edge75" class="edge">
<title>Margaras 5&#45;&#45;Core 21</title>
<path fill="none" stroke="#000000" d="M268.3407,-791.8314C258.1111,-781 245.1605,-767.2876 234.8903,-756.4133"/>
</g>
</g>
</svg>
