<?xml version="1.0" encoding="UTF-8" standalone="no"?>
<!-- Created with Inkscape (http://www.inkscape.org/) -->

<svg
   xmlns:dc="http://purl.org/dc/elements/1.1/"
   xmlns:cc="http://creativecommons.org/ns#"
   xmlns:rdf="http://www.w3.org/1999/02/22-rdf-syntax-ns#"
   xmlns:svg="http://www.w3.org/2000/svg"
   xmlns="http://www.w3.org/2000/svg"
   xmlns:sodipodi="http://sodipodi.sourceforge.net/DTD/sodipodi-0.dtd"
   xmlns:inkscape="http://www.inkscape.org/namespaces/inkscape"
   width="51.944923mm"
   height="33.161877mm"
   viewBox="0 0 51.944923 33.161877"
   version="1.1"
   id="svg8"
   inkscape:version="0.92.5 (2060ec1f9f, 2020-04-08)"
   sodipodi:docname="box-vector.svg"
   inkscape:export-filename="/home/makyo/box-art.png"
   inkscape:export-xdpi="96"
   inkscape:export-ydpi="96">
  <defs
     id="defs2" />
  <sodipodi:namedview
     id="base"
     pagecolor="#ffffff"
     bordercolor="#666666"
     borderopacity="1.0"
     inkscape:pageopacity="0.0"
     inkscape:pageshadow="2"
     inkscape:zoom="2.8"
     inkscape:cx="120.53361"
     inkscape:cy="55.24615"
     inkscape:document-units="mm"
     inkscape:current-layer="layer1"
     showgrid="false"
     inkscape:window-width="1916"
     inkscape:window-height="1037"
     inkscape:window-x="0"
     inkscape:window-y="41"
     inkscape:window-maximized="0" />
  <metadata
     id="metadata5">
    <rdf:RDF>
      <cc:Work
         rdf:about="">
        <dc:format>image/svg+xml</dc:format>
        <dc:type
           rdf:resource="http://purl.org/dc/dcmitype/StillImage" />
        <dc:title></dc:title>
      </cc:Work>
    </rdf:RDF>
  </metadata>
  <g
     inkscape:label="Layer 1"
     inkscape:groupmode="layer"
     id="layer1"
     transform="translate(-31.75,-78.136156)">
    <g
       id="g4767">
      <g
         id="text4520"
         style="font-style:normal;font-variant:normal;font-weight:normal;font-stretch:normal;font-size:3.88055563px;line-height:1.25;font-family:'Ubuntu Mono';-inkscape-font-specification:'Ubuntu Mono';letter-spacing:0px;word-spacing:0px;fill:#000000;fill-opacity:1;stroke:none;stroke-width:0.26458332"
         aria-label="                    (     )
                  O
                o
              .
_____,,,_^..^_,,,_____
__|____|____|____|____
____|____|____|____|__">
        <path
           inkscape:connector-curvature="0"
           id="path4538"
           style="stroke-width:0.26458332"
           d="m 72.045542,79.066137 q -0.360892,0.2794 -0.551039,0.644173 -0.190147,0.364772 -0.190147,0.795514 0,0.217311 0.04269,0.411338 0.04657,0.194028 0.135819,0.372534 0.09313,0.178505 0.232834,0.345369 0.14358,0.166864 0.337608,0.333728 l -0.174625,0.232833 q -0.446264,-0.329847 -0.667456,-0.764469 -0.217311,-0.438503 -0.217311,-0.923572 0,-0.481189 0.221192,-0.919692 0.221192,-0.438503 0.663575,-0.760589 l 0.170744,0.232833 z" />
        <path
           inkscape:connector-curvature="0"
           id="path4540"
           style="stroke-width:0.26458332"
           d="m 82.643293,81.968793 q 0.360892,-0.2794 0.551039,-0.644172 0.194028,-0.364772 0.194028,-0.795514 0,-0.217311 -0.04657,-0.411339 -0.04269,-0.194028 -0.135819,-0.372533 -0.09313,-0.178506 -0.236714,-0.34537 -0.1397,-0.166864 -0.333728,-0.333728 l 0.174625,-0.232833 q 0.446264,0.329847 0.663575,0.76835 0.221192,0.434622 0.221192,0.919692 0,0.240594 -0.05821,0.473428 -0.05433,0.232833 -0.166864,0.450144 -0.108655,0.213431 -0.275519,0.403578 -0.162983,0.194028 -0.384175,0.35313 l -0.170745,-0.232833 z" />
        <path
           inkscape:connector-curvature="0"
           id="path4542"
           style="stroke-width:0.26458332"
           d="m 66.787402,85.201296 q 0,-0.322086 0.06209,-0.5588 0.06209,-0.236714 0.174625,-0.388056 0.112536,-0.155222 0.267758,-0.228952 0.159103,-0.07761 0.353131,-0.07761 0.190147,0 0.34925,0.07761 0.159102,0.07373 0.271639,0.228952 0.112536,0.151342 0.174625,0.388056 0.06597,0.236714 0.06597,0.5588 0,0.322086 -0.06597,0.5588 -0.06209,0.236714 -0.174625,0.391936 -0.112537,0.155222 -0.271639,0.228953 -0.159103,0.07373 -0.34925,0.07373 -0.194028,0 -0.353131,-0.07373 -0.155222,-0.07373 -0.267758,-0.228953 -0.112536,-0.155222 -0.174625,-0.391936 -0.06209,-0.236714 -0.06209,-0.5588 z m 0.325967,0 q 0,0.473428 0.128058,0.725664 0.128058,0.252236 0.395817,0.252236 0.271638,0 0.407458,-0.252236 0.135819,-0.252236 0.135819,-0.725664 0,-0.473428 -0.135819,-0.725664 -0.13582,-0.252236 -0.407458,-0.252236 -0.267759,0 -0.395817,0.252236 -0.128058,0.252236 -0.128058,0.725664 z" />
        <path
           inkscape:connector-curvature="0"
           id="path4544"
           style="stroke-width:0.26458332"
           d="m 64.579382,90.354674 q 0,0.21343 -0.06209,0.388055 -0.05821,0.170745 -0.166863,0.294923 -0.108656,0.124177 -0.259998,0.194027 -0.151341,0.06597 -0.329847,0.06597 -0.174625,0 -0.325967,-0.06597 -0.147461,-0.06985 -0.256116,-0.194027 -0.108656,-0.124178 -0.170745,-0.294923 -0.05821,-0.174625 -0.05821,-0.388055 0,-0.213431 0.05821,-0.388056 0.06209,-0.174625 0.170745,-0.294922 0.108655,-0.124178 0.256116,-0.190147 0.151342,-0.06985 0.325967,-0.06985 0.178506,0 0.329847,0.06985 0.151342,0.06597 0.259998,0.190147 0.108655,0.120297 0.166863,0.294922 0.06209,0.174625 0.06209,0.388056 z m -0.329847,0 q 0,-0.306564 -0.131939,-0.481189 -0.131939,-0.178506 -0.357011,-0.178506 -0.221192,0 -0.35313,0.178506 -0.128059,0.174625 -0.128059,0.481189 0,0.302683 0.128059,0.481189 0.131938,0.174625 0.35313,0.174625 0.225072,0 0.357011,-0.174625 0.131939,-0.178506 0.131939,-0.481189 z" />
        <path
           inkscape:connector-curvature="0"
           id="path4546"
           style="stroke-width:0.26458332"
           d="m 60.171086,95.857302 q 0,0.116416 -0.07761,0.205669 -0.07761,0.08925 -0.20567,0.08925 -0.131938,0 -0.20955,-0.08925 -0.07761,-0.08925 -0.07761,-0.205669 0,-0.120298 0.07761,-0.20955 0.07761,-0.08925 0.20955,-0.08925 0.128059,0 0.20567,0.08925 0.07761,0.08925 0.07761,0.20955 z" />
        <path
           inkscape:connector-curvature="0"
           id="path4548"
           style="stroke-width:0.26458332"
           d="m 31.781044,101.325 h 1.878189 v 0.27164 h -1.878189 z" />
        <path
           inkscape:connector-curvature="0"
           id="path4550"
           style="stroke-width:0.26458332"
           d="m 33.721315,101.325 h 1.878189 v 0.27164 h -1.878189 z" />
        <path
           inkscape:connector-curvature="0"
           id="path4552"
           style="stroke-width:0.26458332"
           d="m 35.661585,101.325 h 1.878189 v 0.27164 h -1.878189 z" />
        <path
           inkscape:connector-curvature="0"
           id="path4554"
           style="stroke-width:0.26458332"
           d="m 37.601856,101.325 h 1.878189 v 0.27164 h -1.878189 z" />
        <path
           inkscape:connector-curvature="0"
           id="path4556"
           style="stroke-width:0.26458332"
           d="m 39.542126,101.325 h 1.878189 v 0.27164 h -1.878189 z" />
        <path
           inkscape:connector-curvature="0"
           id="path4558"
           style="stroke-width:0.26458332"
           d="m 42.029555,101.26292 q 0.06985,-0.0155 0.135819,-0.031 0.06985,-0.0155 0.128059,-0.0466 0.05821,-0.0272 0.104775,-0.0737 0.04657,-0.0427 0.07373,-0.12029 -0.124178,-0.0116 -0.182386,-0.0931 -0.05433,-0.0854 -0.05433,-0.16686 0,-0.15522 0.08537,-0.23283 0.08925,-0.0815 0.201788,-0.0815 0.143581,0 0.217312,0.10478 0.07373,0.10089 0.07373,0.24836 0,0.11253 -0.04657,0.23283 -0.04269,0.12418 -0.135819,0.22895 -0.08925,0.10866 -0.225072,0.18239 -0.13582,0.0776 -0.322086,0.10089 z" />
        <path
           inkscape:connector-curvature="0"
           id="path4560"
           style="stroke-width:0.26458332"
           d="m 43.969825,101.26292 q 0.06985,-0.0155 0.13582,-0.031 0.06985,-0.0155 0.128058,-0.0466 0.05821,-0.0272 0.104775,-0.0737 0.04657,-0.0427 0.07373,-0.12029 -0.124178,-0.0116 -0.182386,-0.0931 -0.05433,-0.0854 -0.05433,-0.16686 0,-0.15522 0.08537,-0.23283 0.08925,-0.0815 0.201789,-0.0815 0.14358,0 0.217311,0.10478 0.07373,0.10089 0.07373,0.24836 0,0.11253 -0.04657,0.23283 -0.04269,0.12418 -0.13582,0.22895 -0.08925,0.10866 -0.225072,0.18239 -0.135819,0.0776 -0.322086,0.10089 z" />
        <path
           inkscape:connector-curvature="0"
           id="path4562"
           style="stroke-width:0.26458332"
           d="m 45.910096,101.26292 q 0.06985,-0.0155 0.135819,-0.031 0.06985,-0.0155 0.128059,-0.0466 0.05821,-0.0272 0.104775,-0.0737 0.04657,-0.0427 0.07373,-0.12029 -0.124178,-0.0116 -0.182386,-0.0931 -0.05433,-0.0854 -0.05433,-0.16686 0,-0.15522 0.08537,-0.23283 0.08925,-0.0815 0.201789,-0.0815 0.143581,0 0.217311,0.10478 0.07373,0.10089 0.07373,0.24836 0,0.11253 -0.04657,0.23283 -0.04269,0.12418 -0.135819,0.22895 -0.08925,0.10866 -0.225072,0.18239 -0.13582,0.0776 -0.322086,0.10089 z" />
        <path
           inkscape:connector-curvature="0"
           id="path4564"
           style="stroke-width:0.26458332"
           d="m 47.303208,101.325 h 1.878189 v 0.27164 h -1.878189 z" />
        <path
           inkscape:connector-curvature="0"
           id="path4566"
           style="stroke-width:0.26458332"
           d="m 50.326152,98.554288 0.671336,1.179689 -0.256116,0.131939 -0.5588,-0.9779 -0.5588,0.9779 -0.256117,-0.131939 0.671336,-1.179689 z" />
        <path
           inkscape:connector-curvature="0"
           id="path4568"
           style="stroke-width:0.26458332"
           d="m 52.410004,100.708 q 0,0.11641 -0.07761,0.20567 -0.07761,0.0893 -0.205669,0.0893 -0.131939,0 -0.20955,-0.0893 -0.07761,-0.0893 -0.07761,-0.20567 0,-0.1203 0.07761,-0.20955 0.07761,-0.0893 0.20955,-0.0893 0.128058,0 0.205669,0.0893 0.07761,0.0892 0.07761,0.20955 z" />
        <path
           inkscape:connector-curvature="0"
           id="path4570"
           style="stroke-width:0.26458332"
           d="m 54.350276,100.708 q 0,0.11641 -0.07761,0.20567 -0.07761,0.0893 -0.20567,0.0893 -0.131939,0 -0.20955,-0.0893 -0.07761,-0.0893 -0.07761,-0.20567 0,-0.1203 0.07761,-0.20955 0.07761,-0.0893 0.20955,-0.0893 0.128058,0 0.20567,0.0893 0.07761,0.0892 0.07761,0.20955 z" />
        <path
           inkscape:connector-curvature="0"
           id="path4572"
           style="stroke-width:0.26458332"
           d="m 56.146965,98.554288 0.671336,1.179689 -0.256117,0.131939 -0.5588,-0.9779 -0.5588,0.9779 -0.256117,-0.131939 0.671336,-1.179689 z" />
        <path
           inkscape:connector-curvature="0"
           id="path4574"
           style="stroke-width:0.26458332"
           d="m 57.004559,101.325 h 1.878189 v 0.27164 h -1.878189 z" />
        <path
           inkscape:connector-curvature="0"
           id="path4576"
           style="stroke-width:0.26458332"
           d="m 59.491989,101.26292 q 0.06985,-0.0155 0.135819,-0.031 0.06985,-0.0155 0.128059,-0.0466 0.05821,-0.0272 0.104775,-0.0737 0.04657,-0.0427 0.07373,-0.12029 -0.124178,-0.0116 -0.182386,-0.0931 -0.05433,-0.0854 -0.05433,-0.16686 0,-0.15522 0.08537,-0.23283 0.08925,-0.0815 0.201789,-0.0815 0.143581,0 0.217311,0.10478 0.07373,0.10089 0.07373,0.24836 0,0.11253 -0.04657,0.23283 -0.04269,0.12418 -0.135819,0.22895 -0.08925,0.10866 -0.225072,0.18239 -0.13582,0.0776 -0.322086,0.10089 z" />
        <path
           inkscape:connector-curvature="0"
           id="path4578"
           style="stroke-width:0.26458332"
           d="m 61.43226,101.26292 q 0.06985,-0.0155 0.13582,-0.031 0.06985,-0.0155 0.128058,-0.0466 0.05821,-0.0272 0.104775,-0.0737 0.04657,-0.0427 0.07373,-0.12029 -0.124177,-0.0116 -0.182386,-0.0931 -0.05433,-0.0854 -0.05433,-0.16686 0,-0.15522 0.08537,-0.23283 0.08925,-0.0815 0.201789,-0.0815 0.14358,0 0.217311,0.10478 0.07373,0.10089 0.07373,0.24836 0,0.11253 -0.04657,0.23283 -0.04269,0.12418 -0.13582,0.22895 -0.08925,0.10866 -0.225072,0.18239 -0.135819,0.0776 -0.322086,0.10089 z" />
        <path
           inkscape:connector-curvature="0"
           id="path4580"
           style="stroke-width:0.26458332"
           d="m 63.37253,101.26292 q 0.06985,-0.0155 0.135819,-0.031 0.06985,-0.0155 0.128058,-0.0466 0.05821,-0.0272 0.104775,-0.0737 0.04657,-0.0427 0.07373,-0.12029 -0.124178,-0.0116 -0.182386,-0.0931 -0.05433,-0.0854 -0.05433,-0.16686 0,-0.15522 0.08537,-0.23283 0.08925,-0.0815 0.201789,-0.0815 0.143581,0 0.217311,0.10478 0.07373,0.10089 0.07373,0.24836 0,0.11253 -0.04657,0.23283 -0.04269,0.12418 -0.135819,0.22895 -0.08925,0.10866 -0.225073,0.18239 -0.135819,0.0776 -0.322086,0.10089 z" />
        <path
           inkscape:connector-curvature="0"
           id="path4582"
           style="stroke-width:0.26458332"
           d="m 64.765641,101.325 h 1.878189 v 0.27164 h -1.878189 z" />
        <path
           inkscape:connector-curvature="0"
           id="path4584"
           style="stroke-width:0.26458332"
           d="m 66.70591,101.325 h 1.878189 v 0.27164 H 66.70591 Z" />
        <path
           inkscape:connector-curvature="0"
           id="path4586"
           style="stroke-width:0.26458332"
           d="m 68.646183,101.325 h 1.878189 v 0.27164 h -1.878189 z" />
        <path
           inkscape:connector-curvature="0"
           id="path4588"
           style="stroke-width:0.26458332"
           d="m 70.586453,101.325 h 1.878189 v 0.27164 h -1.878189 z" />
        <path
           inkscape:connector-curvature="0"
           id="path4590"
           style="stroke-width:0.26458332"
           d="m 72.526722,101.325 h 1.878189 v 0.27164 h -1.878189 z" />
        <path
           inkscape:connector-curvature="0"
           id="path4592"
           style="stroke-width:0.26458332"
           d="m 31.781044,106.1757 h 1.878189 v 0.27164 h -1.878189 z" />
        <path
           inkscape:connector-curvature="0"
           id="path4594"
           style="stroke-width:0.26458332"
           d="m 33.721315,106.1757 h 1.878189 v 0.27164 h -1.878189 z" />
        <path
           inkscape:connector-curvature="0"
           id="path4596"
           style="stroke-width:0.26458332"
           d="m 36.453219,103.09454 h 0.298802 v 3.3528 h -0.298802 z" />
        <path
           inkscape:connector-curvature="0"
           id="path4598"
           style="stroke-width:0.26458332"
           d="m 37.601856,106.1757 h 1.878189 v 0.27164 h -1.878189 z" />
        <path
           inkscape:connector-curvature="0"
           id="path4600"
           style="stroke-width:0.26458332"
           d="m 39.542126,106.1757 h 1.878189 v 0.27164 h -1.878189 z" />
        <path
           inkscape:connector-curvature="0"
           id="path4602"
           style="stroke-width:0.26458332"
           d="m 41.482397,106.1757 h 1.878188 v 0.27164 h -1.878188 z" />
        <path
           inkscape:connector-curvature="0"
           id="path4604"
           style="stroke-width:0.26458332"
           d="m 43.422667,106.1757 h 1.878189 v 0.27164 h -1.878189 z" />
        <path
           inkscape:connector-curvature="0"
           id="path4606"
           style="stroke-width:0.26458332"
           d="m 46.154571,103.09454 h 0.298803 v 3.3528 h -0.298803 z" />
        <path
           inkscape:connector-curvature="0"
           id="path4608"
           style="stroke-width:0.26458332"
           d="m 47.303208,106.1757 h 1.878189 v 0.27164 h -1.878189 z" />
        <path
           inkscape:connector-curvature="0"
           id="path4610"
           style="stroke-width:0.26458332"
           d="m 49.243477,106.1757 h 1.878189 v 0.27164 h -1.878189 z" />
        <path
           inkscape:connector-curvature="0"
           id="path4612"
           style="stroke-width:0.26458332"
           d="m 51.183749,106.1757 h 1.878189 v 0.27164 h -1.878189 z" />
        <path
           inkscape:connector-curvature="0"
           id="path4614"
           style="stroke-width:0.26458332"
           d="m 53.12402,106.1757 h 1.878189 v 0.27164 H 53.12402 Z" />
        <path
           inkscape:connector-curvature="0"
           id="path4616"
           style="stroke-width:0.26458332"
           d="m 55.855923,103.09454 h 0.298803 v 3.3528 h -0.298803 z" />
        <path
           inkscape:connector-curvature="0"
           id="path4618"
           style="stroke-width:0.26458332"
           d="m 57.004559,106.1757 h 1.878189 v 0.27164 h -1.878189 z" />
        <path
           inkscape:connector-curvature="0"
           id="path4620"
           style="stroke-width:0.26458332"
           d="m 58.94483,106.1757 h 1.878189 v 0.27164 H 58.94483 Z" />
        <path
           inkscape:connector-curvature="0"
           id="path4622"
           style="stroke-width:0.26458332"
           d="m 60.885102,106.1757 h 1.878189 v 0.27164 h -1.878189 z" />
        <path
           inkscape:connector-curvature="0"
           id="path4624"
           style="stroke-width:0.26458332"
           d="m 62.825371,106.1757 h 1.878189 v 0.27164 h -1.878189 z" />
        <path
           inkscape:connector-curvature="0"
           id="path4626"
           style="stroke-width:0.26458332"
           d="m 65.557274,103.09454 h 0.298803 v 3.3528 h -0.298803 z" />
        <path
           inkscape:connector-curvature="0"
           id="path4628"
           style="stroke-width:0.26458332"
           d="m 66.70591,106.1757 h 1.878189 v 0.27164 H 66.70591 Z" />
        <path
           inkscape:connector-curvature="0"
           id="path4630"
           style="stroke-width:0.26458332"
           d="m 68.646183,106.1757 h 1.878189 v 0.27164 h -1.878189 z" />
        <path
           inkscape:connector-curvature="0"
           id="path4632"
           style="stroke-width:0.26458332"
           d="m 70.586453,106.1757 h 1.878189 v 0.27164 h -1.878189 z" />
        <path
           inkscape:connector-curvature="0"
           id="path4634"
           style="stroke-width:0.26458332"
           d="m 72.526722,106.1757 h 1.878189 v 0.27164 h -1.878189 z" />
        <path
           inkscape:connector-curvature="0"
           id="path4636"
           style="stroke-width:0.26458332"
           d="m 31.781044,111.02639 h 1.878189 v 0.27164 h -1.878189 z" />
        <path
           inkscape:connector-curvature="0"
           id="path4638"
           style="stroke-width:0.26458332"
           d="m 33.721315,111.02639 h 1.878189 v 0.27164 h -1.878189 z" />
        <path
           inkscape:connector-curvature="0"
           id="path4640"
           style="stroke-width:0.26458332"
           d="m 35.661585,111.02639 h 1.878189 v 0.27164 h -1.878189 z" />
        <path
           inkscape:connector-curvature="0"
           id="path4642"
           style="stroke-width:0.26458332"
           d="m 37.601856,111.02639 h 1.878189 v 0.27164 h -1.878189 z" />
        <path
           inkscape:connector-curvature="0"
           id="path4644"
           style="stroke-width:0.26458332"
           d="m 40.333759,107.94523 h 0.298803 v 3.3528 h -0.298803 z" />
        <path
           inkscape:connector-curvature="0"
           id="path4646"
           style="stroke-width:0.26458332"
           d="m 41.482397,111.02639 h 1.878188 v 0.27164 h -1.878188 z" />
        <path
           inkscape:connector-curvature="0"
           id="path4648"
           style="stroke-width:0.26458332"
           d="m 43.422667,111.02639 h 1.878189 v 0.27164 h -1.878189 z" />
        <path
           inkscape:connector-curvature="0"
           id="path4650"
           style="stroke-width:0.26458332"
           d="m 45.362937,111.02639 h 1.878189 v 0.27164 h -1.878189 z" />
        <path
           inkscape:connector-curvature="0"
           id="path4652"
           style="stroke-width:0.26458332"
           d="m 47.303208,111.02639 h 1.878189 v 0.27164 h -1.878189 z" />
        <path
           inkscape:connector-curvature="0"
           id="path4654"
           style="stroke-width:0.26458332"
           d="m 50.035111,107.94523 h 0.298802 v 3.3528 h -0.298802 z" />
        <path
           inkscape:connector-curvature="0"
           id="path4656"
           style="stroke-width:0.26458332"
           d="m 51.183749,111.02639 h 1.878189 v 0.27164 h -1.878189 z" />
        <path
           inkscape:connector-curvature="0"
           id="path4658"
           style="stroke-width:0.26458332"
           d="m 53.12402,111.02639 h 1.878189 v 0.27164 H 53.12402 Z" />
        <path
           inkscape:connector-curvature="0"
           id="path4660"
           style="stroke-width:0.26458332"
           d="m 55.06429,111.02639 h 1.878188 v 0.27164 H 55.06429 Z" />
        <path
           inkscape:connector-curvature="0"
           id="path4662"
           style="stroke-width:0.26458332"
           d="m 57.004559,111.02639 h 1.878189 v 0.27164 h -1.878189 z" />
        <path
           inkscape:connector-curvature="0"
           id="path4664"
           style="stroke-width:0.26458332"
           d="m 59.736464,107.94523 h 0.298803 v 3.3528 h -0.298803 z" />
        <path
           inkscape:connector-curvature="0"
           id="path4666"
           style="stroke-width:0.26458332"
           d="m 60.885102,111.02639 h 1.878189 v 0.27164 h -1.878189 z" />
        <path
           inkscape:connector-curvature="0"
           id="path4668"
           style="stroke-width:0.26458332"
           d="m 62.825371,111.02639 h 1.878189 v 0.27164 h -1.878189 z" />
        <path
           inkscape:connector-curvature="0"
           id="path4670"
           style="stroke-width:0.26458332"
           d="m 64.765641,111.02639 h 1.878189 v 0.27164 h -1.878189 z" />
        <path
           inkscape:connector-curvature="0"
           id="path4672"
           style="stroke-width:0.26458332"
           d="m 66.70591,111.02639 h 1.878189 v 0.27164 H 66.70591 Z" />
        <path
           inkscape:connector-curvature="0"
           id="path4674"
           style="stroke-width:0.26458332"
           d="m 69.437817,107.94523 h 0.298803 v 3.3528 h -0.298803 z" />
        <path
           inkscape:connector-curvature="0"
           id="path4676"
           style="stroke-width:0.26458332"
           d="m 70.586453,111.02639 h 1.878189 v 0.27164 h -1.878189 z" />
        <path
           inkscape:connector-curvature="0"
           id="path4678"
           style="stroke-width:0.26458332"
           d="m 72.526722,111.02639 h 1.878189 v 0.27164 h -1.878189 z" />
      </g>
      <g
         id="text4536"
         style="font-style:normal;font-variant:normal;font-weight:normal;font-stretch:normal;font-size:3.88055563px;line-height:1.25;font-family:'Merriweather Sans';-inkscape-font-specification:'Merriweather Sans';letter-spacing:0px;word-spacing:0px;fill:#000000;fill-opacity:1;stroke:none;stroke-width:0.26458332"
         aria-label="ally">
        <path
           inkscape:connector-curvature="0"
           id="path4681"
           style="font-weight:bold;font-size:4.93888903px;stroke-width:0.26458332"
           d="m 73.247216,81.288074 c 0,0.518487 0.356912,0.894691 0.897103,0.894691 0.325561,0 0.569129,-0.135047 0.716235,-0.270095 v 0.01929 c 0,0.238746 0.09887,0.250803 0.282153,0.250803 h 0.438906 v -1.835202 c 0,-0.798229 -0.352089,-1.005623 -1.116556,-1.005623 -0.434082,0 -0.928453,0.180867 -1.104498,0.286976 l 0.166399,0.482313 c 0.233922,-0.106109 0.610126,-0.195337 0.757232,-0.195337 0.465432,0 0.545014,0.05788 0.545014,0.352089 v 0.173633 c -0.347266,0 -0.798229,0.02412 -1.102086,0.159163 -0.296623,0.132637 -0.479902,0.354501 -0.479902,0.687297 z m 0.776524,-0.0048 c 0,-0.204983 0.125402,-0.274919 0.238745,-0.318327 0.113344,-0.05305 0.385851,-0.09887 0.566719,-0.09887 v 0.655946 c -0.05064,0.06511 -0.258038,0.151929 -0.426848,0.151929 -0.214629,0 -0.378616,-0.12299 -0.378616,-0.390674 z" />
        <path
           inkscape:connector-curvature="0"
           id="path4683"
           style="font-weight:bold;font-size:4.93888903px;stroke-width:0.26458332"
           d="m 76.384664,82.14418 h 0.752409 v -4.008024 h -0.752409 z" />
        <path
           inkscape:connector-curvature="0"
           id="path4685"
           style="font-weight:bold;font-size:4.93888903px;stroke-width:0.26458332"
           d="m 78.005237,82.14418 h 0.752409 v -4.008024 h -0.752409 z" />
        <path
           inkscape:connector-curvature="0"
           id="path4687"
           style="font-weight:bold;font-size:4.93888903px;stroke-width:0.26458332"
           d="m 79.481116,82.710899 v 0.610126 c 0.02894,0.01929 0.294211,0.04582 0.366558,0.04582 0.07476,0 0.277331,-0.02412 0.366558,-0.05064 0.366559,-0.108521 0.721059,-0.434082 0.923631,-1.099675 l 0.856106,-2.821533 h -0.807875 l -0.335208,1.468644 -0.185691,0.795817 -0.20016,-0.795817 -0.417201,-1.468644 h -0.815109 l 0.933276,2.749186 h 0.32315 c -0.159163,0.61495 -0.496783,0.61495 -0.735528,0.61495 -0.05547,0 -0.219452,-0.03135 -0.272507,-0.04823 z" />
      </g>
    </g>
  </g>
</svg>
